SplineFontDB: 3.0
FontName: StickNoBillsSinhala-light
FullName: Stick No Bills
FamilyName: Stick No Bills
OS2FamilyName: "Stick No Bills Regular"
OS2StyleName: "regular"
Weight: Light
Copyright: Copyright (c) 2015 mooniak (http://mooniak.com)
UComments: "2015-2-15: Created with FontForge (http://fontforge.org) The  Free Font Editor"
Version: 1.0
ItalicAngle: 0
UnderlinePosition: 0
UnderlineWidth: 0
Ascent: 819
Descent: 250
InvalidEm: 0
UFOAscent: 819
UFODescent: -250
LayerCount: 2
Layer: 0 0 "Back" 1
Layer: 1 0 "Fore" 0
PreferredKerning: 4
FSType: 0
OS2Version: 0
OS2_WeightWidthSlopeOnly: 0
OS2_UseTypoMetrics: 0
CreationTime: 1445928450
ModificationTime: 1453474916
PfmFamily: 16
TTFWeight: 400
TTFWidth: 5
LineGap: 0
VLineGap: 0
OS2TypoAscent: 819
OS2TypoAOffset: 0
OS2TypoDescent: -250
OS2TypoDOffset: 0
OS2TypoLinegap: 0
OS2WinAscent: 922
OS2WinAOffset: 0
OS2WinDescent: 234
OS2WinDOffset: 0
HheadAscent: 922
HheadAOffset: 0
HheadDescent: -234
HheadDOffset: 0
OS2CapHeight: 0
OS2XHeight: 0
OS2Vendor: 'PfEd'
OS2UnicodeRanges: 00000002.00000000.00000000.00000000
Lookup: 4 0 0 "si_akhands" { "si_akhands subtable"  } ['akhn' ('sinh' <'dflt' > ) ]
Lookup: 4 0 0 "si_reph" { "si_reph subtable"  } ['rphf' ('sinh' <'dflt' > ) ]
Lookup: 4 0 0 "si_halant_1" { "si_halant_1 subtable"  } ['haln' ('sinh' <'dflt' > ) ]
Lookup: 4 0 0 "si_abvs_1" { "si_abvs_1 subtable"  } ['abvs' ('sinh' <'dflt' > ) ]
Lookup: 4 0 0 "si_abvs_2" { "si_abvs_2 subtable"  } ['abvs' ('sinh' <'dflt' > ) ]
Lookup: 4 0 0 "si_abvs_3" { "si_abvs_3 subtable"  } ['abvs' ('sinh' <'dflt' > ) ]
Lookup: 4 0 0 "si_abvs_4" { "si_abvs_4 subtable"  } ['abvs' ('sinh' <'dflt' > ) ]
Lookup: 4 0 0 "si_abvs_5" { "si_abvs_5 subtable"  } ['abvs' ('sinh' <'dflt' > ) ]
Lookup: 4 0 0 "si_abvs_6" { "si_abvs_6 subtable"  } ['abvs' ('sinh' <'dflt' > ) ]
Lookup: 4 0 0 "si_abvs_7" { "si_abvs_7 subtable"  } ['abvs' ('sinh' <'dflt' > ) ]
Lookup: 4 0 0 "si_blws_1" { "si_blws_1 subtable"  } ['blws' ('sinh' <'dflt' > ) ]

StartChar: si_Ya.post.MatraI
Encoding: 541 -1 0
GlifName: N_ameM_e.124
Width: 498
VWidth: 0
GlyphClass: 2
Flags: HW
LayerCount: 2
Back
Fore
SplineSet
27 602 m 257
 27 630 l 257
 27 723 102.741210938 789 203 789 c 257
 282 789 l 257
 382.258789062 789 458 723 458 630 c 257
 458 602 l 257
 418 602 l 257
 418 654.112304688 408.857421875 749 266 749 c 257
 219 749 l 257
 76.142578125 749 67 654.112304688 67 602 c 257
 27 602 l 257
EndSplineSet
Refer: 528 -1 N 1 0 0 1 0 0 2
EndChar

StartChar: anusvara
Encoding: 1 3458 1
GlifName: anusvara
Width: 449
VWidth: 0
GlyphClass: 2
Flags: W
HStem: 45 130 384 130
VStem: 20 135 294 135
LayerCount: 2
Back
Fore
SplineSet
249.334 45 m 257
 249.334 85 l 257
 358.889 85 378.668 150.602 378.668 248 c 258
 378.668 311 l 258
 378.668 408.398 356.889 474 249.334 474 c 257
 249.334 514 l 257
 270.405 514 l 258
 415.668 514 418.668 369.253 418.668 311 c 258
 418.668 248 l 258
 418.668 189.747 415.668 45 270.405 45 c 258
 249.334 45 l 257
178.263 45 m 258
 33 45 30 189.747 30 248 c 258
 30 311 l 258
 30 369.253 33 514 178.263 514 c 258
 199.334 514 l 257
 199.334 474 l 257
 91.7793 474 70 408.398 70 311 c 258
 70 248 l 258
 70 150.602 89.7793 85 199.334 85 c 257
 199.334 45 l 257
 178.263 45 l 258
EndSplineSet
PickledDataWithLists: "(dp1
S'com.fontlab.hintData'
p2
(dp3
S'vhints'
p4
(lp5
(dp6
S'position'
p7
I20
sS'width'
p8
I135
sa(dp9
g7
I294
sg8
I135
sasS'hhints'
p10
(lp11
(dp12
g7
I45
sg8
I130
sa(dp13
g7
I384
sg8
I130
sass."
EndChar

StartChar: dottedcircle
Encoding: 83 9676 2
GlifName: dottedcircle
Width: 636
VWidth: 0
GlyphClass: 2
Flags: W
LayerCount: 2
Back
Fore
SplineSet
167.958 483.58 m 256
 167.958 502.58 182.958 517.58 201.958 517.58 c 256
 220.958 517.58 235.958 502.58 235.958 483.58 c 256
 235.958 464.58 220.958 449.58 201.958 449.58 c 256
 182.958 449.58 167.958 464.58 167.958 483.58 c 256
82.4199 398.042 m 256
 82.4199 417.042 97.4199 432.042 116.42 432.042 c 256
 135.42 432.042 150.42 417.042 150.42 398.042 c 256
 150.42 379.042 135.42 364.042 116.42 364.042 c 256
 97.4199 364.042 82.4199 379.042 82.4199 398.042 c 256
167.958 72.4199 m 256
 167.958 91.4199 182.958 106.42 201.958 106.42 c 256
 220.958 106.42 235.958 91.4199 235.958 72.4199 c 256
 235.958 53.4199 220.958 38.4199 201.958 38.4199 c 256
 182.958 38.4199 167.958 53.4199 167.958 72.4199 c 256
82.4199 157.958 m 256
 82.4199 176.958 97.4199 191.958 116.42 191.958 c 256
 135.42 191.958 150.42 176.958 150.42 157.958 c 256
 150.42 138.958 135.42 123.958 116.42 123.958 c 256
 97.4199 123.958 82.4199 138.958 82.4199 157.958 c 256
408.042 72.4199 m 256
 408.042 91.4199 423.042 106.42 442.042 106.42 c 256
 461.042 106.42 476.042 91.4199 476.042 72.4199 c 256
 476.042 53.4199 461.042 38.4199 442.042 38.4199 c 256
 423.042 38.4199 408.042 53.4199 408.042 72.4199 c 256
493.58 157.958 m 256
 493.58 176.958 508.58 191.958 527.58 191.958 c 256
 546.58 191.958 561.58 176.958 561.58 157.958 c 256
 561.58 138.958 546.58 123.958 527.58 123.958 c 256
 508.58 123.958 493.58 138.958 493.58 157.958 c 256
493.58 398.042 m 256
 493.58 417.042 508.58 432.042 527.58 432.042 c 256
 546.58 432.042 561.58 417.042 561.58 398.042 c 256
 561.58 379.042 546.58 364.042 527.58 364.042 c 256
 508.58 364.042 493.58 379.042 493.58 398.042 c 256
408.042 483.58 m 256
 408.042 502.58 423.042 517.58 442.042 517.58 c 256
 461.042 517.58 476.042 502.58 476.042 483.58 c 256
 476.042 464.58 461.042 449.58 442.042 449.58 c 256
 423.042 449.58 408.042 464.58 408.042 483.58 c 256
526 278 m 256
 526 297 541 312 560 312 c 256
 579 312 594 297 594 278 c 256
 594 259 579 244 560 244 c 256
 541 244 526 259 526 278 c 256
288 40 m 256
 288 59 303 74 322 74 c 256
 341 74 356 59 356 40 c 256
 356 21 341 6 322 6 c 256
 303 6 288 21 288 40 c 256
50 278 m 256
 50 297 65 312 84 312 c 256
 103 312 118 297 118 278 c 256
 118 259 103 244 84 244 c 256
 65 244 50 259 50 278 c 256
288 516 m 256
 288 535 303 550 322 550 c 256
 341 550 356 535 356 516 c 256
 356 497 341 482 322 482 c 256
 303 482 288 497 288 516 c 256
EndSplineSet
EndChar

StartChar: si_A
Encoding: 3 3461 3
GlifName: si_A_
Width: 541
VWidth: 0
GlyphClass: 2
Flags: W
LayerCount: 2
Back
Fore
SplineSet
392 -169 m 257
 392 433 l 258
 392 519 446 570 503 583 c 257
 511 545 l 257
 453 532 432 474.004 432 433 c 258
 432 41 l 257
 494 41 l 257
 494 0 l 257
 432 0 l 257
 432 -169 l 257
 392 -169 l 257
30 199 m 256
 30 335.29 125.045 402 256 402 c 258
 392 402 l 257
 392 493.372 320.287 537.564 242.646 537.564 c 256
 181.683 537.564 123.614 504.852 107 443 c 257
 68 456 l 257
 89.4072 536.278 163.421 579.363 240.706 579.363 c 256
 339.016 579.363 432 518.503 432 389 c 258
 432 362 l 257
 246 362 l 258
 130.019 362 71.624 293.457 71.624 199 c 256
 71.624 108.484 133.124 40 257 40 c 257
 337 40 l 257
 337 0 l 257
 257 0 l 258
 137 0 30 60.3916 30 199 c 256
EndSplineSet
EndChar

StartChar: si_B.halant
Encoding: 304 -1 9
GlifName: si_B_.halant
Width: 586
VWidth: 0
GlyphClass: 3
Flags: W
LayerCount: 2
Back
Fore
SplineSet
30 177 m 258
 30 284 l 258
 30 389.836 100.241 443.319 170.235 443.319 c 256
 239.739 443.319 309 390.582 309 284 c 258
 309 141 l 258
 309 74.4023 360.817 40.54 412.348 40.54 c 256
 463.314 40.54 514 73.6631 514 141 c 257
 514 264 l 257
 556 264 l 257
 556 144 l 257
 556 45.5029 483.061 -3.95117 410.596 -3.95117 c 256
 339.067 -3.95117 268 44.2344 268 141 c 258
 268 284 l 258
 268 359.832 218.751 397.785 169.502 397.785 c 256
 120.284 397.785 71.0654 359.881 71 284 c 258
 70.917 177 l 258
 71 65 123.457 40 211 40 c 257
 211 0 l 257
 91.1055 0 30 45 30 177 c 258
41.333 612 m 257
 41.333 652 l 257
 71.8223 652 l 257
 57.8994 670.11 50.9775 692.449 50.9775 714.83 c 256
 50.9775 766.802 88.3086 819 162 819 c 258
 256 819 l 257
 256 779 l 257
 152 779 l 258
 110.071 779 88.8809 747.025 88.8809 715.163 c 256
 88.8809 683.526 109.774 652 152 652 c 258
 331 652 l 257
 331 612 l 257
 41.333 612 l 257
514 264 m 256
 514 411 l 258
 514 558.607 444.056 612 331 612 c 257
 331 652 l 257
 490.37 652 556 567.922 556 411 c 258
 556 411 556 264 556 264 c 256
 514 264 l 256
494.333 673 m 257
 494.333 770 446.333 779 401 779 c 258
 311.5 779 l 257
 311.5 819 l 257
 401 819 l 258
 479.359 819 534.333 776 534.333 673 c 257
 494.333 673 l 257
EndSplineSet
Ligature2: "si_halant_1 subtable" si_Ba si_Halant
EndChar

StartChar: si_BI
Encoding: 305 -1 10
GlifName: si_B_I_
Width: 586
VWidth: 0
GlyphClass: 3
Flags: W
LayerCount: 2
Back
Fore
SplineSet
30 177 m 258
 30 284 l 258
 30 389.836 100.241 443.319 170.235 443.319 c 256
 239.739 443.319 309 390.582 309 284 c 258
 309 141 l 258
 309 74.4023 360.817 40.54 412.348 40.54 c 256
 463.314 40.54 514 73.6631 514 141 c 257
 514 264 l 257
 556 264 l 257
 556 144 l 257
 556 45.5029 483.061 -3.95117 410.596 -3.95117 c 256
 339.067 -3.95117 268 44.2344 268 141 c 258
 268 284 l 258
 268 359.832 218.751 397.785 169.502 397.785 c 256
 120.284 397.785 71.0654 359.881 71 284 c 258
 70.917 177 l 258
 71 65 123.457 40 211 40 c 257
 211 0 l 257
 91.1055 0 30 45 30 177 c 258
163 612 m 258
 88.6695 612 51.9774 663.304 51.9774 714.83 c 256
 51.9774 766.802 89.3087 819 163 819 c 258
 256 819 l 257
 256 779 l 257
 153 779 l 258
 111.071 779 89.8813 747.025 89.8813 715.163 c 256
 89.8813 683.526 110.774 652 153 652 c 258
 331 652 l 257
 331 612 l 257
 163 612 l 258
514 264 m 256
 514 411 l 258
 514 558.607 444.056 612 331 612 c 257
 331 652 l 257
 490.37 652 556 567.922 556 411 c 258
 556 411 556 264 556 264 c 256
 514 264 l 256
311.5 779 m 257
 311.5 819 l 257
 401 819 l 258
 479.359 819 534.333 776 534.333 673 c 257
 494.333 673 l 257
 494.333 770 446.333 779 401 779 c 258
 311.5 779 l 257
EndSplineSet
Ligature2: "si_abvs_1 subtable" si_Ba si_MatraI
EndChar

StartChar: si_BIi
Encoding: 306 -1 11
GlifName: si_B_I_i
Width: 586
VWidth: 0
GlyphClass: 3
Flags: W
LayerCount: 2
Back
Fore
SplineSet
30 177 m 258
 30 284 l 258
 30 389.836 100.241 443.319 170.235 443.319 c 256
 239.739 443.319 309 390.582 309 284 c 258
 309 141 l 258
 309 74.4023 360.817 40.54 412.348 40.54 c 256
 463.314 40.54 514 73.6631 514 141 c 257
 514 264 l 257
 556 264 l 257
 556 144 l 257
 556 45.5029 483.061 -3.95117 410.596 -3.95117 c 256
 339.067 -3.95117 268 44.2344 268 141 c 258
 268 284 l 258
 268 359.832 218.751 397.785 169.502 397.785 c 256
 120.284 397.785 71.0654 359.881 71 284 c 258
 70.917 177 l 258
 71 65 123.457 40 211 40 c 257
 211 0 l 257
 91.1055 0 30 45 30 177 c 258
163 612 m 258
 88.6695 612 51.9774 663.304 51.9774 714.83 c 256
 51.9774 766.802 89.3087 819 163 819 c 258
 256 819 l 257
 256 779 l 257
 153 779 l 258
 111.071 779 89.8813 747.025 89.8813 715.163 c 256
 89.8813 683.526 110.774 652 153 652 c 258
 331 652 l 257
 331 612 l 257
 163 612 l 258
457.96 603.56 m 256
 408.04 603.56 367.72 643.88 367.72 693.8 c 256
 367.72 729.745 388.625 760.713 418.967 775.235 c 257
 401.36 778.291 383.931 779 370 779 c 258
 311.5 779 l 257
 311.5 819 l 257
 386 819 l 258
 471.222 819 548.174 789.785 548.2 693.8 c 256
 548.2 643.88 507.88 603.56 457.96 603.56 c 256
514 264 m 256
 514 411 l 258
 514 558.607 444.056 612 331 612 c 257
 331 652 l 257
 490.37 652 556 567.922 556 411 c 258
 556 411 556 264 556 264 c 256
 514 264 l 256
EndSplineSet
Ligature2: "si_abvs_2 subtable" si_Ba si_MatraIi
EndChar

StartChar: si_BR.halant
Encoding: 310 -1 12
GlifName: si_B_R_.halant
Width: 586
VWidth: 0
GlyphClass: 2
Flags: W
LayerCount: 2
Back
Fore
SplineSet
315 -225 m 257
 315 -185 l 257
 440.492 -185 509.786 -120.229 509.786 -47.0527 c 256
 509.786 -14.9844 498.611 11.9023 475.704 32.124 c 257
 506.454 60.8232 l 257
 536.936 33.0381 551.003 -4.1416 551.003 -47.0527 c 256
 551.003 -161.31 451 -225.053 315 -225 c 257
258.833 -225.091 m 257
 116.746 -225.148 26.833 -161.891 26.833 -48.1436 c 257
 66.833 -48.1436 l 257
 66.833 -160.449 187.833 -185.182 258.833 -185.091 c 257
 258.833 -225.091 l 257
EndSplineSet
Refer: 9 -1 N 1 0 0 1 0 0 2
EndChar

StartChar: si_BRI
Encoding: 312 -1 13
GlifName: si_B_R_I_
Width: 586
VWidth: 0
GlyphClass: 3
Flags: W
LayerCount: 2
Back
Fore
SplineSet
315 -225 m 257
 315 -185 l 257
 440.492 -185 509.786 -120.229 509.786 -47.0527 c 256
 509.786 -14.9844 498.611 11.9023 475.704 32.124 c 257
 506.454 60.8232 l 257
 536.936 33.0381 551.003 -4.1416 551.003 -47.0527 c 256
 551.003 -161.31 451 -225.053 315 -225 c 257
258.833 -225.091 m 257
 116.746 -225.148 26.833 -161.891 26.833 -48.1436 c 257
 66.833 -48.1436 l 257
 66.833 -160.449 187.833 -185.182 258.833 -185.091 c 257
 258.833 -225.091 l 257
EndSplineSet
Refer: 10 -1 N 1 0 0 1 0 0 2
Ligature2: "si_abvs_3 subtable" si_BRa si_MatraI
EndChar

StartChar: si_BRIi
Encoding: 313 -1 14
GlifName: si_B_R_I_i
Width: 586
VWidth: 0
GlyphClass: 3
Flags: W
LayerCount: 2
Back
Fore
SplineSet
315 -225 m 257
 315 -185 l 257
 440.492 -185 509.786 -120.229 509.786 -47.0527 c 256
 509.786 -14.9844 498.611 11.9023 475.704 32.124 c 257
 506.454 60.8232 l 257
 536.936 33.0381 551.003 -4.1416 551.003 -47.0527 c 256
 551.003 -161.31 451 -225.053 315 -225 c 257
258.833 -225.091 m 257
 116.746 -225.148 26.833 -161.891 26.833 -48.1436 c 257
 66.833 -48.1436 l 257
 66.833 -160.449 187.833 -185.182 258.833 -185.091 c 257
 258.833 -225.091 l 257
EndSplineSet
Refer: 11 -1 N 1 0 0 1 0 0 2
Ligature2: "si_abvs_4 subtable" si_BRa si_MatraIi
EndChar

StartChar: si_BRa
Encoding: 311 -1 15
GlifName: si_B_R_a
Width: 586
VWidth: 0
GlyphClass: 2
Flags: W
LayerCount: 2
Back
Fore
SplineSet
320 -225 m 257
 320 -185 l 257
 445.493 -185 514.786 -120.23 514.786 -47.0527 c 256
 514.786 -14.9844 503.611 11.9023 480.704 32.124 c 257
 511.454 60.8232 l 257
 541.936 33.0381 556.003 -4.1416 556.003 -47.0527 c 256
 556.003 -161.31 456 -225.053 320 -225 c 257
263.833 -225.091 m 257
 121.746 -225.148 31.833 -161.891 31.833 -48.1436 c 257
 71.833 -48.1436 l 257
 71.833 -160.449 192.833 -185.182 263.833 -185.091 c 257
 263.833 -225.091 l 257
EndSplineSet
Refer: 18 3510 N 1 0 0 1 0 0 2
EndChar

StartChar: si_BU
Encoding: 307 -1 16
GlifName: si_B_U_
Width: 586
VWidth: 0
GlyphClass: 3
Flags: W
LayerCount: 2
Back
Fore
SplineSet
49 -165 m 257
 264 -165 l 257
 264 -205 l 257
 49 -205 l 257
 49 -165 l 257
320 -165 m 257
 498 -165 l 257
 498 -205 l 257
 320 -205 l 257
 320 -165 l 257
498 83 m 257
 538 83 l 257
 538 -205 l 257
 498 -205 l 257
 498 83 l 257
EndSplineSet
Refer: 18 3510 N 1 0 0 1 0 0 2
LCarets2: 1 0
Ligature2: "si_blws_1 subtable" si_Ba si_MatraU
EndChar

StartChar: si_BUu
Encoding: 308 -1 17
GlifName: si_B_U_u
Width: 586
VWidth: 0
GlyphClass: 3
Flags: W
LayerCount: 2
Back
Fore
SplineSet
51 -142 m 257
 77.1853 -155.703 98.3204 -160.636 117.163 -160.636 c 256
 165.629 -160.636 198.931 -128 264 -128 c 257
 264 -170 l 257
 198.504 -170 164.646 -200.902 115.873 -200.902 c 256
 97.2771 -200.902 76.5129 -196.41 51 -184 c 257
 51 -142 l 257
320 -128 m 257
 349.143 -128 418.825 -130.922 498 -161 c 257
 498 -205 l 257
 413.61 -171.253 348 -170 320 -170 c 257
 320 -128 l 257
498 83 m 257
 538 83 l 257
 538 -205 l 257
 498 -205 l 257
 498 83 l 257
EndSplineSet
Refer: 18 3510 N 1 0 0 1 0 0 2
Ligature2: "si_blws_3 subtable" si_Ba si_MatraUu
EndChar

StartChar: si_Ba
Encoding: 48 3510 18
GlifName: si_B_a
Width: 586
VWidth: 0
GlyphClass: 2
Flags: W
LayerCount: 2
Back
Fore
SplineSet
30 177 m 258
 30 284 l 258
 30 389.836 100.241 443.319 170.235 443.319 c 256
 239.739 443.319 309 390.582 309 284 c 258
 309 141 l 258
 309 74.4023 360.817 40.5402 412.348 40.5402 c 256
 463.314 40.5402 514 73.6635 514 141 c 257
 514 264 l 257
 556 264 l 257
 556 144 l 257
 556 45.5028 483.061 -3.95137 410.596 -3.95137 c 256
 339.067 -3.95137 268 44.234 268 141 c 258
 268 284 l 258
 268 359.832 218.751 397.785 169.502 397.785 c 256
 120.284 397.785 71.0656 359.881 71 284 c 258
 70.917 177 l 258
 71 65 123.457 40 211 40 c 257
 211 0 l 257
 91.1055 0 30 45 30 177 c 258
514 264 m 256
 514 514 l 258
 514 661.713 444.056 715 331 715 c 257
 320 715 l 257
 320 755 l 257
 331 755 l 257
 490.37 755 556 671.035 556 514 c 258
 556 264 l 256
 514 264 l 256
41.375 563 m 257
 41.375 680.776 158.933 755 263 755 c 257
 263 715 l 257
 170.405 715 80.375 651.181 80.375 553 c 257
 41.375 563 l 257
EndSplineSet
EndChar

StartChar: si_BhRI
Encoding: 322 -1 24
GlifName: si_B_hR_I_
Width: 743
VWidth: 0
GlyphClass: 3
Flags: HW
LayerCount: 2
Back
Fore
SplineSet
429.115 -193.947 m 257
 440.115 -193.947 l 258
 588.115 -193.947 713 -60 652 66 c 257
 686 89 l 257
 757.992 -37.9238 651 -234 441 -234 c 258
 429.115 -233.947 l 257
 429.115 -193.947 l 257
374.115 -233.947 m 257
 356 -234 l 258
 231 -234 86.833 -165.25 86.833 -37.0908 c 257
 126.833 -37.0908 l 257
 126.833 -155.59 291 -194 355 -194 c 258
 374 -194 l 257
 374.115 -233.947 l 257
EndSplineSet
Refer: 22 -1 N 1 0 0 1 0 0 2
Ligature2: "si_abvs_3 subtable" si_BhRa si_MatraI
EndChar

StartChar: si_BhRIi
Encoding: 323 -1 25
GlifName: si_B_hR_I_i
Width: 743
VWidth: 0
GlyphClass: 3
Flags: HW
LayerCount: 2
Back
Fore
SplineSet
429.115 -193.947 m 257
 440.115 -193.947 l 258
 588.115 -193.947 713 -60 652 66 c 257
 686 89 l 257
 757.992 -37.9238 651 -234 441 -234 c 258
 429.115 -233.947 l 257
 429.115 -193.947 l 257
374.115 -233.947 m 257
 356 -234 l 258
 231 -234 86.833 -165.25 86.833 -37.0908 c 257
 126.833 -37.0908 l 257
 126.833 -155.59 291 -194 355 -194 c 258
 374 -194 l 257
 374.115 -233.947 l 257
EndSplineSet
Refer: 23 -1 N 1 0 0 1 0 0 2
Ligature2: "si_abvs_4 subtable" si_BhRa si_MatraIi
EndChar

StartChar: si_BhRa
Encoding: 321 -1 26
GlifName: si_B_hR_a
Width: 743
VWidth: 0
GlyphClass: 3
Flags: W
LayerCount: 2
Back
Fore
SplineSet
429.115 -193.947 m 257
 440.115 -193.947 l 258
 588.115 -193.947 713 -60 652 66 c 257
 686 89 l 257
 757.992 -37.9238 651 -234 441 -234 c 258
 429.115 -233.947 l 257
 429.115 -193.947 l 257
374.115 -233.947 m 257
 356 -234 l 258
 231 -234 86.833 -165.25 86.833 -37.0908 c 257
 126.833 -37.0908 l 257
 126.833 -155.59 291 -194 355 -194 c 258
 374 -194 l 257
 374.115 -233.947 l 257
EndSplineSet
Refer: 30 3511 N 1 0 0 1 0 0 2
Ligature2: "si_rakaar subtable" si_Bha si_Halant si_Ra
EndChar

StartChar: si_BhRa.halant
Encoding: 320 -1 27
GlifName: si_B_hR_a.halant
Width: 743
VWidth: 0
GlyphClass: 2
Flags: W
LayerCount: 2
Back
Fore
SplineSet
429.115 -193.947 m 257
 440.115 -193.947 l 258
 588.115 -193.947 713 -60 652 66 c 257
 686 89 l 257
 757.992 -37.9238 651 -234 441 -234 c 258
 429.115 -233.947 l 257
 429.115 -193.947 l 257
374.115 -233.947 m 257
 356 -234 l 258
 231 -234 86.833 -165.25 86.833 -37.0908 c 257
 126.833 -37.0908 l 257
 126.833 -155.59 291 -194 355 -194 c 258
 374 -194 l 257
 374.115 -233.947 l 257
EndSplineSet
Refer: 21 -1 N 1 0 0 1 0 0 2
EndChar

StartChar: si_BhU
Encoding: 317 -1 28
GlifName: si_B_hU_
Width: 743
VWidth: 0
GlyphClass: 3
Flags: W
LayerCount: 2
Back
Fore
SplineSet
651.19 -205.003 m 258
 593.365 -205.003 536 -166 536 -57 c 258
 536 -32 l 258
 536 77 593.365 116.003 651.19 116.003 c 258
 713 116 l 257
 713 76 l 257
 651 76 l 258
 587.141 76 576 16 576.018 -30.9844 c 258
 576.018 -58.0156 l 258
 576 -105 587.141 -165 651 -165 c 258
 713 -165 l 257
 713 -205 l 257
 651.19 -205.003 l 258
673 106 m 256
 673 340 l 258
 673 457.857 622.112 524 527 524 c 257
 527 564 l 257
 646.296 564 712.58 476.263 712.921 340 c 258
 712.921 106 l 256
 673 106 l 256
333 311 m 257
 448.232 311 479 233 479 164 c 258
 479 145 l 258
 479 42.873 411.866 -8 312 -8 c 257
 312 32 l 257
 391.817 32 439.126 66.249 439.126 152.124 c 256
 439.126 199.586 431.498 271 346 271 c 258
 292 271 l 257
 292 360 l 258
 292 478.007 349.062 564 471 564 c 257
 471 524 l 257
 364.192 524 333 443 333 361 c 258
 333 311 l 257
256 -8 m 257
 136.704 -8 70.4199 79.7373 70.0791 196 c 258
 70.0791 250 l 258
 70.2588 316.462 88.709 363.938 123.545 394 c 257
 30.0254 394 l 257
 30 434 l 257
 295 434 l 257
 294.714 492.658 245.87 523.116 198.351 523.116 c 256
 163.821 523.116 129.99 507.033 116 474 c 257
 77 484 l 257
 90.7598 536.927 144.095 563.996 198.724 563.996 c 256
 265.887 563.996 335.004 523.08 334.932 439 c 256
 325 394 l 257
 256 394 l 258
 160.888 394 110 357.857 110 250 c 258
 110 196 l 258
 110 98.1426 163.888 32 256 32 c 257
 256 -8 l 257
EndSplineSet
Ligature2: "si_blws_1 subtable" si_Bha si_MatraU
EndChar

StartChar: si_BhUu
Encoding: 318 -1 29
GlifName: si_B_hU_u
Width: 743
VWidth: 0
GlyphClass: 3
Flags: W
LayerCount: 2
Back
Fore
SplineSet
685 -205.003 m 258
 628.875 -205.003 587 -162.81 587 -105 c 258
 586.945 -64 l 258
 586.945 -28.1055 607.889 -5.99219 620 0 c 257
 569 0 l 257
 569 35 l 257
 698 115 l 257
 569 115 l 257
 569 150 l 257
 766 150 l 257
 766 115 l 257
 637 35 l 257
 766 35 l 257
 766 0 l 257
 712 0 l 258
 655.47 0 627 -28.6729 627 -64 c 258
 627 -105 l 258
 627.12 -134.833 642.775 -165 685 -165 c 258
 766 -165 l 257
 766 -205 l 257
 685 -205.003 l 258
614 150 m 257
 654.584 150 672.883 165.196 673 197 c 258
 673 340 l 258
 673 458 622.112 524 527 524 c 257
 527 564 l 257
 646.296 564 713 476 712.921 340 c 258
 712.921 198 l 258
 713.021 185.393 709.555 162 700 150 c 257
 614 150 l 257
333 311 m 257
 448.232 311 479 233 479 164 c 258
 479 145 l 258
 479 42.873 411.866 -8 312 -8 c 257
 312 32 l 257
 391.817 32 439.126 66.249 439.126 152.124 c 256
 439.126 199.586 431.498 271 346 271 c 258
 292 271 l 257
 292 360 l 258
 292 478.007 349.062 564 471 564 c 257
 471 524 l 257
 364.192 524 333 443 333 361 c 258
 333 311 l 257
256 -8 m 257
 136.704 -8 70.4199 79.7373 70.0791 196 c 258
 70.0791 250 l 258
 70.2588 316.462 88.709 363.938 123.545 394 c 257
 30.0254 394 l 257
 30 434 l 257
 295 434 l 257
 294.714 492.658 245.87 523.116 198.351 523.116 c 256
 163.821 523.116 129.99 507.033 116 474 c 257
 77 484 l 257
 90.7598 536.927 144.095 563.996 198.724 563.996 c 256
 265.887 563.996 335.004 523.08 334.932 439 c 256
 325 394 l 257
 256 394 l 258
 160.888 394 110 357.857 110 250 c 258
 110 196 l 258
 110 98.1426 163.888 32 256 32 c 257
 256 -8 l 257
EndSplineSet
Ligature2: "si_blws_3 subtable" si_Bha si_MatraUu
EndChar

StartChar: si_Bha
Encoding: 49 3511 30
GlifName: si_B_ha
Width: 743
VWidth: 0
GlyphClass: 2
Flags: W
HStem: -8 40<209.944 256 209.944 256 312 351.909 527 573.056> 271 40<333 346> 524 40<417.596 471 527 574.556>
VStem: 70 40 292 41<311 311 311 360 360 361> 439 40 673 40
LayerCount: 2
Back
Fore
SplineSet
333 311 m 257
 448.232 311 479 233 479 164 c 258
 479 145 l 258
 479 42.873 411.866 -8 312 -8 c 257
 312 32 l 257
 391.817 32 439.126 66.249 439.126 152.124 c 256
 439.126 199.586 431.498 271 346 271 c 258
 292 271 l 257
 292 360 l 258
 292 478.007 349.062 564 471 564 c 257
 471 524 l 257
 364.192 524 333 443 333 361 c 258
 333 311 l 257
527 -8 m 257
 527 32 l 257
 619.112 32 673 98.1426 673 216 c 258
 673 340 l 258
 673 457.857 622.112 524 527 524 c 257
 527 564 l 257
 646.296 564 712.58 476.263 712.921 340 c 258
 712.921 216 l 258
 712.58 79.7373 646.296 -8 527 -8 c 257
256 -8 m 257
 136.704 -8 70.4199 79.7373 70.0791 196 c 258
 70.0791 250 l 258
 70.2585 316.462 88.7093 363.938 123.545 394 c 257
 30.0254 394 l 257
 30 434 l 257
 295 434 l 257
 294.714 492.658 245.87 523.116 198.351 523.116 c 256
 163.821 523.116 129.99 507.033 116 474 c 257
 77 484 l 257
 90.7598 536.927 144.095 563.996 198.724 563.996 c 256
 265.887 563.996 335.004 523.08 334.932 439 c 256
 325 394 l 257
 256 394 l 258
 160.888 394 110 357.857 110 250 c 258
 110 196 l 258
 110 98.1426 163.888 32 256 32 c 257
 256 -8 l 257
EndSplineSet
PickledDataWithLists: "(dp1
S'com.fontlab.hintData'
p2
(dp3
S'vhints'
p4
(lp5
(dp6
S'position'
p7
I70
sS'width'
p8
I40
sa(dp9
g7
I292
sg8
I41
sa(dp10
g7
I439
sg8
I40
sa(dp11
g7
I673
sg8
I40
sasS'hhints'
p12
(lp13
(dp14
g7
I-8
sg8
I40
sa(dp15
g7
I271
sg8
I40
sa(dp16
g7
I524
sg8
I40
sass."
EndChar

StartChar: si_C.halant
Encoding: 135 -1 33
GlifName: si_C_.halant
Width: 590
VWidth: 0
GlyphClass: 3
Flags: W
LayerCount: 2
Back
Fore
SplineSet
30.0254 309 m 257
 30 349 l 257
 209 349 l 257
 295 349 l 257
 294.714 407.658 245.87 438.116 198.351 438.116 c 256
 163.821 438.116 129.99 422.033 116 389 c 257
 77 399 l 257
 90.7598 451.927 144.095 478.996 198.724 478.996 c 256
 232.305 478.996 266.375 468.767 292.041 448.028 c 256
 317.707 427.289 334.968 396.04 334.932 354 c 258
 335 309 l 257
 209 309 l 258
 149.782 309 114.737 252.398 114.737 191.123 c 256
 114.737 118.816 163.536 40 279 40 c 257
 279 0 l 257
 136.137 0 72.8038 98.7086 72.8038 191.135 c 256
 72.8038 235.86 87.6331 279.113 115.457 309 c 257
 30.0254 309 l 257
85.333 612 m 257
 85.333 652 l 257
 115.822 652 l 257
 101.899 670.11 94.9775 692.449 94.9775 714.83 c 256
 94.9775 766.802 132.309 819 206 819 c 258
 279 819 l 257
 279 779 l 257
 196 779 l 258
 154.071 779 132.881 747.025 132.881 715.163 c 256
 132.881 683.526 153.774 652 196 652 c 258
 335 652 l 257
 335 612 l 257
 85.333 612 l 257
335 0 m 257
 335 40 l 257
 448.056 40 519 95.2852 519 241 c 258
 519 411 l 258
 519 558.715 448.056 612 335 612 c 257
 335 652 l 257
 494.37 652 560 568.037 560 411 c 258
 560 241 l 258
 560 83.9629 494.37 0 335 0 c 257
334.5 779 m 257
 334.5 819 l 257
 410 819 l 258
 488.359 819 543.333 776 543.333 673 c 257
 503.333 673 l 257
 503.333 770 455.333 779 410 779 c 258
 334.5 779 l 257
EndSplineSet
Ligature2: "si_halant_1 subtable" si_Ca si_Halant
EndChar

StartChar: si_CI
Encoding: 136 -1 34
GlifName: si_C_I_
Width: 590
VWidth: 0
GlyphClass: 3
Flags: W
LayerCount: 2
Back
Fore
SplineSet
30.0254 309 m 257
 30 349 l 257
 209 349 l 257
 295 349 l 257
 294.714 407.658 245.87 438.116 198.351 438.116 c 256
 163.821 438.116 129.99 422.033 116 389 c 257
 77 399 l 257
 90.7598 451.927 144.095 478.996 198.724 478.996 c 256
 232.305 478.996 266.375 468.767 292.041 448.028 c 256
 317.707 427.289 334.968 396.04 334.932 354 c 258
 335 309 l 257
 209 309 l 258
 149.782 309 114.737 252.398 114.737 191.123 c 256
 114.737 118.816 163.536 40 279 40 c 257
 279 0 l 257
 136.137 0 72.8038 98.7086 72.8038 191.135 c 256
 72.8038 235.86 87.6331 279.113 115.457 309 c 257
 30.0254 309 l 257
186 612 m 258
 111.669 612 74.9774 663.304 74.9774 714.83 c 256
 74.9774 766.802 112.309 819 186 819 c 258
 279 819 l 257
 279 779 l 257
 176 779 l 258
 134.071 779 112.881 747.025 112.881 715.163 c 256
 112.881 683.526 133.774 652 176 652 c 258
 335 652 l 257
 335 612 l 257
 186 612 l 258
335 0 m 257
 335 40 l 257
 448.056 40 519 95.2852 519 241 c 258
 519 411 l 258
 519 558.715 448.056 612 335 612 c 257
 335 652 l 257
 494.37 652 560 568.037 560 411 c 258
 560 241 l 258
 560 83.9629 494.37 0 335 0 c 257
334.5 779 m 257
 334.5 819 l 257
 410 819 l 258
 488.359 819 543.333 776 543.333 673 c 257
 503.333 673 l 257
 503.333 770 455.333 779 410 779 c 258
 334.5 779 l 257
EndSplineSet
Ligature2: "si_abvs_1 subtable" si_Ca si_MatraI
EndChar

StartChar: si_CIi
Encoding: 137 -1 35
GlifName: si_C_I_i
Width: 590
VWidth: 0
GlyphClass: 3
Flags: W
LayerCount: 2
Back
Fore
SplineSet
279 0 m 257
 136.137 0 72.8038 98.7086 72.8038 191.135 c 256
 72.8038 235.86 87.6331 279.113 115.457 309 c 257
 30.0254 309 l 257
 30 349 l 257
 295 349 l 257
 294.714 407.658 245.87 438.116 198.351 438.116 c 256
 163.821 438.116 129.99 422.033 116 389 c 257
 77 399 l 257
 90.7598 451.927 144.095 478.996 198.724 478.996 c 256
 232.305 478.996 266.375 468.767 292.041 448.028 c 256
 317.707 427.289 334.968 396.04 334.932 354 c 258
 335 309 l 257
 209 309 l 258
 149.782 309 114.737 252.398 114.737 191.123 c 256
 114.737 118.816 163.536 40 279 40 c 257
 279 0 l 257
186.5 612 m 258
 112.169 612 75.4774 663.304 75.4774 714.83 c 256
 75.4774 766.802 112.809 819 186.5 819 c 258
 279.5 819 l 257
 279.5 779 l 257
 176.5 779 l 258
 134.571 779 113.381 747.025 113.381 715.163 c 256
 113.381 683.526 134.274 652 176.5 652 c 258
 335 652 l 257
 335 612 l 257
 186.5 612 l 258
335 0 m 257
 335 40 l 257
 448.056 40 519 95.2852 519 241 c 258
 519 411 l 258
 519 558.715 448.056 612 335 612 c 257
 335 652 l 257
 342.416 652 349.63 651.818 356.643 651.456 c 256
 500.336 644.027 560 560.729 560 411 c 258
 560 241 l 258
 560 83.9629 494.37 0 335 0 c 257
480.96 603.56 m 256
 431.04 603.56 390.72 643.88 390.72 693.8 c 256
 390.72 729.745 411.625 760.713 441.967 775.235 c 257
 424.36 780.291 406.931 779 393 779 c 258
 334.5 779 l 257
 334.5 819 l 257
 409 819 l 258
 494.222 819 571.174 789.785 571.2 693.8 c 256
 571.2 643.88 530.88 603.56 480.96 603.56 c 256
EndSplineSet
Ligature2: "si_abvs_2 subtable" si_Ca si_MatraIi
EndChar

StartChar: si_Ca
Encoding: 27 3488 42
GlifName: si_C_a
Width: 590
VWidth: 0
GlyphClass: 2
Flags: W
HStem: 0 40<221.268 279 221.268 279 335 391.528> 309 40<30.0254 115.457 30.0254 30.0254 179.391 209 209 295> 715 40<236.753 279 335 391.528>
VStem: 69 39 295 40 519 41<241 514>
LayerCount: 2
Back
Fore
SplineSet
279 0 m 257
 136.137 0 72.8038 98.7086 72.8038 191.135 c 256
 72.8038 235.86 87.6331 279.113 115.457 309 c 257
 30.0254 309 l 257
 30 349 l 257
 209 349 l 257
 295 349 l 257
 294.714 407.658 245.87 438.116 198.351 438.116 c 256
 163.821 438.116 129.99 422.033 116 389 c 257
 77 399 l 257
 90.7598 451.927 144.095 478.996 198.724 478.996 c 256
 232.305 478.996 266.375 468.767 292.041 448.028 c 256
 317.707 427.289 334.968 396.04 334.932 354 c 258
 335 309 l 257
 209 309 l 258
 149.782 309 114.737 252.398 114.737 191.123 c 256
 114.737 118.816 163.536 40 279 40 c 257
 279 0 l 257
335 0 m 257
 335 40 l 257
 448.056 40 519 95.2852 519 241 c 258
 519 514 l 258
 519 661.715 448.056 715 335 715 c 257
 335 755 l 257
 494.37 755 560 671.037 560 514 c 258
 560 241 l 258
 560 83.9629 494.37 0 335 0 c 257
108.375 553 m 257
 69.375 563 l 257
 69.375 673.921 182.923 755 279 755 c 257
 279 715 l 257
 194.506 715 108.375 644.132 108.375 553 c 257
EndSplineSet
PickledDataWithLists: "(dp1
S'com.fontlab.hintData'
p2
(dp3
S'vhints'
p4
(lp5
(dp6
S'position'
p7
I69
sS'width'
p8
I39
sa(dp9
g7
I295
sg8
I40
sa(dp10
g7
I519
sg8
I41
sasS'hhints'
p11
(lp12
(dp13
g7
I0
sg8
I40
sa(dp14
g7
I309
sg8
I40
sa(dp15
g7
I715
sg8
I40
sass."
EndChar

StartChar: si_Ch.halant
Encoding: 145 -1 45
GlifName: si_C_h.halant
Width: 622
VWidth: 0
GlyphClass: 3
Flags: W
LayerCount: 2
Back
Fore
SplineSet
312.001 489 m 257
 312.001 819 l 257
 352.001 819 l 257
 352.001 526 l 257
 319.685 489 l 257
 312.001 489 l 257
EndSplineSet
Refer: 50 3489 N 1 0 0 1 0 0 2
Ligature2: "si_halant_1 subtable" si_Cha si_Halant
EndChar

StartChar: si_ChI
Encoding: 146 -1 46
GlifName: si_C_hI_
Width: 620
VWidth: 0
GlyphClass: 3
Flags: W
LayerCount: 2
Back
Fore
SplineSet
293 579 m 257
 276.26 591.679 l 257
 219.657 634.538 220.394 686.266 265.066 745.26 c 257
 305 798 l 257
 349.671 856.994 400.997 874.021 457.6 831.159 c 257
 474.341 818.482 l 257
 449.935 786.209 l 257
 419.638 809.149 382.988 835.355 343.747 783.535 c 257
 291.229 714.178 l 257
 251.988 662.355 287.153 634.184 317.446 611.244 c 257
 293 579 l 257
EndSplineSet
Refer: 50 3489 N 1 0 0 1 0 0 2
Ligature2: "si_abvs_1 subtable" si_Cha si_MatraI
EndChar

StartChar: si_ChIi
Encoding: 147 -1 47
GlifName: si_C_hI_i
Width: 622
VWidth: 0
GlyphClass: 3
Flags: W
LayerCount: 2
Back
Fore
SplineSet
298 579 m 257
 281.26 591.679 l 258
 224.657 634.538 225.394 686.266 270.066 745.26 c 258
 310 798 l 258
 353 856 417 918 489.452 858.739 c 256
 525.408 831.801 532.692 781.001 505.754 745.045 c 256
 478.815 709.089 428.016 701.806 392.06 728.744 c 256
 369.288 745.805 358.017 771.437 359.655 797.807 c 257
 296.229 714.178 l 258
 256.988 662.355 292.153 634.184 322.446 611.244 c 257
 298 579 l 257
EndSplineSet
Refer: 50 3489 N 1 0 0 1 0 0 2
Ligature2: "si_abvs_2 subtable" si_Cha si_MatraIi
EndChar

StartChar: si_ChU
Encoding: 148 -1 48
GlifName: si_C_hU_
Width: 622
VWidth: 0
GlyphClass: 3
Flags: W
LayerCount: 2
Back
Fore
SplineSet
45 -165 m 257
 282 -165 l 257
 282 -205 l 257
 45 -205 l 257
 45 -165 l 257
338 -165 m 257
 543 -165 l 257
 543 -205 l 257
 338 -205 l 257
 338 -165 l 257
529 51 m 257
 569 111 l 257
 569 -205 l 257
 529 -205 l 257
 529 51 l 257
EndSplineSet
Refer: 50 3489 N 1 0 0 1 0 0 2
Ligature2: "si_blws_1 subtable" si_Cha si_MatraU
EndChar

StartChar: si_ChUu
Encoding: 149 -1 49
GlifName: si_C_hU_u
Width: 622
VWidth: 0
GlyphClass: 3
Flags: W
LayerCount: 2
Back
Fore
SplineSet
40 -122 m 257
 76.5117 -153.982 106.641 -164.643 133.563 -164.643 c 256
 187.408 -164.643 228.421 -122 282 -122 c 257
 282 -164 l 257
 228.355 -164 186.871 -204.871 133.049 -204.871 c 256
 106.138 -204.871 76.1426 -194.653 40 -164 c 257
 40 -122 l 257
338 -122 m 257
 367.143 -122 403.825 -121.922 533 -161 c 257
 533 -205 l 257
 386.841 -158.509 346.06 -164 338 -164 c 257
 338 -122 l 257
533 51 m 257
 573 111 l 257
 573 -205 l 257
 533 -205 l 257
 533 51 l 257
EndSplineSet
Refer: 50 3489 N 1 0 0 1 0 0 2
Ligature2: "si_blws_3 subtable" si_Cha si_MatraUu
EndChar

StartChar: si_Cha
Encoding: 28 3489 50
GlifName: si_C_ha
Width: 620
VWidth: 0
GlyphClass: 2
Flags: W
HStem: -12 135 236 124 251 84 283 119 283 52 451 124
VStem: 34 140 250 89 454 140
LayerCount: 2
Back
Fore
SplineSet
281 -6 m 258
 104 -6 32 49.7461 32 192.5 c 257
 72 192.5 l 257
 72 61.3008 148 34 281 34 c 258
 343 34 l 258
 476 34 552 62.3008 552 193 c 257
 552 264 l 257
 443 264 l 258
 360 264 289 332 289 415 c 256
 289 498 360 566 443 566 c 256
 505.085 566 558.778 527.952 581.895 474.038 c 257
 546.079 461.744 l 257
 528.184 500.869 488.612 528.25 443 528.25 c 256
 380.75 528.25 329.75 477.25 329.75 415 c 256
 329.75 352.75 380.75 302 443 302 c 258
 551 302 l 257
 583 302 592 288 592 265 c 257
 592 193 l 257
 592 49.7461 520 -6 343 -6 c 258
 281 -6 l 258
32 242 m 257
 32 364 99 402 196 402 c 258
 289 402 l 257
 289 469 258.207 524 180 524 c 256
 117.421 524 82.4727 500.315 69 464 c 257
 30 477 l 257
 55.707 541.871 116.119 564 180 564 c 256
 230.978 564 328.999 539.449 328.951 415 c 257
 329 362 l 257
 197 362 l 258
 88 362 72.001 308.104 72 242 c 257
 32 242 l 257
362 498 m 257
 312 494 l 257
 532.721 785 l 257
 572 774 l 257
 362 498 l 257
EndSplineSet
PickledDataWithLists: "(dp1
S'com.fontlab.hintData'
p2
(dp3
S'vhints'
p4
(lp5
(dp6
S'position'
p7
I34
sS'width'
p8
I140
sa(dp9
g7
I250
sg8
I89
sa(dp10
g7
I454
sg8
I140
sasS'hhints'
p11
(lp12
(dp13
g7
I-12
sg8
I135
sa(dp14
g7
I236
sg8
I124
sa(dp15
g7
I251
sg8
I84
sa(dp16
g7
I283
sg8
I119
sa(dp17
g7
I283
sg8
I52
sa(dp18
g7
I451
sg8
I124
sass."
EndChar

StartChar: si_DDdh.halant
Encoding: 484 -1 53
GlifName: si_D_D_dh.halant
Width: 721
VWidth: 0
GlyphClass: 2
Flags: W
LayerCount: 2
Back
Fore
SplineSet
30 209 m 258
 30 297 l 258
 30 472 152.993 480.245 237.051 480.245 c 256
 288.372 480.245 339.684 480.082 391 480 c 257
 391 440 l 257
 238 440 l 258
 118.46 440 70 396 70 297 c 258
 70 209 l 258
 70 128.436 70.5576 84.5967 126 8 c 257
 84 -8 l 257
 33.3584 69.1836 30 118.444 30 209 c 258
EndSplineSet
Refer: 95 -1 N 1 0 0 1 141 0 2
EndChar

StartChar: si_DDhI
Encoding: 485 -1 54
GlifName: si_D_D_hI_
Width: 721
VWidth: 0
GlyphClass: 3
Flags: W
LayerCount: 2
Back
Fore
SplineSet
30 209 m 258
 30 297 l 258
 30 472 152.993 480.245 237.051 480.245 c 256
 288.372 480.245 339.684 480.082 391 480 c 257
 391 440 l 257
 238 440 l 258
 118.46 440 70 396 70 297 c 258
 70 209 l 258
 70 128.436 70.5576 84.5967 126 8 c 257
 84 -8 l 257
 33.3584 69.1836 30 118.444 30 209 c 258
EndSplineSet
Refer: 96 -1 N 1 0 0 1 141 0 2
Ligature2: "si_abvs_5 subtable" si_DDha si_MatraI
EndChar

StartChar: si_DDhIi
Encoding: 486 -1 55
GlifName: si_D_D_hI_i
Width: 727
VWidth: 0
GlyphClass: 3
Flags: W
LayerCount: 2
Back
Fore
SplineSet
30 208 m 258
 30 296 l 258
 30 471 152.993 479.245 237.051 479.245 c 256
 288.372 479.245 339.684 479.082 391 479 c 257
 391 439 l 257
 238 439 l 258
 118.46 439 70 395 70 296 c 258
 70 208 l 258
 70 127.436 70.5576 83.5967 126 7 c 257
 84 -9 l 257
 33.3584 68.1836 30 117.444 30 208 c 258
EndSplineSet
Refer: 97 -1 N 1 0 0 1 141 0 2
Ligature2: "si_abvs_6 subtable" si_DDha si_MatraIi
EndChar

StartChar: si_DDhU
Encoding: 487 -1 56
GlifName: si_D_D_hU_
Width: 721
VWidth: 0
GlyphClass: 3
Flags: W
LayerCount: 2
Back
Fore
SplineSet
30 209 m 258
 30 297 l 258
 30 472 152.993 480.245 237.051 480.245 c 256
 288.372 480.245 339.684 480.082 391 480 c 257
 391 440 l 257
 238 440 l 258
 118.46 440 70 396 70 297 c 258
 70 209 l 258
 70 128.436 70.5576 84.5967 126 8 c 257
 84 -8 l 257
 33.3584 69.1836 30 118.444 30 209 c 258
EndSplineSet
Refer: 102 -1 N 1 0 0 1 141 0 2
Ligature2: "si_blws_2 subtable" si_DDha si_MatraU
EndChar

StartChar: si_DDhUu
Encoding: 488 -1 57
GlifName: si_D_D_hU_u
Width: 721
VWidth: 0
GlyphClass: 3
Flags: W
LayerCount: 2
Back
Fore
SplineSet
30 209 m 258
 30 297 l 258
 30 472 152.993 480.245 237.051 480.245 c 256
 288.372 480.245 339.684 480.082 391 480 c 257
 391 440 l 257
 238 440 l 258
 118.46 440 70 396 70 297 c 258
 70 209 l 258
 70 128.436 70.5576 84.5967 126 8 c 257
 84 -8 l 257
 33.3584 69.1836 30 118.444 30 209 c 258
EndSplineSet
Refer: 103 -1 N 1 0 0 1 141 0 2
Ligature2: "si_blws_4 subtable" si_DDha si_MatraUu
EndChar

StartChar: si_DDha
Encoding: 438 -1 58
GlifName: si_D_D_ha
Width: 721
VWidth: 0
GlyphClass: 3
Flags: W
LayerCount: 2
Back
Fore
SplineSet
30 209 m 258
 30 297 l 258
 30 472 152.993 480.245 237.051 480.245 c 256
 288.372 480.245 339.684 480.082 391 480 c 257
 391 440 l 257
 238 440 l 258
 118.46 440 70 396 70 297 c 258
 70 209 l 258
 70 128.436 70.5576 84.5967 126 8 c 257
 84 -8 l 257
 33.3584 69.1836 30 118.444 30 209 c 258
EndSplineSet
Refer: 104 3504 N 1 0 0 1 141 0 2
Ligature2: "si_akhands subtable" si_Da si_Halant si_Dha
EndChar

StartChar: si_DI
Encoding: 255 -1 59
GlifName: si_D_I_
Width: 537
VWidth: 0
GlyphClass: 3
Flags: W
LayerCount: 2
Back
Fore
SplineSet
30 602 m 257
 30 630 l 257
 30 723 105.741 789 206 789 c 257
 292 789 l 257
 392.259 789 468 723 468 630 c 257
 468 602 l 257
 428 602 l 257
 428 654.112 418.857 749 276 749 c 257
 222 749 l 257
 79.1426 749 70 654.112 70 602 c 257
 30 602 l 257
EndSplineSet
Refer: 73 3503 N 1 0 0 1 5 0 2
Ligature2: "si_abvs_1 subtable" si_Da si_MatraI
EndChar

StartChar: si_DIi
Encoding: 256 -1 60
GlifName: si_D_I_i
Width: 542
VWidth: 0
GlyphClass: 3
Flags: W
LayerCount: 2
Back
Fore
SplineSet
408.96 573.56 m 256
 359.04 573.56 318.72 613.88 318.72 663.8 c 256
 318.72 713.72 359.04 754.04 408.96 754.04 c 256
 458.88 754.04 499.2 713.72 499.2 663.8 c 256
 499.2 613.88 458.88 573.56 408.96 573.56 c 256
30 602 m 257
 30 630 l 257
 30 723 105.741 789 206 789 c 257
 337 789 l 257
 422.222 789 499.174 759.785 499.2 663.8 c 257
 454 663 l 257
 454 741 367.783 749 321 749 c 257
 222 749 l 257
 79.1426 749 70 654.112 70 602 c 257
 30 602 l 257
EndSplineSet
Refer: 73 3503 N 1 0 0 1 10 0 2
PickledDataWithLists: "(dp1
."
Ligature2: "si_abvs_2 subtable" si_Da si_MatraIi
EndChar

StartChar: si_DRI
Encoding: 264 -1 62
GlifName: si_D_R_I_
Width: 532
VWidth: 0
GlyphClass: 3
Flags: W
LayerCount: 2
Back
Fore
SplineSet
30 602 m 257
 30 630 l 257
 30 723 105.741 789 206 789 c 257
 292 789 l 257
 392.259 789 468 723 468 630 c 257
 468 602 l 257
 428 602 l 257
 428 654.112 418.857 749 276 749 c 257
 222 749 l 257
 79.1426 749 70 654.112 70 602 c 257
 30 602 l 257
EndSplineSet
Refer: 64 -1 N 1 0 0 1 0 0 2
LCarets2: 1 0
Ligature2: "si_abvs_3 subtable" si_DRa si_MatraI
EndChar

StartChar: si_DRIi
Encoding: 265 -1 63
GlifName: si_D_R_I_i
Width: 532
VWidth: 0
GlyphClass: 3
Flags: W
LayerCount: 2
Back
Fore
SplineSet
408.96 573.56 m 256
 359.04 573.56 318.72 613.88 318.72 663.8 c 256
 318.72 713.72 359.04 754.04 408.96 754.04 c 256
 458.88 754.04 499.2 713.72 499.2 663.8 c 256
 499.2 613.88 458.88 573.56 408.96 573.56 c 256
30 602 m 257
 30 630 l 257
 30 723 105.741 789 206 789 c 257
 337 789 l 257
 422.222 789 499.174 759.785 499.2 663.8 c 257
 454 663 l 257
 454 741 367.783 749 321 749 c 257
 222 749 l 257
 79.1426 749 70 654.112 70 602 c 257
 30 602 l 257
EndSplineSet
Refer: 64 -1 N 1 0 0 1 0 0 2
Ligature2: "si_abvs_4 subtable" si_DRa si_MatraIi
EndChar

StartChar: si_DRa
Encoding: 263 -1 64
GlifName: si_D_R_a
Width: 532
VWidth: 0
GlyphClass: 3
Flags: W
LayerCount: 2
Back
Fore
SplineSet
30 199 m 256
 30 335.29 125.045 402 256 402 c 258
 392 402 l 257
 392 493.372 320.287 537.564 242.646 537.564 c 256
 181.683 537.564 123.614 504.852 107 443 c 257
 68 456 l 257
 89.4072 536.278 163.421 579.363 240.706 579.363 c 256
 339.016 579.363 432 518.503 432 389 c 258
 432 362 l 257
 246 362 l 258
 130.019 362 71.624 293.457 71.624 199 c 256
 71.624 108.484 133.124 40 257 40 c 257
 296 40 l 257
 367 40 424.998 71.5439 458 138 c 257
 498 138 l 257
 456.009 22.3047 353 0 296 0 c 257
 257 0 l 258
 137 0 30 60.3916 30 199 c 256
299 -194 m 257
 413.222 -194 458 -107.057 458 -19 c 258
 458 138 l 257
 498 138 l 257
 498 2 l 258
 498 -139.824 444.29 -234 299 -234 c 257
 299 -194 l 257
243.333 -234.038 m 257
 140.333 -234.091 33.333 -173.326 33.333 -57.0908 c 258
 33.333 -47.0908 l 257
 73.333 -47.0908 l 257
 73.333 -172.396 196.333 -194.091 243.333 -194 c 257
 243.333 -234.038 l 257
EndSplineSet
Ligature2: "si_rakaar subtable" si_Da si_Halant si_Ra
EndChar

StartChar: si_DU
Encoding: 257 -1 65
GlifName: si_D_U_
Width: 473
VWidth: 0
GlyphClass: 3
Flags: W
HStem: -197 140
VStem: 30 172
LayerCount: 2
Back
Fore
SplineSet
402 -205 m 257
 402 41 l 257
 443 41 l 257
 443 -205 l 257
 402 -205 l 257
35 -205 m 257
 35 -165 l 257
 347 -165 l 257
 347 -205 l 257
 35 -205 l 257
257 0 m 258
 137 0 30 60.3916 30 199 c 256
 30 335.29 125.045 402 256 402 c 258
 392 402 l 257
 392 493.372 320.287 537.564 242.646 537.564 c 256
 181.683 537.564 123.614 504.852 107 443 c 257
 68 456 l 257
 89.4072 536.278 163.421 579.363 240.706 579.363 c 256
 339.016 579.363 432 518.503 432 389 c 258
 432 362 l 257
 246 362 l 258
 130.019 362 71.624 293.457 71.624 199 c 256
 71.624 108.484 133.124 40 257 40 c 257
 347 40 l 257
 347 0 l 257
 257 0 l 258
EndSplineSet
PickledDataWithLists: "(dp1
S'com.fontlab.hintData'
p2
(dp3
S'vhints'
p4
(lp5
(dp6
S'position'
p7
I30
sS'width'
p8
I172
sasS'hhints'
p9
(lp10
(dp11
g7
I-197
sg8
I140
sass."
Ligature2: "si_blws_1 subtable" si_Da si_MatraU
EndChar

StartChar: si_DUu
Encoding: 258 -1 66
GlifName: si_D_U_u
Width: 473
VWidth: 0
GlyphClass: 3
Flags: W
HStem: -205 23 -65 23 0 136 263 139 457 121
VStem: 30 143 45 142 313 140
LayerCount: 2
Back
Fore
SplineSet
257 0 m 258
 137 0 30 60.3916 30 199 c 256
 30 335.29 125.045 402 256 402 c 258
 392 402 l 257
 392 493.372 320.287 537.564 242.646 537.564 c 256
 181.683 537.564 123.614 504.852 107 443 c 257
 68 456 l 257
 89.4072 536.278 163.421 579.363 240.706 579.363 c 256
 339.016 579.363 432 518.503 432 389 c 258
 432 362 l 257
 246 362 l 258
 130.019 362 71.624 293.457 71.624 199 c 256
 71.624 108.484 133.124 40 257 40 c 257
 347 40 l 257
 347 0 l 257
 257 0 l 258
402 -205 m 257
 402 41 l 257
 443 41 l 257
 443 -205 l 257
 402 -205 l 257
347 -205 m 257
 325.106 -194.639 293 -182 256 -182 c 256
 196.667 -182 164.334 -204.777 121.741 -204.777 c 256
 100.444 -204.777 59.334 -200.333 35 -179 c 257
 35 -143 l 257
 59.334 -164.333 100.444 -168.777 121.741 -168.777 c 256
 164.334 -168.777 196.667 -146 256 -146 c 256
 293 -146 328.148 -158.167 347 -165 c 257
 347 -205 l 257
EndSplineSet
PickledDataWithLists: "(dp1
S'com.fontlab.hintData'
p2
(dp3
S'vhints'
p4
(lp5
(dp6
S'position'
p7
I30
sS'width'
p8
I143
sa(dp9
g7
I45
sg8
I142
sa(dp10
g7
I313
sg8
I140
sasS'hhints'
p11
(lp12
(dp13
g7
I-205
sg8
I23
sa(dp14
g7
I-65
sg8
I23
sa(dp15
g7
I0
sg8
I136
sa(dp16
g7
I263
sg8
I139
sa(dp17
g7
I457
sg8
I121
sass."
Ligature2: "si_blws_3 subtable" si_Da si_MatraUu
EndChar

StartChar: si_DV.halant
Encoding: 489 -1 67
GlifName: si_D_V_.halant
Width: 684
VWidth: 0
GlyphClass: 2
Flags: W
LayerCount: 2
Back
Fore
SplineSet
94 -8 m 257
 34.3584 69.1836 30 118.444 30 209 c 258
 30 240 l 258
 30 383.545 95.2627 443.66 169.526 443.66 c 256
 185.8 443.66 202.505 440.773 219.051 435.245 c 256
 219 392 l 257
 200.468 398.285 184.04 401.168 169.518 401.168 c 256
 93.9248 401.168 70 323.047 70 240 c 258
 70 209 l 258
 70 128.436 71.5576 84.5967 136 8 c 257
 94 -8 l 257
EndSplineSet
Refer: 506 -1 N 1 0 0 1 136 0 2
EndChar

StartChar: si_DVI
Encoding: 490 -1 68
GlifName: si_D_V_I_
Width: 685
VWidth: 0
GlyphClass: 3
Flags: W
LayerCount: 2
Back
Fore
SplineSet
94 -8 m 257
 34.3584 69.1836 30 118.444 30 209 c 258
 30 240 l 258
 30 383.545 95.2627 443.66 169.526 443.66 c 256
 185.8 443.66 202.505 440.773 219.051 435.245 c 256
 219 392 l 257
 200.468 398.285 184.04 401.168 169.518 401.168 c 256
 93.9248 401.168 70 323.047 70 240 c 258
 70 209 l 258
 70 128.436 71.5576 84.5967 136 8 c 257
 94 -8 l 257
EndSplineSet
Refer: 507 -1 N 1 0 0 1 136 0 2
Ligature2: "si_abvs_5 subtable" si_DVa si_MatraI
EndChar

StartChar: si_DVIi
Encoding: 491 -1 69
GlifName: si_D_V_I_i
Width: 684
VWidth: 0
GlyphClass: 3
Flags: W
LayerCount: 2
Back
Fore
SplineSet
94 -8 m 257
 34.3584 69.1836 30 118.444 30 209 c 258
 30 240 l 258
 30 383.545 95.2627 443.66 169.526 443.66 c 256
 185.8 443.66 202.505 440.773 219.051 435.245 c 256
 219 392 l 257
 200.468 398.285 184.04 401.168 169.518 401.168 c 256
 93.9248 401.168 70 323.047 70 240 c 258
 70 209 l 258
 70 128.436 71.5576 84.5967 136 8 c 257
 94 -8 l 257
EndSplineSet
Refer: 508 -1 N 1 0 0 1 136 0 2
Ligature2: "si_abvs_6 subtable" si_DVa si_MatraIi
EndChar

StartChar: si_DVU
Encoding: 492 -1 70
GlifName: si_D_V_U_
Width: 687
VWidth: 0
GlyphClass: 3
Flags: HW
LayerCount: 2
Back
Fore
SplineSet
94 -8 m 257
 34.3584 69.1836 30 118.444 30 209 c 258
 30 240 l 258
 30 383.545 95.2627 443.66 169.526 443.66 c 256
 185.8 443.66 202.505 440.773 219.051 435.245 c 256
 219 392 l 257
 200.468 398.285 184.04 401.168 169.518 401.168 c 256
 93.9248 401.168 70 323.047 70 240 c 258
 70 209 l 258
 70 128.436 71.5576 84.5967 136 8 c 257
 94 -8 l 257
EndSplineSet
Refer: 513 -1 N 1 0 0 1 136 0 2
LCarets2: 1 0
Ligature2: "si_blws_2 subtable" si_DVa si_MatraU
EndChar

StartChar: si_DVUu
Encoding: 493 -1 71
GlifName: si_D_V_U_u
Width: 687
VWidth: 0
GlyphClass: 3
Flags: HW
LayerCount: 2
Back
Fore
SplineSet
94 -8 m 257
 34.3584 69.1836 30 118.444 30 209 c 258
 30 240 l 258
 30 383.545 95.2627 443.66 169.526 443.66 c 256
 185.8 443.66 202.505 440.773 219.051 435.245 c 256
 219 392 l 257
 200.468 398.285 184.04 401.168 169.518 401.168 c 256
 93.9248 401.168 70 323.047 70 240 c 258
 70 209 l 258
 70 128.436 71.5576 84.5967 136 8 c 257
 94 -8 l 257
EndSplineSet
Refer: 514 -1 N 1 0 0 1 136 0 2
Ligature2: "si_blws_4 subtable" si_DVa si_MatraUu
EndChar

StartChar: si_DVa
Encoding: 439 -1 72
GlifName: si_D_V_a
Width: 687
VWidth: 0
GlyphClass: 3
Flags: W
HStem: 0 40 309 40 715 40
VStem: 30 40<209 240 168.718 311.773> 169 40 410 40 616 41
LayerCount: 2
Back
Fore
SplineSet
94 -8 m 257
 34.3584 69.1836 30 118.444 30 209 c 258
 30 240 l 258
 30 383.545 95.2634 443.66 169.526 443.66 c 256
 185.8 443.66 202.505 440.773 219.051 435.245 c 256
 219 392 l 257
 200.468 398.285 184.04 401.168 169.518 401.168 c 256
 93.925 401.168 70 323.047 70 240 c 258
 70 209 l 258
 70 128.436 71.5576 84.5967 136 8 c 257
 94 -8 l 257
EndSplineSet
Refer: 515 3520 N 1 0 0 1 136 0 2
PickledDataWithLists: "(dp1
S'com.fontlab.hintData'
p2
(dp3
S'vhints'
p4
(lp5
(dp6
S'position'
p7
I30
sS'width'
p8
I40
sa(dp9
g7
I169
sg8
I40
sa(dp10
g7
I410
sg8
I40
sa(dp11
g7
I616
sg8
I41
sasS'hhints'
p12
(lp13
(dp14
g7
I0
sg8
I40
sa(dp15
g7
I309
sg8
I40
sa(dp16
g7
I715
sg8
I40
sass."
Ligature2: "si_akhands subtable" si_Da si_Halant si_Va
EndChar

StartChar: si_Da
Encoding: 42 3503 73
GlifName: si_D_a
Width: 532
VWidth: 0
GlyphClass: 2
Flags: W
HStem: -204 126 0 136 263 135 454 121
VStem: 32 143
LayerCount: 2
Back
Fore
SplineSet
361.022 -203.964 m 256
 276.453 -203.964 193 -151.097 193 -45 c 257
 233 -45 l 257
 233 -120.985 299.06 -164.281 365.197 -164.281 c 256
 420.846 -164.281 476.55 -133.627 493 -66 c 257
 532 -76 l 257
 514.009 -161.221 437.064 -203.964 361.022 -203.964 c 256
30 199 m 256
 30 335.29 125.045 402 256 402 c 258
 392 402 l 257
 392 493.372 320.287 537.564 242.646 537.564 c 256
 181.683 537.564 123.614 504.852 107 443 c 257
 68 456 l 257
 89.4072 536.278 163.421 579.363 240.706 579.363 c 256
 339.016 579.363 432 518.503 432 389 c 258
 432 362 l 257
 246 362 l 258
 130.019 362 71.624 293.457 71.624 199 c 256
 71.624 108.484 133.124 40 257 40 c 257
 296 40 l 257
 367 40 426.998 74.5439 461 148 c 257
 498 138 l 257
 456.009 22.3045 353 0 296 0 c 257
 257 0 l 258
 137 0 30 60.3916 30 199 c 256
EndSplineSet
PickledDataWithLists: "(dp1
S'com.fontlab.hintData'
p2
(dp3
S'vhints'
p4
(lp5
(dp6
S'position'
p7
I32
sS'width'
p8
I143
sasS'hhints'
p9
(lp10
(dp11
g7
I-204
sg8
I126
sa(dp12
g7
I0
sg8
I136
sa(dp13
g7
I263
sg8
I135
sa(dp14
g7
I454
sg8
I121
sass."
EndChar

StartChar: si_Dd.halant
Encoding: 212 -1 76
GlifName: si_D_d.halant
Width: 624
VWidth: 0
GlyphClass: 3
Flags: W
LayerCount: 2
Back
Fore
SplineSet
215 0 m 256
 132.107 0 74 52.25 74 133 c 258
 74 235 l 258
 74 266.714 80.8193 297.654 102 309 c 257
 30.0254 309 l 257
 30 349 l 257
 315 349 l 257
 314.714 407.658 265.87 438.116 218.351 438.116 c 256
 183.821 438.116 149.99 422.033 136 389 c 257
 97 399 l 257
 110.76 451.927 164.095 478.996 218.724 478.996 c 256
 252.305 478.996 286.375 468.767 312.041 448.028 c 256
 337.707 427.289 354.968 396.04 354.932 354 c 258
 355 309 l 257
 191 309 l 258
 154.631 309 116 301.575 116 235 c 258
 116 139 l 258
 116 104.059 138.846 40 215 40 c 256
 290.154 40 313 104.059 313 139 c 258
 313 192 l 257
 355 192 l 257
 355 139 l 258
 355 104.059 377.846 40 453 40 c 256
 529.154 40 552 104.059 552 139 c 258
 552 241 l 257
 594 241 l 257
 594 133 l 258
 594 52.25 535.893 0 453 0 c 256
 400.595 0 357.931 21.3961 334 57.9649 c 257
 310.069 21.3961 267.405 3.55271e-15 215 0 c 256
86.333 612 m 257
 86.333 652 l 257
 116.822 652 l 257
 102.899 670.11 95.9775 692.449 95.9775 714.83 c 256
 95.9775 766.802 133.309 819 207 819 c 258
 301 819 l 257
 301 779 l 257
 197 779 l 258
 155.071 779 133.881 747.025 133.881 715.163 c 256
 133.881 683.526 154.774 652 197 652 c 258
 369 652 l 257
 369 612 l 257
 86.333 612 l 257
552 241 m 256
 552 411 l 258
 552 558.715 482.056 612 369 612 c 257
 369 652 l 257
 528.37 652 594 568.037 594 411 c 258
 594 241 l 256
 552 241 l 256
539.333 673 m 257
 539.333 770 491.333 779 446 779 c 258
 356.5 779 l 257
 356.5 819 l 257
 446 819 l 258
 524.359 819 579.333 776 579.333 673 c 257
 539.333 673 l 257
EndSplineSet
Ligature2: "si_halant_1 subtable" si_Dda si_Halant
EndChar

StartChar: si_DdI
Encoding: 213 -1 77
GlifName: si_D_dI_
Width: 624
VWidth: 0
GlyphClass: 3
Flags: W
LayerCount: 2
Back
Fore
SplineSet
215 0 m 256
 132.107 0 74 52.25 74 133 c 258
 74 235 l 258
 74 266.714 80.8193 297.654 102 309 c 257
 30.0254 309 l 257
 30 349 l 257
 315 349 l 257
 314.714 407.658 265.87 438.116 218.351 438.116 c 256
 183.821 438.116 149.99 422.033 136 389 c 257
 97 399 l 257
 110.76 451.927 164.095 478.996 218.724 478.996 c 256
 292.999 478.996 354.999 431.905 354.932 354 c 258
 355 309 l 257
 191 309 l 258
 154.631 309 116 301.575 116 235 c 258
 116 139 l 258
 116 104.059 138.846 40 215 40 c 256
 290.154 40 313 104.059 313 139 c 258
 313 192 l 257
 355 192 l 257
 355 139 l 258
 355 104.059 377.846 40 453 40 c 256
 529.154 40 552 104.062 552 139 c 258
 552 241 l 257
 594 241 l 257
 594 133 l 258
 594 52.256 535.893 0 453 0 c 256
 400.595 0 357.931 21.3961 334 57.9649 c 257
 310.069 21.3961 267.405 3.55271e-15 215 0 c 256
207 612 m 258
 132.672 612 95.9774 663.304 95.9774 714.83 c 256
 95.9774 766.802 133.309 819 207 819 c 258
 301 819 l 257
 301 779 l 257
 197 779 l 258
 155.071 779 133.881 747.025 133.881 715.163 c 256
 133.881 683.526 154.775 652 197 652 c 258
 369 652 l 257
 369 612 l 257
 207 612 l 258
552 241 m 256
 552 411 l 258
 552 558.715 482.056 612 369 612 c 257
 369 652 l 257
 528.37 652 594 568.037 594 411 c 258
 594 241 l 256
 552 241 l 256
539.333 673 m 257
 539.333 770 491.333 779 446 779 c 258
 356.5 779 l 257
 356.5 819 l 257
 446 819 l 258
 524.359 819 579.333 776 579.333 673 c 257
 539.333 673 l 257
EndSplineSet
Ligature2: "si_abvs_1 subtable" si_Dda si_MatraI
EndChar

StartChar: si_DdIi
Encoding: 214 -1 78
GlifName: si_D_dI_i
Width: 624
VWidth: 0
GlyphClass: 3
Flags: W
LayerCount: 2
Back
Fore
SplineSet
215 0 m 256
 132.107 0 74 52.25 74 133 c 258
 74 235 l 258
 74 266.714 80.8193 297.654 102 309 c 257
 30.0254 309 l 257
 30 349 l 257
 315 349 l 257
 314.714 407.658 265.87 438.116 218.351 438.116 c 256
 183.821 438.116 149.99 422.033 136 389 c 257
 97 399 l 257
 110.76 451.927 164.095 478.996 218.724 478.996 c 256
 292.999 478.996 354.999 431.905 354.932 354 c 258
 355 309 l 257
 191 309 l 258
 154.631 309 116 301.575 116 235 c 258
 116 139 l 258
 116 104.059 138.846 40 215 40 c 256
 290.154 40 313 104.059 313 139 c 258
 313 192 l 257
 355 192 l 257
 355 139 l 258
 355 104.059 377.846 40 453 40 c 256
 529.154 40 552 104.059 552 139 c 258
 552 241 l 257
 594 241 l 257
 594 133 l 258
 594 52.25 535.893 0 453 0 c 256
 400.595 0 357.931 21.3961 334 57.9649 c 257
 310.069 21.3961 267.405 3.55271e-15 215 0 c 256
207 612 m 258
 132.68 612 95.9774 663.304 95.9774 714.83 c 256
 95.9774 766.802 133.309 819 207 819 c 258
 301 819 l 257
 301 779 l 257
 197 779 l 258
 155.071 779 133.881 747.025 133.881 715.163 c 256
 133.881 683.526 154.78 652 197 652 c 258
 369 652 l 257
 369 612 l 257
 207 612 l 258
502.96 603.56 m 256
 453.04 603.56 412.72 643.88 412.72 693.8 c 256
 412.72 729.745 433.625 760.713 463.967 775.235 c 257
 446.36 778.291 428.931 779 415 779 c 258
 356.5 779 l 257
 356.5 819 l 257
 431 819 l 258
 516.222 819 593.174 789.785 593.2 693.8 c 256
 593.2 643.88 552.88 603.56 502.96 603.56 c 256
552 241 m 256
 552 411 l 258
 552 558.715 482.056 612 369 612 c 257
 369 652 l 257
 528.37 652 594 568.037 594 411 c 258
 594 241 l 256
 552 241 l 256
EndSplineSet
Ligature2: "si_abvs_2 subtable" si_Dda si_MatraIi
EndChar

StartChar: si_DdR.halant
Encoding: 218 -1 79
GlifName: si_D_dR_.halant
Width: 624
VWidth: 0
GlyphClass: 2
Flags: W
LayerCount: 2
Back
Fore
SplineSet
356 -225 m 257
 356 -185 l 257
 481.492 -185 550.786 -120.229 550.786 -47.0527 c 256
 550.786 -14.9844 539.611 11.9023 516.704 32.124 c 257
 547.454 60.8232 l 257
 577.936 33.0381 592.003 -4.1416 592.003 -47.0527 c 256
 592.003 -161.31 492 -225.053 356 -225 c 257
299.833 -225.091 m 257
 187.746 -225.148 67.833 -161.891 67.833 -48.1436 c 257
 107.833 -48.1436 l 257
 107.833 -160.449 258.833 -185.182 299.833 -185.091 c 257
 299.833 -225.091 l 257
EndSplineSet
Refer: 76 -1 N 1 0 0 1 0 0 2
EndChar

StartChar: si_DdRI
Encoding: 220 -1 80
GlifName: si_D_dR_I_
Width: 624
VWidth: 0
GlyphClass: 3
Flags: W
LayerCount: 2
Back
Fore
SplineSet
362 -225 m 257
 362 -185 l 257
 487.493 -185 556.786 -120.23 556.786 -47.0527 c 256
 556.786 -14.9843 545.612 11.9027 522.704 32.1242 c 257
 553.454 60.8235 l 257
 583.936 33.0377 598.003 -4.14159 598.003 -47.0527 c 256
 598.003 -161.31 498 -225.053 362 -225 c 257
305.833 -225.091 m 257
 193.746 -225.148 73.833 -161.891 73.833 -48.1436 c 257
 113.833 -48.1436 l 257
 113.833 -160.449 264.833 -185.182 305.833 -185.091 c 257
 305.833 -225.091 l 257
EndSplineSet
Refer: 77 -1 N 1 0 0 1 0 0 2
Ligature2: "si_abvs_3 subtable" si_DdRa si_MatraI
EndChar

StartChar: si_DdRIi
Encoding: 221 -1 81
GlifName: si_D_dR_I_i
Width: 624
VWidth: 0
GlyphClass: 3
Flags: W
LayerCount: 2
Back
Fore
SplineSet
362 -225 m 257
 362 -185 l 257
 487.493 -185 556.786 -120.23 556.786 -47.0527 c 256
 556.786 -14.9843 545.612 11.9027 522.704 32.1242 c 257
 553.454 60.8235 l 257
 583.936 33.0377 598.003 -4.14159 598.003 -47.0527 c 256
 598.003 -161.31 498 -225.053 362 -225 c 257
305.833 -225.091 m 257
 193.746 -225.148 73.833 -161.891 73.833 -48.1436 c 257
 113.833 -48.1436 l 257
 113.833 -160.449 264.833 -185.182 305.833 -185.091 c 257
 305.833 -225.091 l 257
EndSplineSet
Refer: 78 -1 N 1 0 0 1 0 0 2
Ligature2: "si_abvs_4 subtable" si_DdRa si_MatraIi
EndChar

StartChar: si_DdRa
Encoding: 219 -1 82
GlifName: si_D_dR_a
Width: 624
VWidth: 0
GlyphClass: 3
Flags: W
LayerCount: 2
Back
Fore
SplineSet
362 -225 m 257
 362 -185 l 257
 487.493 -185 556.786 -120.23 556.786 -47.0527 c 256
 556.786 -14.9843 545.612 11.9027 522.704 32.1242 c 257
 553.454 60.8235 l 257
 583.936 33.0377 598.003 -4.14159 598.003 -47.0527 c 256
 598.003 -161.31 498 -225.053 362 -225 c 257
305.833 -225.091 m 257
 193.746 -225.148 73.833 -161.891 73.833 -48.1436 c 257
 113.833 -48.1436 l 257
 113.833 -160.449 264.833 -185.182 305.833 -185.091 c 257
 305.833 -225.091 l 257
EndSplineSet
Refer: 85 3497 N 1 0 0 1 0 0 2
LCarets2: 2 0 0
Ligature2: "si_rakaar subtable" si_Dda si_Halant si_Ra
EndChar

StartChar: si_DdU
Encoding: 215 -1 83
GlifName: si_D_dU_
Width: 624
VWidth: 0
GlyphClass: 3
Flags: W
LayerCount: 2
Back
Fore
SplineSet
540 83 m 257
 580 83 l 257
 580 -205 l 257
 540 -205 l 257
 540 83 l 257
362 -165 m 257
 540 -165 l 257
 540 -205 l 257
 362 -205 l 257
 362 -165 l 257
93 -165 m 257
 306 -165 l 257
 306 -205 l 257
 93 -205 l 257
 93 -165 l 257
EndSplineSet
Refer: 85 3497 N 1 0 0 1 0 0 2
Ligature2: "si_blws_1 subtable" si_Dda si_MatraU
EndChar

StartChar: si_DdUu
Encoding: 216 -1 84
GlifName: si_D_dU_u
Width: 624
VWidth: 0
GlyphClass: 3
Flags: W
LayerCount: 2
Back
Fore
SplineSet
93 -142 m 257
 119.185 -155.703 140.32 -160.636 159.163 -160.636 c 256
 207.629 -160.636 240.931 -128 306 -128 c 257
 306 -170 l 257
 240.504 -170 206.646 -200.902 157.873 -200.902 c 256
 139.277 -200.902 118.513 -196.41 93 -184 c 257
 93 -142 l 257
362 -128 m 257
 391.143 -128 464.825 -130.922 544 -161 c 257
 544 -205 l 257
 459.61 -171.253 390 -170 362 -170 c 257
 362 -128 l 257
544 83 m 257
 584 103 l 257
 584 -205 l 257
 544 -205 l 257
 544 83 l 257
EndSplineSet
Refer: 85 3497 N 1 0 0 1 0 0 2
Ligature2: "si_blws_3 subtable" si_Dda si_MatraUu
EndChar

StartChar: si_Dda
Encoding: 36 3497 85
GlifName: si_D_da
Width: 624
VWidth: 0
GlyphClass: 2
Flags: W
HStem: 0 40<176.923 215 426.798 491.077> 241 41 309 40<30.0254 102 30.0254 30.0254 172.815 191 191 315 30 355> 715 40<259.702 306 362 421.065>
VStem: 74 42<133 139 139 235> 84 39 313 42<139 192> 552 42<139 197 197 514>
LayerCount: 2
Back
Fore
SplineSet
215 0 m 256
 132.107 0 74 52.25 74 133 c 258
 74 235 l 258
 74 266.714 80.8193 297.654 102 309 c 257
 30.0254 309 l 257
 30 349 l 257
 315 349 l 257
 314.714 407.658 265.87 438.116 218.351 438.116 c 256
 183.821 438.116 149.99 422.033 136 389 c 257
 97 399 l 257
 110.76 451.927 164.095 478.996 218.724 478.996 c 256
 252.305 478.996 286.375 468.767 312.041 448.028 c 256
 337.707 427.289 354.968 396.04 354.932 354 c 258
 355 309 l 257
 191 309 l 258
 154.631 309 116 301.575 116 235 c 258
 116 139 l 258
 116 104.059 138.846 40 215 40 c 256
 290.154 40 313 104.059 313 139 c 258
 313 192 l 257
 355 192 l 257
 355 139 l 258
 355 104.059 377.846 40 453 40 c 256
 529.154 40 552 104.062 552 139 c 258
 552 197 l 257
 594 197 l 257
 594 133 l 258
 594 52.2564 535.893 0 453 0 c 256
 400.595 0 357.931 21.3961 334 57.9649 c 257
 310.069 21.3961 267.405 3.55271e-15 215 0 c 256
552 197 m 256
 552 514 l 258
 552 665.824 480.13 715 362 715 c 257
 362 755 l 257
 526.177 755 594 675.274 594 514 c 258
 594 197 l 256
 552 197 l 256
84.375 563 m 257
 84.375 680.776 201.933 755 306 755 c 257
 306 715 l 257
 213.405 715 123.375 651.181 123.375 553 c 257
 84.375 563 l 257
EndSplineSet
PickledDataWithLists: "(dp1
S'com.fontlab.hintData'
p2
(dp3
S'vhints'
p4
(lp5
(dp6
S'position'
p7
I74
sS'width'
p8
I42
sa(dp9
g7
I84
sg8
I39
sa(dp10
g7
I313
sg8
I42
sa(dp11
g7
I552
sg8
I42
sasS'hhints'
p12
(lp13
(dp14
g7
I0
sg8
I40
sa(dp15
g7
I241
sg8
I41
sa(dp16
g7
I309
sg8
I40
sa(dp17
g7
I715
sg8
I40
sass."
EndChar

StartChar: si_Ddh.halant
Encoding: 222 -1 88
GlifName: si_D_dh.halant
Width: 624
VWidth: 0
GlyphClass: 3
Flags: W
LayerCount: 2
Back
Fore
SplineSet
552.001 518 m 257
 552.001 819 l 257
 594.001 819 l 257
 594.001 518 l 257
 552.001 518 l 257
EndSplineSet
Refer: 93 3498 N 1 0 0 1 0 0 2
Ligature2: "si_halant_1 subtable" si_Ddha si_Halant
EndChar

StartChar: si_DdhI
Encoding: 223 -1 89
GlifName: si_D_dhI_
Width: 624
VWidth: 0
GlyphClass: 3
Flags: W
LayerCount: 2
Back
Fore
SplineSet
272 922 m 258
 439 922 l 258
 545 922 588.333 853.602 588.333 776 c 257
 548.333 776 l 257
 548.333 854.182 491.614 881.917 438.849 882 c 258
 272 882 l 258
 226.505 882 203.848 850.335 203.848 818.627 c 256
 203.848 786.835 226.626 755 272 755 c 257
 272 715 l 257
 196.542 715 158.765 766.793 158.765 818.565 c 256
 158.765 870.293 196.479 922 272 922 c 258
EndSplineSet
Refer: 93 3498 N 1 0 0 1 0 0 2
Ligature2: "si_abvs_1 subtable" si_Ddha si_MatraI
EndChar

StartChar: si_DdhIi
Encoding: 224 -1 90
GlifName: si_D_dhI_i
Width: 627
VWidth: 0
GlyphClass: 3
Flags: W
HStem: -5 140 522 123 603 42 703 116
VStem: 30 138 297 4 316 108 388 140
LayerCount: 2
Back
Fore
SplineSet
272 715 m 257
 196.555 715 158.805 766.775 158.805 818.538 c 256
 158.805 870.275 196.518 922 272 922 c 258
 465 922 l 258
 549.722 922 626.674 892.785 626.7 796.8 c 256
 626.7 746.88 586.38 706.56 536.46 706.56 c 256
 486.54 706.56 446.22 746.88 446.22 796.8 c 256
 446.22 832.745 467.125 863.713 497.467 878.234 c 257
 479.859 881.291 462.432 882 447.849 882 c 258
 272 882 l 258
 226.505 882 203.848 850.335 203.848 818.627 c 256
 203.848 786.835 226.626 755 272 755 c 257
 272 715 l 257
EndSplineSet
Refer: 93 3498 N 1 0 0 1 0 0 2
PickledDataWithLists: "(dp1
S'com.fontlab.hintData'
p2
(dp3
S'vhints'
p4
(lp5
(dp6
S'position'
p7
I30
sS'width'
p8
I138
sa(dp9
g7
I297
sg8
I4
sa(dp10
g7
I316
sg8
I108
sa(dp11
g7
I388
sg8
I140
sasS'hhints'
p12
(lp13
(dp14
g7
I-5
sg8
I140
sa(dp15
g7
I522
sg8
I123
sa(dp16
g7
I603
sg8
I42
sa(dp17
g7
I703
sg8
I116
sass."
Ligature2: "si_abvs_2 subtable" si_Ddha si_MatraIi
EndChar

StartChar: si_DdhU
Encoding: 225 -1 91
GlifName: si_D_dhU_
Width: 624
VWidth: 0
GlyphClass: 3
Flags: W
LayerCount: 2
Back
Fore
SplineSet
539 83 m 257
 579 83 l 257
 579 -205 l 257
 539 -205 l 257
 539 83 l 257
361 -165 m 257
 539 -165 l 257
 539 -205 l 257
 361 -205 l 257
 361 -165 l 257
92 -165 m 257
 305 -165 l 257
 305 -205 l 257
 92 -205 l 257
 92 -165 l 257
EndSplineSet
Refer: 93 3498 N 1 0 0 1 0 0 2
Ligature2: "si_blws_1 subtable" si_Ddha si_MatraU
EndChar

StartChar: si_DdhUu
Encoding: 226 -1 92
GlifName: si_D_dhU_u
Width: 624
VWidth: 0
GlyphClass: 3
Flags: W
LayerCount: 2
Back
Fore
SplineSet
95 -142 m 257
 121.185 -155.703 142.32 -160.636 161.163 -160.636 c 256
 209.629 -160.636 242.931 -128 308 -128 c 257
 308 -170 l 257
 242.504 -170 208.646 -200.902 159.873 -200.902 c 256
 141.277 -200.902 120.513 -196.41 95 -184 c 257
 95 -142 l 257
364 -128 m 257
 393.143 -128 462.825 -130.922 542 -161 c 257
 542 -205 l 257
 457.61 -171.253 392 -170 364 -170 c 257
 364 -128 l 257
542 83 m 257
 582 83 l 257
 582 -205 l 257
 542 -205 l 257
 542 83 l 257
EndSplineSet
Refer: 93 3498 N 1 0 0 1 0 0 2
Ligature2: "si_blws_3 subtable" si_Ddha si_MatraUu
EndChar

StartChar: si_Ddha
Encoding: 37 3498 93
GlifName: si_D_dha
Width: 624
VWidth: 0
GlyphClass: 2
Flags: W
HStem: 0 40<176.923 215 426.798 491.077> 235 7 309 40<30.0254 102 30.0254 30.0254 172.815 191 191 315 30 355> 450 41 464 40<465.676 497 465.676 497> 715 40<367 431.851>
VStem: 74 42<133 139 139 235> 313 42<139 192> 327 40<715 715 715 755> 552 42<139 198 198 498 498 517>
LayerCount: 2
Back
Fore
SplineSet
215 0 m 256
 132.107 0 74 52.25 74 133 c 258
 74 235 l 258
 74 266.714 80.8193 297.654 102 309 c 257
 30.0254 309 l 257
 30 349 l 257
 315 349 l 257
 314.714 407.658 265.87 438.116 218.351 438.116 c 256
 183.821 438.116 149.99 422.033 136 389 c 257
 97 399 l 257
 110.76 451.927 164.095 478.996 218.724 478.996 c 256
 252.305 478.996 286.375 468.767 312.041 448.028 c 256
 337.707 427.289 354.968 396.04 354.932 354 c 258
 355 309 l 257
 191 309 l 258
 154.631 309 116 301.575 116 235 c 258
 116 139 l 258
 116 104.059 138.846 40 215 40 c 256
 290.154 40 313 104.059 313 139 c 258
 313 192 l 257
 355 192 l 257
 355 139 l 258
 355 104.059 377.846 40 453 40 c 256
 529.154 40 552 104.063 552 139 c 258
 552 198 l 257
 594 198 l 257
 594 133 l 258
 594 52.2573 535.893 0 453 0 c 256
 400.595 0 357.931 21.3961 334 57.9649 c 257
 310.069 21.3961 267.405 3.55271e-15 215 0 c 256
327 637 m 258
 327 755 l 257
 367 755 l 257
 496.702 755 594 700 594 517 c 258
 594 198 l 257
 552 198 l 257
 552 498 l 258
 552 643.279 504.385 715 367 715 c 257
 366.95 637 l 258
 367 536.674 434.352 504 497 504 c 257
 497 464 l 257
 380 464 327 540.655 327 637 c 258
EndSplineSet
PickledDataWithLists: "(dp1
S'com.fontlab.hintData'
p2
(dp3
S'vhints'
p4
(lp5
(dp6
S'position'
p7
I74
sS'width'
p8
I42
sa(dp9
g7
I313
sg8
I42
sa(dp10
g7
I327
sg8
I40
sa(dp11
g7
I552
sg8
I42
sasS'hhints'
p12
(lp13
(dp14
g7
I0
sg8
I40
sa(dp15
g7
I235
sg8
I7
sa(dp16
g7
I309
sg8
I40
sa(dp17
g7
I450
sg8
I41
sa(dp18
g7
I464
sg8
I40
sa(dp19
g7
I715
sg8
I40
sass."
EndChar

StartChar: si_Dh.halant
Encoding: 266 -1 95
GlifName: si_D_h.halant
Width: 580
VWidth: 0
GlyphClass: 3
Flags: W
LayerCount: 2
Back
Fore
SplineSet
171 0 m 256
 88.1074 0 30 52.25 30 133 c 258
 30 307 l 258
 30 387.75 78.1074 480 210.667 480 c 258
 250 480 l 257
 250 440 l 257
 210.667 440 l 258
 84.8457 440 72 335.941 72 301 c 258
 72 139 l 258
 72 104.059 94.8457 40 171 40 c 256
 246.154 40 269 104.059 269 139 c 258
 269 192 l 257
 311 192 l 257
 311 139 l 258
 311 104.059 333.846 40 409 40 c 256
 485.154 40 508 104.067 508 139 c 258
 508 241 l 257
 550 241 l 257
 550 133 l 258
 550 52.2663 491.893 0 409 0 c 256
 356.595 0 313.931 21.3961 290 57.9649 c 257
 266.069 21.3961 223.405 3.55271e-15 171 0 c 256
48.333 612 m 257
 48.333 652 l 257
 78.8224 652 l 257
 64.8999 670.111 57.9774 692.449 57.9774 714.83 c 256
 57.9774 766.802 95.3087 819 169 819 c 258
 263 819 l 257
 263 779 l 257
 159 779 l 258
 117.071 779 95.8813 747.025 95.8813 715.163 c 256
 95.8813 683.526 116.774 652 159 652 c 258
 325 652 l 257
 325 612 l 257
 48.333 612 l 257
508 241 m 256
 508 411 l 258
 508 558.715 438.056 612 325 612 c 257
 325 652 l 257
 484.37 652 550 568.037 550 411 c 258
 550 241 l 256
 508 241 l 256
318.5 779 m 257
 318.5 819 l 257
 408 819 l 258
 486.359 819 541.333 776 541.333 673 c 257
 501.333 673 l 257
 501.333 770 453.333 779 408 779 c 258
 318.5 779 l 257
EndSplineSet
Ligature2: "si_halant_1 subtable" si_Dha si_Halant
EndChar

StartChar: si_DhI
Encoding: 267 -1 96
GlifName: si_D_hI_
Width: 580
VWidth: 0
GlyphClass: 3
Flags: W
LayerCount: 2
Back
Fore
SplineSet
171 0 m 256
 88.1074 0 30 52.25 30 133 c 258
 30 307 l 258
 30 387.75 78.1074 480 210.667 480 c 258
 250 480 l 257
 250 440 l 257
 210.667 440 l 258
 84.8457 440 72 335.941 72 301 c 258
 72 139 l 258
 72 104.059 94.8457 40 171 40 c 256
 246.154 40 269 104.059 269 139 c 258
 269 192 l 257
 311 192 l 257
 311 139 l 258
 311 104.059 333.846 40 409 40 c 256
 485.154 40 508 104.059 508 139 c 258
 508 241 l 257
 550 241 l 257
 550 133 l 258
 550 52.25 491.893 0 409 0 c 256
 356.595 0 313.931 21.3961 290 57.9649 c 257
 266.069 21.3961 223.405 3.55271e-15 171 0 c 256
169 612 m 258
 94.6695 612 57.9774 663.304 57.9774 714.83 c 256
 57.9774 766.802 95.3087 819 169 819 c 258
 263 819 l 257
 263 779 l 257
 159 779 l 258
 117.071 779 95.8813 747.025 95.8813 715.163 c 256
 95.8813 683.526 116.774 652 159 652 c 258
 325 652 l 257
 325 612 l 257
 169 612 l 258
508 241 m 256
 508 411 l 258
 508 558.715 438.056 612 325 612 c 257
 325 652 l 257
 484.37 652 550 568.037 550 411 c 258
 550 241 l 256
 508 241 l 256
501.333 673 m 257
 501.333 770 453.333 779 408 779 c 258
 318.5 779 l 257
 318.5 819 l 257
 408 819 l 258
 486.359 819 541.333 776 541.333 673 c 257
 501.333 673 l 257
EndSplineSet
Ligature2: "si_abvs_1 subtable" si_Dha si_MatraI
EndChar

StartChar: si_DhIi
Encoding: 268 -1 97
GlifName: si_D_hI_i
Width: 581
VWidth: 0
GlyphClass: 3
Flags: W
LayerCount: 2
Back
Fore
SplineSet
171 0 m 256
 88.1074 0 30 52.25 30 133 c 258
 30 307 l 258
 30 387.75 78.1074 480 210.667 480 c 258
 250 480 l 257
 250 440 l 257
 210.667 440 l 258
 84.8457 440 72 335.941 72 301 c 258
 72 139 l 258
 72 104.059 94.8457 40 171 40 c 256
 246.154 40 269 104.059 269 139 c 258
 269 192 l 257
 311 192 l 257
 311 139 l 258
 311 104.059 333.846 40 409 40 c 256
 485.154 40 508 104.059 508 139 c 258
 508 199 l 257
 550 199 l 257
 550 133 l 258
 550 52.25 491.893 0 409 0 c 256
 356.595 0 313.931 21.3961 290 57.9649 c 257
 266.069 21.3961 223.405 3.55271e-15 171 0 c 256
169 612 m 258
 94.6724 612 57.9774 663.304 57.9774 714.83 c 256
 57.9774 766.802 95.3087 819 169 819 c 258
 263 819 l 257
 263 779 l 257
 159 779 l 258
 117.071 779 95.8813 747.025 95.8813 715.163 c 256
 95.8813 683.526 116.775 652 159 652 c 258
 325 652 l 257
 325 612 l 257
 169 612 l 258
464.96 603.56 m 256
 415.04 603.56 374.72 643.88 374.72 693.8 c 256
 374.72 729.745 395.625 760.713 425.967 775.235 c 257
 408.36 778.291 390.931 779 377 779 c 258
 318.5 779 l 257
 318.5 819 l 257
 393 819 l 258
 478.222 819 555.174 789.785 555.2 693.8 c 256
 555.2 643.88 514.88 603.56 464.96 603.56 c 256
508 199 m 256
 508 411 l 258
 508 558.715 438.056 612 325 612 c 257
 325 652 l 257
 329.672 652 334.263 651.928 338.774 651.784 c 256
 488.161 647.015 550 563.434 550 411 c 258
 550 199 l 256
 508 199 l 256
EndSplineSet
Ligature2: "si_abvs_2 subtable" si_Dha si_MatraIi
EndChar

StartChar: si_DhR.halant
Encoding: 272 -1 98
GlifName: si_D_hR_.halant
Width: 580
VWidth: 0
GlyphClass: 2
Flags: W
LayerCount: 2
Back
Fore
SplineSet
318 -225 m 257
 318 -185 l 257
 443.493 -185 512.786 -120.23 512.786 -47.0527 c 256
 512.786 -14.9844 501.611 11.9023 478.704 32.124 c 257
 509.454 60.8232 l 257
 539.936 33.0381 554.003 -4.1416 554.003 -47.0527 c 256
 554.003 -161.31 454 -225.053 318 -225 c 257
261.833 -225.091 m 257
 149.746 -225.148 29.833 -161.891 29.833 -48.1436 c 257
 69.833 -48.1436 l 257
 69.833 -160.449 220.833 -185.182 261.833 -185.091 c 257
 261.833 -225.091 l 257
EndSplineSet
Refer: 95 -1 N 1 0 0 1 0 0 2
EndChar

StartChar: si_DhRI
Encoding: 274 -1 99
GlifName: si_D_hR_I_
Width: 580
VWidth: 0
GlyphClass: 3
Flags: W
LayerCount: 2
Back
Fore
SplineSet
318 -225 m 257
 318 -185 l 257
 443.493 -185 512.786 -120.23 512.786 -47.0527 c 256
 512.786 -14.9844 501.611 11.9023 478.704 32.124 c 257
 509.454 60.8232 l 257
 539.936 33.0381 554.003 -4.1416 554.003 -47.0527 c 256
 554.003 -161.31 454 -225.053 318 -225 c 257
261.833 -225.091 m 257
 149.746 -225.148 29.833 -161.891 29.833 -48.1436 c 257
 69.833 -48.1436 l 257
 69.833 -160.449 220.833 -185.182 261.833 -185.091 c 257
 261.833 -225.091 l 257
EndSplineSet
Refer: 96 -1 N 1 0 0 1 0 0 2
Ligature2: "si_abvs_3 subtable" si_DhRa si_MatraI
EndChar

StartChar: si_DhRIi
Encoding: 275 -1 100
GlifName: si_D_hR_I_i
Width: 581
VWidth: 0
GlyphClass: 3
Flags: W
LayerCount: 2
Back
Fore
SplineSet
318 -225 m 257
 318 -185 l 257
 443.493 -185 512.786 -120.23 512.786 -47.0527 c 256
 512.786 -14.9844 501.611 11.9023 478.704 32.124 c 257
 509.454 60.8232 l 257
 539.936 33.0381 554.003 -4.1416 554.003 -47.0527 c 256
 554.003 -161.31 454 -225.053 318 -225 c 257
261.833 -225.091 m 257
 149.746 -225.148 29.833 -161.891 29.833 -48.1436 c 257
 69.833 -48.1436 l 257
 69.833 -160.449 220.833 -185.182 261.833 -185.091 c 257
 261.833 -225.091 l 257
EndSplineSet
Refer: 97 -1 N 1 0 0 1 0 0 2
Ligature2: "si_abvs_4 subtable" si_DhRa si_MatraIi
EndChar

StartChar: si_DhRa
Encoding: 273 -1 101
GlifName: si_D_hR_a
Width: 580
VWidth: 0
GlyphClass: 3
Flags: W
LayerCount: 2
Back
Fore
SplineSet
318 -225 m 257
 318 -185 l 257
 443.493 -185 512.786 -120.23 512.786 -47.0527 c 256
 512.786 -14.9844 501.611 11.9023 478.704 32.124 c 257
 509.454 60.8232 l 257
 539.936 33.0381 554.003 -4.1416 554.003 -47.0527 c 256
 554.003 -161.31 454 -225.053 318 -225 c 257
261.833 -225.091 m 257
 149.746 -225.148 29.833 -161.891 29.833 -48.1436 c 257
 69.833 -48.1436 l 257
 69.833 -160.449 220.833 -185.182 261.833 -185.091 c 257
 261.833 -225.091 l 257
EndSplineSet
Refer: 104 3504 N 1 0 0 1 0 0 2
Ligature2: "si_rakaar subtable" si_Dha si_Halant si_Ra
EndChar

StartChar: si_DhU
Encoding: 269 -1 102
GlifName: si_D_hU_
Width: 580
VWidth: 0
GlyphClass: 3
Flags: W
LayerCount: 2
Back
Fore
SplineSet
498 83 m 257
 538 83 l 257
 538 -205 l 257
 498 -205 l 257
 498 83 l 257
314 -165 m 257
 498 -165 l 257
 498 -205 l 257
 314 -205 l 257
 314 -165 l 257
49 -165 m 257
 257 -165 l 257
 257 -205 l 257
 49 -205 l 257
 49 -165 l 257
EndSplineSet
Refer: 104 3504 N 1 0 0 1 0 0 2
Ligature2: "si_blws_1 subtable" si_Dha si_MatraU
EndChar

StartChar: si_DhUu
Encoding: 270 -1 103
GlifName: si_D_hU_u
Width: 580
VWidth: 0
GlyphClass: 3
Flags: W
LayerCount: 2
Back
Fore
SplineSet
51 -142 m 257
 77.1853 -155.703 97.8502 -160.636 116.016 -160.636 c 256
 162.739 -160.636 192.931 -128 258 -128 c 257
 258 -170 l 257
 192.504 -170 161.791 -200.902 114.754 -200.902 c 256
 96.82 -200.902 76.5129 -196.41 51 -184 c 257
 51 -142 l 257
314 -128 m 257
 343.143 -128 418.825 -130.922 498 -161 c 257
 498 -205 l 257
 413.61 -171.253 342 -170 314 -170 c 257
 314 -128 l 257
498 83 m 257
 538 83 l 257
 538 -205 l 257
 498 -205 l 257
 498 83 l 257
EndSplineSet
Refer: 104 3504 N 1 0 0 1 0 0 2
Ligature2: "si_blws_3 subtable" si_Dha si_MatraUu
EndChar

StartChar: si_Dha
Encoding: 43 3504 104
GlifName: si_D_ha
Width: 580
VWidth: 0
GlyphClass: 2
Flags: W
HStem: 0 40<132.923 171 382.798 447.077> 241 1 440 40<147.756 250 210.667 250> 715 40<215.702 262 318 377.065>
VStem: 25 42 264 42 503 42
LayerCount: 2
Back
Fore
SplineSet
171 0 m 256
 88.1074 0 30 52.25 30 133 c 258
 30 307 l 258
 30 387.75 78.1074 480 210.667 480 c 258
 250 480 l 257
 250 440 l 257
 210.667 440 l 258
 84.8457 440 72 335.941 72 301 c 258
 72 139 l 258
 72 104.059 94.8457 40 171 40 c 256
 246.154 40 269 104.059 269 139 c 258
 269 192 l 257
 311 192 l 257
 311 139 l 258
 311 104.059 333.846 40 409 40 c 256
 485.154 40 508 104.059 508 139 c 258
 508 200 l 257
 550 200 l 257
 550 133 l 258
 550 52.25 491.893 0 409 0 c 256
 356.595 0 313.931 21.3961 290 57.9649 c 257
 266.069 21.3961 223.405 3.55271e-15 171 0 c 256
508 200 m 256
 508 514 l 258
 508 665.824 436.13 715 318 715 c 257
 318 755 l 257
 482.177 755 550 675.274 550 514 c 258
 550 200 l 256
 508 200 l 256
40.375 563 m 257
 40.375 680.776 157.933 755 262 755 c 257
 262 715 l 257
 169.405 715 79.375 651.181 79.375 553 c 257
 40.375 563 l 257
EndSplineSet
PickledDataWithLists: "(dp1
S'com.fontlab.hintData'
p2
(dp3
S'vhints'
p4
(lp5
(dp6
S'position'
p7
I25
sS'width'
p8
I42
sa(dp9
g7
I264
sg8
I42
sa(dp10
g7
I503
sg8
I42
sasS'hhints'
p11
(lp12
(dp13
g7
I0
sg8
I40
sa(dp14
g7
I241
sg8
I1
sa(dp15
g7
I440
sg8
I40
sa(dp16
g7
I715
sg8
I40
sass."
EndChar

StartChar: si_E
Encoding: 15 3473 109
GlifName: si_E_
Width: 589
VWidth: 0
GlyphClass: 2
Flags: W
HStem: 0 40<221.268 279 221.268 279 334 390.528> 235 6 309 40<30.0254 115.457 30.0254 30.0254 179.391 209 209 295> 464 40<430.676 462 430.676 462> 715 40<332 396.851>
VStem: 292 40<715 715 715 755> 517 42<168.143 241 241 498 498 517>
LayerCount: 2
Back
Fore
SplineSet
77 399 m 257
 90.7598 451.927 144.095 478.996 198.724 478.996 c 256
 232.305 478.996 266.375 468.767 292.041 448.028 c 256
 317.707 427.289 334.968 396.04 334.932 354 c 258
 335 309 l 257
 209 309 l 258
 149.782 309 114.737 252.398 114.737 191.123 c 256
 114.737 118.816 163.536 40 279 40 c 257
 279 0 l 257
 136.137 0 72.8038 98.7086 72.8038 191.135 c 256
 72.8038 235.86 87.6331 279.113 115.457 309 c 257
 30.0254 309 l 257
 30 349 l 257
 209 349 l 257
 295 349 l 257
 294.714 407.658 245.87 438.116 198.351 438.116 c 256
 163.821 438.116 129.99 422.033 116 389 c 257
 77 399 l 257
462 464 m 257
 345 464 292 540.655 292 637 c 258
 292 755 l 257
 332 755 l 257
 461.702 755 559 700 559 517 c 258
 559 241 l 257
 517 241 l 257
 517 498 l 258
 517 643.279 469.385 715 332 715 c 257
 331.95 637 l 258
 332 536.674 399.352 504 462 504 c 257
 462 464 l 257
334 0 m 257
 334 40 l 257
 447.056 40 517 95.2852 517 241 c 256
 559 241 l 256
 559 83.9629 493.37 0 334 0 c 257
EndSplineSet
PickledDataWithLists: "(dp1
S'com.fontlab.hintData'
p2
(dp3
S'vhints'
p4
(lp5
(dp6
S'position'
p7
I292
sS'width'
p8
I40
sa(dp9
g7
I517
sg8
I42
sasS'hhints'
p10
(lp11
(dp12
g7
I0
sg8
I40
sa(dp13
g7
I235
sg8
I6
sa(dp14
g7
I309
sg8
I40
sa(dp15
g7
I464
sg8
I40
sa(dp16
g7
I715
sg8
I40
sass."
EndChar

StartChar: si_Ee
Encoding: 16 3474 110
GlifName: si_E_e
Width: 589
VWidth: 0
GlyphClass: 2
Flags: W
HStem: 0 40<221.268 279 221.268 279 334 390.528> 235 6 309 40<30.0254 30.0254 30.0254 115.457 179.391 209 209 295> 464 40<430.676 462 430.676 462> 715 40<332 396.851>
VStem: 292 40<715 715 715 755> 517 42<168.143 241 241 498 498 517>
LayerCount: 2
Back
Fore
SplineSet
30.0254 309 m 257
 30 349 l 257
 209 349 l 257
 295 349 l 257
 294.714 407.658 245.87 438.116 198.351 438.116 c 256
 163.821 438.116 129.99 422.033 116 389 c 257
 77 399 l 257
 90.7598 451.927 144.095 478.996 198.724 478.996 c 256
 232.305 478.996 266.375 468.767 292.041 448.028 c 256
 317.707 427.289 334.968 396.04 334.932 354 c 258
 335 309 l 257
 209 309 l 258
 149.782 309 114.737 252.398 114.737 191.123 c 256
 114.737 118.816 163.536 40 279 40 c 257
 279 0 l 257
 136.137 0 72.8038 98.7086 72.8038 191.135 c 256
 72.8038 235.86 87.6331 279.113 115.457 309 c 257
 30.0254 309 l 257
292 637 m 258
 292 755 l 257
 332 755 l 257
 461.702 755 559 699.998 559 517 c 258
 559 241 l 257
 517 241 l 257
 517 498 l 258
 517 643.277 469.385 715 332 715 c 257
 331.95 637 l 258
 332 536.674 399.352 504 462 504 c 257
 462 464 l 257
 345 464 292 540.655 292 637 c 258
334 0 m 257
 334 40 l 257
 447.056 40 517 95.2852 517 241 c 256
 559 241 l 256
 559 83.9629 493.37 0 334 0 c 257
517.001 518 m 257
 517.001 819 l 257
 559.001 819 l 257
 559.001 518 l 257
 517.001 518 l 257
EndSplineSet
PickledDataWithLists: "(dp1
S'com.fontlab.hintData'
p2
(dp3
S'vhints'
p4
(lp5
(dp6
S'position'
p7
I292
sS'width'
p8
I40
sa(dp9
g7
I517
sg8
I42
sasS'hhints'
p10
(lp11
(dp12
g7
I0
sg8
I40
sa(dp13
g7
I235
sg8
I6
sa(dp14
g7
I309
sg8
I40
sa(dp15
g7
I464
sg8
I40
sa(dp16
g7
I715
sg8
I40
sass."
EndChar

StartChar: si_FR.halant
Encoding: 425 -1 114
GlifName: si_F_R_.halant
Width: 630
VWidth: 0
GlyphClass: 2
Flags: W
LayerCount: 2
Back
Fore
SplineSet
344.115 -193.947 m 257
 508.148 -193.947 606.99 -62.1113 541 66 c 257
 575 89 l 257
 649.297 -41.9863 563 -234 344.115 -233.947 c 257
 344.115 -193.947 l 257
289 -234 m 257
 158.885 -234.053 35.833 -168.776 35.833 -37.0908 c 257
 75.833 -37.0908 l 257
 75.833 -163.737 208 -194 289 -194 c 257
 289 -234 l 257
EndSplineSet
Refer: 111 -1 N 1 0 0 1 0 0 2
EndChar

StartChar: si_FRI
Encoding: 427 -1 115
GlifName: si_F_R_I_
Width: 630
VWidth: 0
GlyphClass: 2
Flags: HW
LayerCount: 2
Back
Fore
SplineSet
344.115 -193.947 m 257
 508.148 -193.947 606.99 -62.1113 541 66 c 257
 575 89 l 257
 649.297 -41.9863 563 -234 344.115 -233.947 c 257
 344.115 -193.947 l 257
289 -234 m 257
 158.885 -234.053 35.833 -168.776 35.833 -37.0908 c 257
 75.833 -37.0908 l 257
 75.833 -163.737 208 -194 289 -194 c 257
 289 -234 l 257
EndSplineSet
Refer: 112 -1 N 1 0 0 1 0 0 2
EndChar

StartChar: si_FRIi
Encoding: 428 -1 116
GlifName: si_F_R_I_i
Width: 630
VWidth: 0
GlyphClass: 2
Flags: HW
LayerCount: 2
Back
Fore
SplineSet
344.115 -193.947 m 257
 508.148 -193.947 606.99 -62.1113 541 66 c 257
 575 89 l 257
 649.297 -41.9863 563 -234 344.115 -233.947 c 257
 344.115 -193.947 l 257
289 -234 m 257
 158.885 -234.053 35.833 -168.776 35.833 -37.0908 c 257
 75.833 -37.0908 l 257
 75.833 -163.737 208 -194 289 -194 c 257
 289 -234 l 257
EndSplineSet
Refer: 113 -1 N 1 0 0 1 0 0 2
EndChar

StartChar: si_FRa
Encoding: 426 -1 117
GlifName: si_F_R_a
Width: 630
VWidth: 0
GlyphClass: 3
Flags: W
LayerCount: 2
Back
Fore
SplineSet
344.115 -193.947 m 257
 508.148 -193.947 606.99 -62.1113 541 66 c 257
 575 89 l 257
 649.297 -41.9863 563 -234 344.115 -233.947 c 257
 344.115 -193.947 l 257
289 -234 m 257
 158.885 -234.053 35.833 -168.776 35.833 -37.0908 c 257
 75.833 -37.0908 l 257
 75.833 -163.737 208 -194 289 -194 c 257
 289 -234 l 257
EndSplineSet
Refer: 120 3526 N 1 0 0 1 0 0 2
Ligature2: "si_rakaar subtable" si_Fa si_Halant si_Ra
EndChar

StartChar: si_FU
Encoding: 422 -1 118
GlifName: si_F_U_
Width: 630
VWidth: 0
GlyphClass: 3
Flags: W
LayerCount: 2
Back
Fore
SplineSet
45 -165 m 257
 288 -165 l 257
 288 -205 l 257
 45 -205 l 257
 45 -165 l 257
344 -205 m 257
 344 -165 l 257
 543 -165 l 257
 543 -205 l 257
 344 -205 l 257
529 -205 m 257
 529 51 l 257
 569 111 l 257
 569 -205 l 257
 529 -205 l 257
EndSplineSet
Refer: 120 3526 N 1 0 0 1 0 0 2
LCarets2: 1 0
Ligature2: "si_blws_1 subtable" si_Fa si_MatraU
EndChar

StartChar: si_FUu
Encoding: 423 -1 119
GlifName: si_F_U_u
Width: 630
VWidth: 0
GlyphClass: 3
Flags: W
LayerCount: 2
Back
Fore
SplineSet
138.049 -204.871 m 256
 111.138 -204.871 81.1426 -194.653 45 -164 c 257
 45 -122 l 257
 81.5117 -153.982 111.641 -164.643 138.563 -164.643 c 256
 192.408 -164.643 234.421 -122 288 -122 c 257
 288 -164 l 257
 234.355 -164 191.871 -204.871 138.049 -204.871 c 256
529 -205 m 257
 382.841 -158.509 352.06 -164 344 -164 c 257
 344 -122 l 257
 373.143 -122 399.825 -121.922 529 -161 c 257
 529 -205 l 257
529 -205 m 257
 529 51 l 257
 569 111 l 257
 569 -205 l 257
 529 -205 l 257
EndSplineSet
Refer: 120 3526 N 1 0 0 1 0 0 2
Ligature2: "si_blws_3 subtable" si_Fa si_MatraUu
EndChar

StartChar: si_Fa
Encoding: 61 3526 120
GlifName: si_F_a
Width: 630
VWidth: 0
GlyphClass: 2
Flags: W
HStem: 0 143 425 139
VStem: 30 139 261 128 481 139
LayerCount: 2
Back
Fore
SplineSet
30 242 m 257
 30 424 l 258
 30 508.469 97.6729 564 182 564 c 256
 239.396 564 288.803 538.875 315 496.718 c 257
 341.197 538.875 390.604 564 448 564 c 256
 532.327 564 600 508.469 600 424 c 258
 600 242 l 257
 560 242 l 257
 560 423 l 258
 560 489.686 511.263 524 448 524 c 256
 383.737 524 335 489.686 335 423 c 258
 335 242 l 257
 295 242 l 257
 295 423 l 258
 295 489.686 246.263 524 182 524 c 256
 118.737 524 70 489.686 70 423 c 258
 70 242 l 257
 30 242 l 257
30.0791 192 m 256
 70 192 l 256
 70 127.959 102.888 40 225 40 c 257
 225 0 l 257
 85.7041 0 30 92 30.0791 192 c 256
405 0 m 257
 405 40 l 257
 527.112 40 560 127.959 560 192 c 256
 599.921 192 l 256
 600 92 544.296 0 405 0 c 257
EndSplineSet
PickledDataWithLists: "(dp1
S'com.fontlab.hintData'
p2
(dp3
S'vhints'
p4
(lp5
(dp6
S'position'
p7
I30
sS'width'
p8
I139
sa(dp9
g7
I261
sg8
I128
sa(dp10
g7
I481
sg8
I139
sasS'hhints'
p11
(lp12
(dp13
g7
I0
sg8
I143
sa(dp14
g7
I425
sg8
I139
sass."
EndChar

StartChar: si_GDha
Encoding: 437 -1 124
GlifName: si_G_D_ha
Width: 1050
VWidth: 0
GlyphClass: 2
Flags: W
HStem: -8 140 200 2 241 106 616 138
VStem: 30 141 337 124 506 138 721 100 898 141
LayerCount: 2
Back
Fore
SplineSet
640 0 m 256
 557.107 0 499 52.25 499 133 c 258
 499 307 l 258
 499 387.75 547.107 480 679.667 480 c 258
 699 480 l 257
 719 440 l 257
 679.667 440 l 258
 553.846 440 541 335.941 541 301 c 258
 541 139 l 258
 541 104.059 563.846 40 640 40 c 256
 715.154 40 738 104.059 738 139 c 258
 738 192 l 257
 780 192 l 257
 780 139 l 258
 780 104.059 802.846 40 878 40 c 256
 954.154 40 977 104.059 977 139 c 258
 977 202 l 257
 1019 202 l 257
 1019 133 l 258
 1019 52.25 960.893 0 878 0 c 256
 825.595 0 782.931 21.3961 759 57.9649 c 257
 735.069 21.3961 692.405 3.55271e-15 640 0 c 256
272 -8 m 257
 272 32 l 257
 351.817 32 399.126 66.249 399.126 152.124 c 256
 399.126 199.586 391.498 271 306 271 c 258
 269 271 l 257
 269 311 l 257
 306 311 l 258
 408.232 311 439 233 439 164 c 258
 439 145 l 258
 439 42.873 371.866 -8 272 -8 c 257
216 -8 m 257
 96.7041 -8 30.4199 79.7373 30.0791 216 c 258
 30.0791 340 l 258
 30.4199 476.263 96.7041 564 216 564 c 257
 216 524 l 257
 120.888 524 70 457.857 70 340 c 258
 70 216 l 258
 70 98.1426 123.888 32 216 32 c 257
 216 -8 l 257
252 271 m 256
 252 360 l 258
 252 507.368 379.345 573.144 501.279 573.144 c 256
 605.038 573.144 704.879 525.515 719 440 c 257
 669.079 440 l 257
 657.553 495.542 582.338 527.335 502.167 527.335 c 256
 401.491 527.335 293 477.199 293 361 c 258
 293 271 l 257
 252 271 l 256
977 202 m 256
 977 514 l 258
 977 665.824 905.13 715 787 715 c 257
 787 755 l 257
 951.177 755 1019 675.274 1019 514 c 258
 1019 202 l 256
 977 202 l 256
569.461 630.188 m 257
 529.715 643.683 l 257
 573.391 722.975 649.892 755 731 755 c 257
 731 715 l 257
 662.272 715 602.907 689.847 569.461 630.188 c 257
EndSplineSet
PickledDataWithLists: "(dp1
S'com.fontlab.hintData'
p2
(dp3
S'vhints'
p4
(lp5
(dp6
S'position'
p7
I30
sS'width'
p8
I141
sa(dp9
g7
I337
sg8
I124
sa(dp10
g7
I506
sg8
I138
sa(dp11
g7
I721
sg8
I100
sa(dp12
g7
I898
sg8
I141
sasS'hhints'
p13
(lp14
(dp15
g7
I-8
sg8
I140
sa(dp16
g7
I200
sg8
I2
sa(dp17
g7
I241
sg8
I106
sa(dp18
g7
I616
sg8
I138
sass."
EndChar

StartChar: si_GR.halant
Encoding: 115 -1 127
GlifName: si_G_R_.halant
Width: 703
VWidth: 0
GlyphClass: 2
Flags: W
LayerCount: 2
Back
Fore
SplineSet
383.115 -193.947 m 257
 394.115 -193.947 l 258
 542.115 -193.947 667 -60 606 66 c 257
 640 89 l 257
 711.992 -37.9238 605 -234 395 -234 c 258
 383.115 -233.947 l 257
 383.115 -193.947 l 257
328.115 -233.947 m 257
 310 -234 l 258
 185 -234 40.833 -165.25 40.833 -37.0908 c 257
 80.833 -37.0908 l 257
 80.833 -155.59 245 -194 309 -194 c 258
 328 -194 l 257
 328.115 -233.947 l 257
EndSplineSet
Refer: 123 -1 N 1 0 0 1 0 0 2
EndChar

StartChar: si_GRI
Encoding: 116 -1 128
GlifName: si_G_R_I_
Width: 703
VWidth: 0
GlyphClass: 3
Flags: HW
LayerCount: 2
Back
Fore
SplineSet
383.115 -193.947 m 257
 394.115 -193.947 l 258
 542.115 -193.947 667 -60 606 66 c 257
 640 89 l 257
 711.992 -37.9238 605 -234 395 -234 c 258
 383.115 -233.947 l 257
 383.115 -193.947 l 257
328.115 -233.947 m 257
 310 -234 l 258
 185 -234 40.833 -165.25 40.833 -37.0908 c 257
 80.833 -37.0908 l 257
 80.833 -155.59 245 -194 309 -194 c 258
 328 -194 l 257
 328.115 -233.947 l 257
EndSplineSet
Refer: 125 -1 N 1 0 0 1 0 0 2
Ligature2: "si_abvs_3 subtable" si_GRa si_MatraI
EndChar

StartChar: si_GRIi
Encoding: 117 -1 129
GlifName: si_G_R_I_i
Width: 703
VWidth: 0
GlyphClass: 3
Flags: HW
LayerCount: 2
Back
Fore
SplineSet
383.115 -193.947 m 257
 394.115 -193.947 l 258
 542.115 -193.947 667 -60 606 66 c 257
 640 89 l 257
 711.992 -37.9238 605 -234 395 -234 c 258
 383.115 -233.947 l 257
 383.115 -193.947 l 257
328.115 -233.947 m 257
 310 -234 l 258
 185 -234 40.833 -165.25 40.833 -37.0908 c 257
 80.833 -37.0908 l 257
 80.833 -155.59 245 -194 309 -194 c 258
 328 -194 l 257
 328.115 -233.947 l 257
EndSplineSet
Refer: 126 -1 N 1 0 0 1 0 0 2
Ligature2: "si_abvs_4 subtable" si_GRa si_MatraIi
EndChar

StartChar: si_GRa
Encoding: 114 -1 130
GlifName: si_G_R_a
Width: 703
VWidth: 0
GlyphClass: 3
Flags: W
LayerCount: 2
Back
Fore
SplineSet
383.115 -193.947 m 257
 394.115 -193.947 l 258
 542.115 -193.947 667 -60 606 66 c 257
 640 89 l 257
 711.992 -37.9238 605 -234 395 -234 c 258
 383.115 -233.947 l 257
 383.115 -193.947 l 257
328.115 -233.947 m 257
 310 -234 l 258
 185 -234 40.833 -165.25 40.833 -37.0908 c 257
 80.833 -37.0908 l 257
 80.833 -155.59 245 -194 309 -194 c 258
 328 -194 l 257
 328.115 -233.947 l 257
EndSplineSet
Refer: 133 3484 N 1 0 0 1 0 0 2
Ligature2: "si_rakaar subtable" si_Ga si_Halant si_Ra
EndChar

StartChar: si_GU
Encoding: 111 -1 131
GlifName: si_G_U_
Width: 703
VWidth: 0
GlyphClass: 3
Flags: W
LayerCount: 2
Back
Fore
SplineSet
611.19 -205.003 m 258
 553.365 -205.003 496 -166 496 -57 c 258
 496 -32 l 258
 496 77 553.365 116.003 611.19 116.003 c 258
 673 116 l 257
 673 76 l 257
 611 76 l 258
 547.141 76 536 16 536.018 -30.9844 c 258
 536.018 -58.0156 l 258
 536 -105 547.141 -165 611 -165 c 258
 673 -165 l 257
 673 -205 l 257
 611.19 -205.003 l 258
269 271 m 257
 269 311 l 257
 306 311 l 258
 408.232 311 439 233 439 164 c 258
 439 145 l 258
 439 42.873 371.866 -8 272 -8 c 257
 272 32 l 257
 351.817 32 399.126 66.249 399.126 152.124 c 256
 399.126 199.586 391.498 271 306 271 c 258
 269 271 l 257
216 -8 m 257
 96.7041 -8 30.4199 79.7373 30.0791 216 c 258
 30.0791 340 l 258
 30.4199 476.263 96.7041 564 216 564 c 257
 216 524 l 257
 120.888 524 70 457.857 70 340 c 258
 70 216 l 258
 70 98.1426 123.888 32 216 32 c 257
 216 -8 l 257
252 271 m 256
 252 360 l 258
 252 478.007 309.062 564 431 564 c 257
 431 524 l 257
 324.192 524 293 443 293 361 c 258
 293 271 l 257
 252 271 l 256
633 106 m 256
 633 340 l 258
 633 457.857 582.112 524 487 524 c 257
 487 564 l 257
 606.296 564 672.58 476.263 672.921 340 c 258
 672.921 106 l 256
 633 106 l 256
EndSplineSet
Ligature2: "si_blws_1 subtable" si_Ga si_MatraU
EndChar

StartChar: si_GUu
Encoding: 112 -1 132
GlifName: si_G_U_u
Width: 726
VWidth: 0
GlyphClass: 3
Flags: W
HStem: -8 40<169.944 216 169.944 216 272 311.909> 271 40<252 306 269 293 269 306 269 306> 524 40<168.444 216 377.596 431 487 534.556>
VStem: 30 40 233 41 613 40
LayerCount: 2
Back
Fore
SplineSet
645 -205.003 m 258
 588.875 -205.003 547 -162.81 547 -105 c 258
 546.945 -64 l 258
 546.945 -28.1055 567.889 -5.99219 580 0 c 257
 529 0 l 257
 529 35 l 257
 658 115 l 257
 529 115 l 257
 529 150 l 257
 726 150 l 257
 726 115 l 257
 597 35 l 257
 726 35 l 257
 726 0 l 257
 672 0 l 258
 615.47 0 587 -28.6729 587 -64 c 258
 587 -105 l 258
 587.12 -134.833 602.775 -165 645 -165 c 258
 726 -165 l 257
 726 -205 l 257
 645 -205.003 l 258
272 -8 m 257
 272 32 l 257
 351.817 32 399.126 66.249 399.126 152.124 c 256
 399.126 199.586 391.498 271 306 271 c 258
 269 271 l 257
 269 311 l 257
 306 311 l 258
 408.232 311 439 233 439 164 c 258
 439 145 l 258
 439 42.873 371.866 -8 272 -8 c 257
216 -8 m 257
 96.7041 -8 30.4199 79.7373 30.0791 216 c 258
 30.0791 340 l 258
 30.4199 476.263 96.7041 564 216 564 c 257
 216 524 l 257
 120.888 524 70 457.857 70 340 c 258
 70 216 l 258
 70 98.1426 123.888 32 216 32 c 257
 216 -8 l 257
574 150 m 257
 614.584 150 632.883 165.196 633 197 c 258
 633 340 l 258
 633 458 582.112 524 487 524 c 257
 487 564 l 257
 606.296 564 673 476 672.921 340 c 258
 672.921 198 l 258
 673.021 185.393 669.555 162 660 150 c 257
 574 150 l 257
252 271 m 256
 252 360 l 258
 252 478.007 309.062 564 431 564 c 257
 431 524 l 257
 324.192 524 293 443 293 361 c 258
 293 271 l 257
 252 271 l 256
EndSplineSet
PickledDataWithLists: "(dp1
S'com.fontlab.hintData'
p2
(dp3
S'vhints'
p4
(lp5
(dp6
S'position'
p7
I30
sS'width'
p8
I40
sa(dp9
g7
I233
sg8
I41
sa(dp10
g7
I613
sg8
I40
sasS'hhints'
p11
(lp12
(dp13
g7
I-8
sg8
I40
sa(dp14
g7
I271
sg8
I40
sa(dp15
g7
I524
sg8
I40
sass."
Ligature2: "si_blws_3 subtable" si_Ga si_MatraUu
EndChar

StartChar: si_Ga
Encoding: 23 3484 133
GlifName: si_G_a
Width: 703
VWidth: 0
GlyphClass: 2
Flags: W
HStem: -8 40<169.944 216 169.944 216 272 311.909 487 533.056> 271 40<252 306 269 293 269 306 269 306> 524 40<168.444 216 377.596 431 487 534.556>
VStem: 30 40 233 41 613 40
LayerCount: 2
Back
Fore
SplineSet
269 271 m 257
 269 311 l 257
 306 311 l 258
 408.232 311 439 233 439 164 c 258
 439 145 l 258
 439 42.873 371.866 -8 272 -8 c 257
 272 32 l 257
 351.817 32 399.126 66.249 399.126 152.124 c 256
 399.126 199.586 391.498 271 306 271 c 258
 269 271 l 257
216 -8 m 257
 96.7041 -8 30.4199 79.7373 30.0791 216 c 258
 30.0791 340 l 258
 30.4199 476.263 96.7041 564 216 564 c 257
 216 524 l 257
 120.888 524 70 457.857 70 340 c 258
 70 216 l 258
 70 98.1426 123.888 32 216 32 c 257
 216 -8 l 257
487 -8 m 257
 487 32 l 257
 579.112 32 633 98.1426 633 216 c 258
 633 340 l 258
 633 457.857 582.112 524 487 524 c 257
 487 564 l 257
 606.296 564 672.58 476.263 672.921 340 c 258
 672.921 216 l 258
 672.58 79.7373 606.296 -8 487 -8 c 257
252 271 m 256
 252 360 l 258
 252 478.007 309.062 564 431 564 c 257
 431 524 l 257
 324.192 524 293 443 293 361 c 258
 293 271 l 257
 252 271 l 256
EndSplineSet
PickledDataWithLists: "(dp1
S'com.fontlab.hintData'
p2
(dp3
S'vhints'
p4
(lp5
(dp6
S'position'
p7
I30
sS'width'
p8
I40
sa(dp9
g7
I233
sg8
I41
sa(dp10
g7
I613
sg8
I40
sasS'hhints'
p11
(lp12
(dp13
g7
I-8
sg8
I40
sa(dp14
g7
I271
sg8
I40
sa(dp15
g7
I524
sg8
I40
sass."
EndChar

StartChar: si_GhR.halant
Encoding: 542 -1 139
GlifName: si_G_hR_.halant
Width: 677
VWidth: 0
GlyphClass: 2
Flags: W
LayerCount: 2
Back
Fore
SplineSet
391.115 -193.947 m 257
 398.115 -193.947 l 258
 546.115 -193.947 667 -60 606 66 c 257
 640 89 l 257
 711.992 -37.9238 609 -234 399 -234 c 258
 391.115 -233.947 l 257
 391.115 -193.947 l 257
336.115 -233.947 m 257
 328 -234 l 258
 203 -234 66.833 -165.25 66.833 -37.0908 c 257
 106.833 -37.0908 l 257
 106.833 -155.59 263 -194 327 -194 c 258
 336 -194 l 257
 336.115 -233.947 l 257
EndSplineSet
Refer: 160 3530 N 1 0 0 1 452 0 2
Refer: 145 3485 N 1 0 0 1 0 0 2
EndChar

StartChar: si_GhRI
Encoding: 124 -1 140
GlifName: si_G_hR_I_
Width: 687
VWidth: 0
GlyphClass: 3
Flags: HW
LayerCount: 2
Back
Fore
SplineSet
391.115 -193.947 m 257
 398.115 -193.947 l 258
 546.115 -193.947 667 -60 606 66 c 257
 640 89 l 257
 711.992 -37.9238 609 -234 399 -234 c 258
 391.115 -233.947 l 257
 391.115 -193.947 l 257
336.115 -233.947 m 257
 328 -234 l 258
 203 -234 66.833 -165.25 66.833 -37.0908 c 257
 106.833 -37.0908 l 257
 106.833 -155.59 263 -194 327 -194 c 258
 336 -194 l 257
 336.115 -233.947 l 257
EndSplineSet
Refer: 137 -1 N 1 0 0 1 0 0 2
Ligature2: "si_abvs_3 subtable" si_GhRa si_MatraI
EndChar

StartChar: si_GhRIi
Encoding: 125 -1 141
GlifName: si_G_hR_I_i
Width: 677
VWidth: 0
GlyphClass: 3
Flags: HW
LayerCount: 2
Back
Fore
SplineSet
391.115 -193.947 m 257
 398.115 -193.947 l 258
 546.115 -193.947 667 -60 606 66 c 257
 640 89 l 257
 711.992 -37.9238 609 -234 399 -234 c 258
 391.115 -233.947 l 257
 391.115 -193.947 l 257
336.115 -233.947 m 257
 328 -234 l 258
 203 -234 66.833 -165.25 66.833 -37.0908 c 257
 106.833 -37.0908 l 257
 106.833 -155.59 263 -194 327 -194 c 258
 336 -194 l 257
 336.115 -233.947 l 257
EndSplineSet
Refer: 138 -1 N 1 0 0 1 0 0 2
Ligature2: "si_abvs_4 subtable" si_GhRa si_MatraIi
EndChar

StartChar: si_GhRa
Encoding: 126 -1 142
GlifName: si_G_hR_a
Width: 677
VWidth: 0
GlyphClass: 3
Flags: W
LayerCount: 2
Back
Fore
SplineSet
391.115 -193.947 m 257
 398.115 -193.947 l 258
 546.115 -193.947 667 -60 606 66 c 257
 640 89 l 257
 711.992 -37.9238 609 -234 399 -234 c 258
 391.115 -233.947 l 257
 391.115 -193.947 l 257
336.115 -233.947 m 257
 328 -234 l 258
 203 -234 66.833 -165.25 66.833 -37.0908 c 257
 106.833 -37.0908 l 257
 106.833 -155.59 263 -194 327 -194 c 258
 336 -194 l 257
 336.115 -233.947 l 257
EndSplineSet
Refer: 145 3485 N 1 0 0 1 0 0 2
Ligature2: "si_rakaar subtable" si_Gha si_Halant si_Ra
EndChar

StartChar: si_GhU
Encoding: 121 -1 143
GlifName: si_G_hU_
Width: 677
VWidth: 0
GlyphClass: 3
Flags: W
LayerCount: 2
Back
Fore
SplineSet
584 51 m 257
 624 111 l 257
 624 -205 l 257
 584 -205 l 257
 584 51 l 257
388 -165 m 257
 598 -165 l 257
 598 -205 l 257
 388 -205 l 257
 388 -165 l 257
90 -165 m 257
 332 -165 l 257
 332 -205 l 257
 90 -205 l 257
 90 -165 l 257
EndSplineSet
Refer: 145 3485 N 1 0 0 1 0 0 2
Ligature2: "si_blws_1 subtable" si_Gha si_MatraU
EndChar

StartChar: si_GhUu
Encoding: 122 -1 144
GlifName: si_G_hU_u
Width: 677
VWidth: 0
GlyphClass: 3
Flags: W
LayerCount: 2
Back
Fore
SplineSet
82 -122 m 257
 118.512 -153.983 147.53 -164.643 173.712 -164.643 c 256
 226.074 -164.643 267.088 -122 334 -122 c 257
 334 -164 l 257
 267.021 -164 225.538 -204.871 173.197 -204.871 c 256
 147.027 -204.871 118.142 -194.653 82 -164 c 257
 82 -122 l 257
584 51 m 257
 624 111 l 257
 624 -205 l 257
 584 -205 l 257
 584 51 l 257
389 -122 m 257
 418.143 -122 454.825 -121.922 584 -161 c 257
 584 -205 l 257
 437.841 -158.509 397.06 -164 389 -164 c 257
 389 -122 l 257
EndSplineSet
Refer: 145 3485 N 1 0 0 1 0 0 2
Ligature2: "si_blws_3 subtable" si_Gha si_MatraUu
EndChar

StartChar: si_Gha
Encoding: 24 3485 145
GlifName: si_G_ha
Width: 677
VWidth: 0
GlyphClass: 2
Flags: W
HStem: -11 143 101 103 251 151 283 119 378 24 451 124
VStem: 67 139 283 158 298 128 518 139
LayerCount: 2
Back
Fore
SplineSet
204.925 0.210736 m 256
 141.034 0.210736 77 47.0178 77 139 c 258
 77 192 l 257
 117 192 l 257
 117 139 l 258
 117 71.4303 160.93 36.9291 204.77 36.9291 c 256
 268.43 36.9291 292 71.1478 292 141 c 256
 292 182.986 307.348 204.04 362.521 204.04 c 256
 362.521 204.04 362.521 204.04 362.521 204.04 c 256
 417.347 204.04 432 183.4 432 142 c 256
 432 71.3093 455.454 37.0534 519.055 37.0534 c 256
 562.953 37.0534 607 71.7768 607 139 c 258
 607 192 l 257
 647 192 l 257
 647 139 l 258
 647 47.2289 583.021 0.335973 519.156 0.335973 c 256
 435.521 0.335973 392 46.8929 392 142 c 256
 392 158.857 387.245 167.322 362.369 167.322 c 256
 337.247 167.322 332 158.574 332 141 c 256
 332 46.6037 288.533 0.210736 204.925 0.210736 c 256
84 477 m 257
 109.707 541.871 170.119 564 234 564 c 256
 270.661 564 331.651 551.303 363 497.885 c 257
 394.349 551.303 455.339 564 492 564 c 256
 555.881 564 616.293 541.871 642 477 c 257
 603 464 l 257
 589.527 500.315 554.579 524 492 524 c 256
 413.793 524 383 469 383 415 c 258
 383 379 l 257
 343 379 l 257
 343 415 l 258
 343 469 312.207 524 234 524 c 256
 171.421 524 136.473 500.315 123 464 c 257
 84 477 l 257
30 362 m 257
 30 402 l 257
 531 402 l 257
 641.795 402 647 336.857 647 288 c 258
 647 241 l 257
 607 241 l 257
 607 288 l 258
 607 354.575 568.369 362 532 362 c 257
 192 362 l 257
 155.631 362 117 354.575 117 288 c 258
 117 241 l 257
 77 241 l 257
 77 288 l 258
 77 319.714 83.819 350.654 105 362 c 257
 30 362 l 257
EndSplineSet
PickledDataWithLists: "(dp1
S'com.fontlab.hintData'
p2
(dp3
S'vhints'
p4
(lp5
(dp6
S'position'
p7
I67
sS'width'
p8
I139
sa(dp9
g7
I283
sg8
I158
sa(dp10
g7
I298
sg8
I128
sa(dp11
g7
I518
sg8
I139
sasS'hhints'
p12
(lp13
(dp14
g7
I-11
sg8
I143
sa(dp15
g7
I101
sg8
I103
sa(dp16
g7
I251
sg8
I151
sa(dp17
g7
I283
sg8
I119
sa(dp18
g7
I378
sg8
I24
sa(dp19
g7
I451
sg8
I124
sass."
EndChar

StartChar: si_HR.halant
Encoding: 410 -1 151
GlifName: si_H_R_.halant
Width: 703
VWidth: 0
GlyphClass: 2
Flags: W
LayerCount: 2
Back
Fore
SplineSet
383.115 -193.947 m 257
 394.115 -193.947 l 258
 542.115 -193.947 667 -60 606 66 c 257
 640 89 l 257
 711.992 -37.9238 605 -234 395 -234 c 258
 383.115 -233.947 l 257
 383.115 -193.947 l 257
328.115 -233.947 m 257
 310 -234 l 258
 185 -234 40.833 -165.25 40.833 -37.0908 c 257
 80.833 -37.0908 l 257
 80.833 -155.59 245 -194 309 -194 c 258
 328 -194 l 257
 328.115 -233.947 l 257
EndSplineSet
Refer: 148 -1 N 1 0 0 1 0 0 2
EndChar

StartChar: si_HRI
Encoding: 412 -1 152
GlifName: si_H_R_I_
Width: 703
VWidth: 0
GlyphClass: 2
Flags: HW
LayerCount: 2
Back
Fore
SplineSet
383.115 -193.947 m 257
 394.115 -193.947 l 258
 542.115 -193.947 667 -60 606 66 c 257
 640 89 l 257
 711.992 -37.9238 605 -234 395 -234 c 258
 383.115 -233.947 l 257
 383.115 -193.947 l 257
328.115 -233.947 m 257
 310 -234 l 258
 185 -234 40.833 -165.25 40.833 -37.0908 c 257
 80.833 -37.0908 l 257
 80.833 -155.59 245 -194 309 -194 c 258
 328 -194 l 257
 328.115 -233.947 l 257
EndSplineSet
Refer: 149 -1 N 1 0 0 1 0 0 2
EndChar

StartChar: si_HRIi
Encoding: 413 -1 153
GlifName: si_H_R_I_i
Width: 703
VWidth: 0
GlyphClass: 3
Flags: HW
LayerCount: 2
Back
Fore
SplineSet
383.115 -193.947 m 257
 394.115 -193.947 l 258
 542.115 -193.947 667 -60 606 66 c 257
 640 89 l 257
 711.992 -37.9238 605 -234 395 -234 c 258
 383.115 -233.947 l 257
 383.115 -193.947 l 257
328.115 -233.947 m 257
 310 -234 l 258
 185 -234 40.833 -165.25 40.833 -37.0908 c 257
 80.833 -37.0908 l 257
 80.833 -155.59 245 -194 309 -194 c 258
 328 -194 l 257
 328.115 -233.947 l 257
EndSplineSet
Refer: 150 -1 N 1 0 0 1 0 0 2
Ligature2: "si_abvs_4 subtable" si_HRa si_MatraIi
EndChar

StartChar: si_HRa
Encoding: 411 -1 154
GlifName: si_H_R_a
Width: 703
VWidth: 0
GlyphClass: 3
Flags: W
LayerCount: 2
Back
Fore
SplineSet
383.115 -193.947 m 257
 394.115 -193.947 l 258
 542.115 -193.947 667 -60 606 66 c 257
 640 89 l 257
 711.992 -37.9238 605 -234 395 -234 c 258
 383.115 -233.947 l 257
 383.115 -193.947 l 257
328.115 -233.947 m 257
 310 -234 l 258
 185 -234 40.833 -165.25 40.833 -37.0908 c 257
 80.833 -37.0908 l 257
 80.833 -155.59 245 -194 309 -194 c 258
 328 -194 l 257
 328.115 -233.947 l 257
EndSplineSet
Refer: 157 3524 N 1 0 0 1 0 0 2
Ligature2: "si_rakaar subtable" si_Ha si_Halant si_Ra
EndChar

StartChar: si_HU
Encoding: 407 -1 155
GlifName: si_H_U_
Width: 703
VWidth: 0
GlyphClass: 3
Flags: W
LayerCount: 2
Back
Fore
SplineSet
599 51 m 257
 639 111 l 257
 639 -205 l 257
 599 -205 l 257
 599 51 l 257
399 -165 m 257
 613 -165 l 257
 613 -205 l 257
 399 -205 l 257
 399 -165 l 257
105 -165 m 257
 343 -165 l 257
 343 -205 l 257
 105 -205 l 257
 105 -165 l 257
EndSplineSet
Refer: 157 3524 N 1 0 0 1 0 0 2
Ligature2: "si_blws_1 subtable" si_Ha si_MatraU
EndChar

StartChar: si_HUu
Encoding: 408 -1 156
GlifName: si_H_U_u
Width: 703
VWidth: 0
GlyphClass: 3
Flags: W
LayerCount: 2
Back
Fore
SplineSet
81 -122 m 257
 117.512 -153.982 146.53 -164.643 172.712 -164.643 c 256
 225.074 -164.643 266.088 -122 333 -122 c 257
 333 -164 l 257
 266.021 -164 224.538 -204.871 172.197 -204.871 c 256
 146.027 -204.871 117.143 -194.653 81 -164 c 257
 81 -122 l 257
583 51 m 257
 623 111 l 257
 623 -205 l 257
 583 -205 l 257
 583 51 l 257
388 -122 m 257
 417.143 -122 453.825 -121.922 583 -161 c 257
 583 -205 l 257
 436.841 -158.509 396.06 -164 388 -164 c 257
 388 -122 l 257
EndSplineSet
Refer: 157 3524 N 1 0 0 1 0 0 2
Ligature2: "si_blws_3 subtable" si_Ha si_MatraUu
EndChar

StartChar: si_Ha
Encoding: 59 3524 157
GlifName: si_H_a
Width: 703
VWidth: 0
GlyphClass: 2
Flags: W
HStem: -8 40<169.944 216 169.944 216 272 311.909 487 533.056> 271 40<293 306> 394 40<168.444 255 255 255 255 295> 524 40<377.596 431 487 534.556>
VStem: 30 40 210 6 252 41<311 311 311 360 360 361> 399 40 633 40
LayerCount: 2
Back
Fore
SplineSet
293 311 m 257
 408.232 311 439 233 439 164 c 258
 439 145 l 258
 439 42.873 371.866 -8 272 -8 c 257
 272 32 l 257
 351.817 32 399.126 66.249 399.126 152.124 c 256
 399.126 199.586 391.498 271 306 271 c 258
 252 271 l 257
 252 360 l 258
 252 478.007 309.062 564 431 564 c 257
 431 524 l 257
 324.192 524 293 443 293 361 c 258
 293 311 l 257
487 -8 m 257
 487 32 l 257
 579.112 32 633 98.1426 633 216 c 258
 633 340 l 258
 633 457.857 582.112 524 487 524 c 257
 487 564 l 257
 606.296 564 672.58 476.263 672.921 340 c 258
 672.921 216 l 258
 672.58 79.7373 606.296 -8 487 -8 c 257
216 -8 m 257
 96.7041 -8 30.4199 79.7373 30.0791 196 c 258
 30.0791 250 l 258
 30.0791 374 85 434 215 433.95 c 257
 255 434 l 257
 254.714 492.658 205.87 523.116 158.351 523.116 c 256
 123.821 523.116 89.9904 507.033 76 474 c 257
 37 484 l 257
 50.7598 536.927 104.095 563.996 158.724 563.996 c 256
 225.887 563.996 295.004 523.08 294.932 439 c 258
 295 394 l 257
 216 394 l 258
 120.888 394 70 357.857 70 250 c 258
 70 196 l 258
 70 98.1426 123.888 32 216 32 c 257
 216 -8 l 257
EndSplineSet
PickledDataWithLists: "(dp1
S'com.fontlab.hintData'
p2
(dp3
S'vhints'
p4
(lp5
(dp6
S'position'
p7
I30
sS'width'
p8
I40
sa(dp9
g7
I210
sg8
I6
sa(dp10
g7
I252
sg8
I41
sa(dp11
g7
I399
sg8
I40
sa(dp12
g7
I633
sg8
I40
sasS'hhints'
p13
(lp14
(dp15
g7
I-8
sg8
I40
sa(dp16
g7
I271
sg8
I40
sa(dp17
g7
I394
sg8
I40
sa(dp18
g7
I524
sg8
I40
sass."
EndChar

StartChar: si_Halant
Encoding: 62 3530 160
GlifName: si_H_alant
Width: 100
VWidth: 0
GlyphClass: 2
Flags: W
HStem: 619 200<30.001 70.001 30.001 70.001>
VStem: 30 40
LayerCount: 2
Back
Fore
SplineSet
30.001 619 m 257
 30.001 819 l 257
 70.001 819 l 257
 70.001 619 l 257
 30.001 619 l 257
EndSplineSet
PickledDataWithLists: "(dp1
S'com.fontlab.hintData'
p2
(dp3
S'vhints'
p4
(lp5
(dp6
S'position'
p7
I30
sS'width'
p8
I40
sasS'hhints'
p9
(lp10
(dp11
g7
I619
sg8
I200
sass."
EndChar

StartChar: si_I
Encoding: 7 3465 161
GlifName: si_I_
Width: 555
VWidth: 0
GlyphClass: 2
Flags: W
HStem: -204 126 0 128 176 140 428 141
VStem: 30 138 402 137
LayerCount: 2
Back
Fore
SplineSet
192 0 m 257
 192 40 l 257
 201.667 40 243.333 40 253 40 c 256
 338.2 40 485 92.9551 485 259 c 258
 485 380 l 258
 485 499.888 362 529 308 529 c 256
 308 569 l 256
 324 569 l 257
 427.754 569 525 496.126 525 380 c 258
 525 259 l 258
 525 105.834 417.519 0 253 0 c 258
 192 0 l 257
71 -76 m 257
 110 -66 l 257
 126.45 -133.627 182.154 -164.281 237.803 -164.281 c 256
 303.94 -164.281 370 -120.985 370 -45 c 257
 410 -45 l 257
 410 -151.097 326.547 -203.964 241.978 -203.964 c 256
 165.936 -203.964 88.9912 -161.221 71 -76 c 257
30 292 m 258
 30 387 l 258
 30 492.126 133.246 569 237 569 c 257
 253 569 l 256
 253 529 l 257
 237 529 l 257
 195.286 529 72.1562 489.334 72 387.5 c 258
 71.9033 292 l 258
 71.9521 242 118.976 217 165.988 217 c 256
 213 217 260 242 260 292 c 258
 260 365 l 257
 300 365 l 257
 300 292 l 258
 300 213.563 232.608 174.437 165.161 174.437 c 256
 97.6084 174.437 30 213.688 30 292 c 258
EndSplineSet
PickledDataWithLists: "(dp1
S'com.fontlab.hintData'
p2
(dp3
S'vhints'
p4
(lp5
(dp6
S'position'
p7
I30
sS'width'
p8
I138
sa(dp9
g7
I402
sg8
I137
sasS'hhints'
p10
(lp11
(dp12
g7
I-204
sg8
I126
sa(dp13
g7
I0
sg8
I128
sa(dp14
g7
I176
sg8
I140
sa(dp15
g7
I428
sg8
I141
sass."
EndChar

StartChar: si_Ii
Encoding: 8 3466 162
GlifName: si_I_i
Width: 526
VWidth: 0
GlyphClass: 2
Flags: W
HStem: -6 145 587 145 697 145
VStem: 30 140 50 146<749.502 789.002> 375 140 463 146
LayerCount: 2
Back
Fore
SplineSet
350 667 m 256
 350 707 383 740 423 740 c 256
 463 740 496 707 496 667 c 256
 496 628 463 595 423 595 c 256
 383 595 350 628 350 667 c 256
50 769.002 m 256
 50 809.002 83 842.002 123 842.002 c 256
 163 842.002 196 809.002 196 769.002 c 256
 196 730.002 163 697.002 123 697.002 c 256
 83 697.002 50 730.002 50 769.002 c 256
EndSplineSet
Refer: 407 3515 N 1 0 0 1 0 0 2
PickledDataWithLists: "(dp1
S'com.fontlab.hintData'
p2
(dp3
S'vhints'
p4
(lp5
(dp6
S'position'
p7
I30
sS'width'
p8
I140
sa(dp9
g7
I50
sg8
I146
sa(dp10
g7
I375
sg8
I140
sa(dp11
g7
I463
sg8
I146
sasS'hhints'
p12
(lp13
(dp14
g7
I-6
sg8
I145
sa(dp15
g7
I587
sg8
I145
sa(dp16
g7
I697
sg8
I145
sass."
EndChar

StartChar: si_J.halant
Encoding: 150 -1 163
GlifName: si_J_.halant
Width: 620
VWidth: 0
GlyphClass: 3
Flags: W
HStem: 619 200
VStem: 32 136
LayerCount: 2
Back
Fore
SplineSet
310.001 489 m 257
 310.001 819 l 257
 350.001 819 l 257
 350.001 526 l 257
 317.685 489 l 257
 310.001 489 l 257
EndSplineSet
Refer: 172 3490 N 1 0 0 1 0 0 2
PickledDataWithLists: "(dp1
S'com.fontlab.hintData'
p2
(dp3
S'vhints'
p4
(lp5
(dp6
S'position'
p7
I32
sS'width'
p8
I136
sasS'hhints'
p9
(lp10
(dp11
g7
I619
sg8
I200
sass."
Ligature2: "si_halant_1 subtable" si_Ja si_Halant
EndChar

StartChar: si_JI
Encoding: 151 -1 164
GlifName: si_J_I_
Width: 620
VWidth: 0
GlyphClass: 3
Flags: W
LayerCount: 2
Back
Fore
SplineSet
293 579 m 257
 276.26 591.679 l 257
 219.657 634.538 220.394 686.266 265.066 745.26 c 257
 305 798 l 257
 349.671 856.994 400.997 874.021 457.6 831.159 c 257
 474.341 818.482 l 257
 449.935 786.209 l 257
 419.638 809.149 382.988 835.355 343.747 783.535 c 257
 291.229 714.178 l 257
 251.988 662.355 287.153 634.184 317.446 611.244 c 257
 293 579 l 257
EndSplineSet
Refer: 172 3490 N 1 0 0 1 -2 0 2
Ligature2: "si_abvs_1 subtable" si_Ja si_MatraI
EndChar

StartChar: si_JIi
Encoding: 152 -1 165
GlifName: si_J_I_i
Width: 620
VWidth: 0
GlyphClass: 3
Flags: W
LayerCount: 2
Back
Fore
SplineSet
293 579 m 257
 276.26 591.679 l 258
 219.657 634.538 220.394 686.266 265.066 745.26 c 258
 305 798 l 258
 348 856 412 918 484.452 858.739 c 256
 520.408 831.801 527.692 781.001 500.754 745.045 c 256
 473.815 709.089 423.016 701.806 387.06 728.744 c 256
 364.288 745.805 353.017 771.437 354.655 797.807 c 257
 291.229 714.178 l 258
 251.988 662.355 287.153 634.184 317.446 611.244 c 257
 293 579 l 257
EndSplineSet
Refer: 172 3490 N 1 0 0 1 0 0 2
Ligature2: "si_abvs_2 subtable" si_Ja si_MatraIi
EndChar

StartChar: si_JR.halant
Encoding: 156 -1 166
GlifName: si_J_R_.halant
Width: 620
VWidth: 0
GlyphClass: 2
Flags: W
LayerCount: 2
Back
Fore
SplineSet
339.115 -193.947 m 257
 503.148 -193.947 601.99 -62.1112 536 66 c 257
 570 89 l 257
 644.297 -41.9865 558 -234 339.115 -233.947 c 257
 339.115 -193.947 l 257
284 -234 m 257
 153.885 -234.053 30.833 -168.776 30.833 -37.0908 c 257
 70.833 -37.0908 l 257
 70.833 -163.737 203 -194 284 -194 c 257
 284 -234 l 257
EndSplineSet
Refer: 163 -1 N 1 0 0 1 0 0 2
EndChar

StartChar: si_JRI
Encoding: 158 -1 167
GlifName: si_J_R_I_
Width: 620
VWidth: 0
GlyphClass: 3
Flags: W
LayerCount: 2
Back
Fore
SplineSet
339.115 -193.947 m 257
 503.148 -193.947 601.99 -62.1112 536 66 c 257
 570 89 l 257
 644.297 -41.9865 558 -234 339.115 -233.947 c 257
 339.115 -193.947 l 257
284 -234 m 257
 153.885 -234.053 30.833 -168.776 30.833 -37.0908 c 257
 70.833 -37.0908 l 257
 70.833 -163.737 203 -194 284 -194 c 257
 284 -234 l 257
EndSplineSet
Refer: 164 -1 N 1 0 0 1 0 0 2
Ligature2: "si_abvs_3 subtable" si_JRa si_MatraI
EndChar

StartChar: si_JRIi
Encoding: 159 -1 168
GlifName: si_J_R_I_i
Width: 620
VWidth: 0
GlyphClass: 3
Flags: W
LayerCount: 2
Back
Fore
SplineSet
339.115 -193.947 m 257
 503.148 -193.947 601.99 -62.1112 536 66 c 257
 570 89 l 257
 644.297 -41.9865 558 -234 339.115 -233.947 c 257
 339.115 -193.947 l 257
284 -234 m 257
 153.885 -234.053 30.833 -168.776 30.833 -37.0908 c 257
 70.833 -37.0908 l 257
 70.833 -163.737 203 -194 284 -194 c 257
 284 -234 l 257
EndSplineSet
Refer: 165 -1 N 1 0 0 1 0 0 2
Ligature2: "si_abvs_4 subtable" si_JRa si_MatraIi
EndChar

StartChar: si_JRa
Encoding: 157 -1 169
GlifName: si_J_R_a
Width: 620
VWidth: 0
GlyphClass: 3
Flags: W
LayerCount: 2
Back
Fore
SplineSet
339.115 -193.947 m 257
 503.148 -193.947 601.99 -62.1112 536 66 c 257
 570 89 l 257
 644.297 -41.9865 558 -234 339.115 -233.947 c 257
 339.115 -193.947 l 257
284 -234 m 257
 153.885 -234.053 30.833 -168.776 30.833 -37.0908 c 257
 70.833 -37.0908 l 257
 70.833 -163.737 203 -194 284 -194 c 257
 284 -234 l 257
EndSplineSet
Refer: 172 3490 N 1 0 0 1 0 0 2
Ligature2: "si_rakaar subtable" si_Ja si_Halant si_Ra
EndChar

StartChar: si_JU
Encoding: 153 -1 170
GlifName: si_J_U_
Width: 620
VWidth: 0
GlyphClass: 3
Flags: W
LayerCount: 2
Back
Fore
SplineSet
45 -165 m 257
 282 -165 l 257
 282 -205 l 257
 45 -205 l 257
 45 -165 l 257
338 -165 m 257
 543 -165 l 257
 543 -205 l 257
 338 -205 l 257
 338 -165 l 257
529 51 m 257
 569 111 l 257
 569 -205 l 257
 529 -205 l 257
 529 51 l 257
EndSplineSet
Refer: 172 3490 N 1 0 0 1 0 0 2
Ligature2: "si_blws_1 subtable" si_Ja si_MatraU
EndChar

StartChar: si_JUu
Encoding: 154 -1 171
GlifName: si_J_U_u
Width: 620
VWidth: 0
GlyphClass: 3
Flags: W
LayerCount: 2
Back
Fore
SplineSet
40 -122 m 257
 76.5117 -153.982 106.641 -164.643 133.563 -164.643 c 256
 187.408 -164.643 228.421 -122 282 -122 c 257
 282 -164 l 257
 228.355 -164 186.871 -204.871 133.049 -204.871 c 256
 106.138 -204.871 76.1426 -194.653 40 -164 c 257
 40 -122 l 257
338 -122 m 257
 367.143 -122 403.825 -121.922 533 -161 c 257
 533 -205 l 257
 386.841 -158.509 346.06 -164 338 -164 c 257
 338 -122 l 257
533 51 m 257
 573 111 l 257
 573 -205 l 257
 533 -205 l 257
 533 51 l 257
EndSplineSet
Refer: 172 3490 N 1 0 0 1 0 0 2
Ligature2: "si_blws_3 subtable" si_Ja si_MatraUu
EndChar

StartChar: si_Ja
Encoding: 29 3490 172
GlifName: si_J_a
Width: 620
VWidth: 0
GlyphClass: 2
Flags: W
HStem: -12 135 378 24 451 124
VStem: 34 140 250 128 454 140
LayerCount: 2
Back
Fore
SplineSet
31 477 m 257
 56.707 541.871 117.119 564 181 564 c 256
 217.661 564 278.651 551.303 310 497.885 c 257
 341.349 551.303 402.339 564 439 564 c 256
 502.881 564 563.293 541.871 589 477 c 257
 550 464 l 257
 536.527 500.315 501.579 524 439 524 c 256
 360.793 524 330 469 330 415 c 258
 330 379 l 257
 290 379 l 257
 290 415 l 258
 290 469 259.207 524 181 524 c 256
 118.421 524 83.4727 500.315 70 464 c 257
 31 477 l 257
279 -6 m 258
 102 -6 30 49.7461 30 192.5 c 257
 70 192.5 l 257
 70 61.3008 146 34 279 34 c 258
 341 34 l 258
 474 34 550 62.3008 550 192.5 c 257
 590 192.5 l 257
 590 49.7461 518 -6 341 -6 c 258
 279 -6 l 258
30 242 m 257
 30 364 97 402 194 402 c 258
 419 402 l 258
 527 402 590 368 590 242 c 257
 550 242 l 257
 550 320 530 362 421 362 c 258
 195 362 l 258
 85.7383 362 70.001 308.104 70 242 c 257
 30 242 l 257
304 490 m 257
 527.721 785 l 257
 567 774 l 257
 332 465 l 257
 304 490 l 257
EndSplineSet
PickledDataWithLists: "(dp1
S'com.fontlab.hintData'
p2
(dp3
S'vhints'
p4
(lp5
(dp6
S'position'
p7
I34
sS'width'
p8
I140
sa(dp9
g7
I250
sg8
I128
sa(dp10
g7
I454
sg8
I140
sasS'hhints'
p11
(lp12
(dp13
g7
I-12
sg8
I135
sa(dp14
g7
I378
sg8
I24
sa(dp15
g7
I451
sg8
I124
sass."
EndChar

StartChar: si_Ja.reph
Encoding: 155 -1 173
GlifName: si_J_a.reph
Width: 620
VWidth: 0
GlyphClass: 3
Flags: W
LayerCount: 2
Back
Fore
SplineSet
230 587.853 m 256
 160.198 587.853 121.863 642.178 121.863 698.155 c 256
 121.863 757.645 165.16 819 260 819 c 258
 320 819 l 258
 400.645 819 460 771.21 460 699.75 c 258
 460.047 667.75 l 257
 420.047 617.853 l 257
 420.047 701.853 l 257
 420.047 770.937 351.703 778.853 320 778.853 c 258
 260 778.853 l 258
 190.464 778.853 159.96 737.664 159.96 698.311 c 256
 159.96 662.313 185.481 627.853 230 627.853 c 256
 294 627.853 295.047 683.853 295.047 696.853 c 257
 335.047 696.853 l 257
 335.047 646.985 314.963 587.853 230 587.853 c 256
EndSplineSet
Refer: 172 3490 N 1 0 0 1 0 0 2
Ligature2: "si_abvs_7 subtable" si_Ja si_Reph
EndChar

StartChar: si_Jh.halant
Encoding: 160 -1 175
GlifName: si_J_h.halant
Width: 1103
VWidth: 0
GlyphClass: 3
Flags: W
LayerCount: 2
Back
Fore
SplineSet
848 779 m 257
 848 819 l 257
 925 819 l 258
 1003.36 819 1058.33 776 1058.33 673 c 257
 1018.33 673 l 257
 1018.33 770 970.333 779 925 779 c 258
 848 779 l 257
1031 241 m 256
 1031 411 l 258
 1031 558.715 961.056 612 848 612 c 257
 848 652 l 257
 1007.37 652 1073 568.037 1073 411 c 258
 1073 241 l 256
 1031 241 l 256
33 452 m 257
 64.0312 533.159 124.235 565.088 181.841 565.088 c 256
 244.9 565.088 304.845 526.827 320 473 c 257
 289 445 l 257
 276.237 490.735 229.535 521.199 181.232 521.199 c 256
 138.707 521.199 94.9414 497.588 72 440 c 257
 33 452 l 257
30 196 m 257
 30 246 l 257
 320 494 l 257
 389.698 548.094 472.16 577.395 547.339 577.395 c 256
 638.535 577.395 719.016 534.279 753 440 c 257
 706 440 l 257
 679.113 505.605 614.181 538.284 540.39 538.284 c 256
 476.96 538.284 406.983 514.137 349 466 c 257
 69 225 l 257
 30 196 l 257
694 0 m 256
 611.107 0 553 52.25 553 133 c 258
 553 307 l 258
 553 387.75 601.107 480 723.667 480 c 258
 729 480 l 257
 753 440 l 257
 733.667 440 l 258
 607.846 440 595 335.941 595 301 c 258
 595 139 l 258
 595 104.059 617.846 40 694 40 c 256
 769.154 40 792 104.059 792 139 c 258
 792 192 l 257
 834 192 l 257
 834 139 l 258
 834 104.059 856.846 40 932 40 c 256
 1008.15 40 1031 104.059 1031 139 c 258
 1031 242 l 257
 1073 242 l 257
 1073 133 l 258
 1073 52.25 1014.89 0 932 0 c 256
 879.595 0 836.931 21.3961 813 57.9649 c 257
 789.069 21.3961 746.405 3.55271e-15 694 0 c 256
30 196 m 257
 30 246 l 257
 100 237 105.981 184.713 106 166 c 257
 106 114 l 258
 106 65.1681 146.371 37.5337 185.225 37.5337 c 256
 221.265 37.5337 256 61.31 256 114 c 258
 256 192 l 257
 295.88 192 l 257
 296 114 l 258
 296.081 61.336 334.791 37.5447 374.917 37.5447 c 256
 418.136 37.5447 462.998 65.1464 463 114 c 258
 463.004 240 l 258
 463.004 331.199 426 355 326.776 369.904 c 257
 365 403 l 257
 441 391 503 361.827 503 240 c 258
 503 114 l 258
 503 35.0935 445.06 -3.77233 381.868 -3.77233 c 256
 344.851 -3.77233 306.032 9.56382 276 36 c 257
 250.392 8.16971 216.603 -4.77248 183.589 -4.77248 c 256
 122.991 -4.77248 65.0029 38.8293 65.0029 114 c 258
 65.0488 146.19 l 258
 65.0488 167.92 63.5771 199 44 199 c 256
 40.7168 199 34.2529 197.3 30 196 c 257
575.333 612 m 257
 575.333 652 l 257
 605.822 652 l 257
 591.899 670.111 584.977 692.449 584.977 714.83 c 256
 584.977 766.802 622.309 819 696 819 c 258
 791.667 819 l 257
 791.667 779 l 257
 686 779 l 258
 644.071 779 622.881 747.025 622.881 715.163 c 256
 622.881 683.526 643.774 652 686 652 c 258
 792 652 l 257
 792 612 l 257
 575.333 612 l 257
EndSplineSet
Ligature2: "si_halant_1 subtable" si_Jha si_Halant
EndChar

StartChar: si_JhI
Encoding: 161 -1 176
GlifName: si_J_hI_
Width: 1103
VWidth: 0
GlyphClass: 3
Flags: W
LayerCount: 2
Back
Fore
SplineSet
183.589 -4.77248 m 256
 122.991 -4.77248 65.0029 38.8293 65.0029 114 c 258
 65.0488 146.19 l 258
 65.0488 167.92 63.5771 199 44 199 c 256
 40.7168 199 34.2529 197.3 30 196 c 257
 30 246 l 257
 100 237 105.981 184.713 106 166 c 257
 106 114 l 258
 106 65.1681 146.371 37.5337 185.225 37.5337 c 256
 221.265 37.5337 256 61.31 256 114 c 258
 256 192 l 257
 295.88 192 l 257
 296 114 l 258
 296.081 61.336 334.791 37.5447 374.917 37.5447 c 256
 418.136 37.5447 462.998 65.1464 463 114 c 258
 463.004 240 l 258
 463.004 331.199 426 355 326.776 369.904 c 257
 365 403 l 257
 441 391 503 361.827 503 240 c 258
 503 114 l 258
 503 35.0935 445.06 -3.77233 381.868 -3.77233 c 256
 344.851 -3.77233 306.032 9.56382 276 36 c 257
 250.392 8.16971 216.603 -4.77248 183.589 -4.77248 c 256
694 0 m 256
 611.107 0 553 52.25 553 133 c 258
 553 307 l 258
 553 387.75 601.107 480 723.667 480 c 258
 729 480 l 257
 753 440 l 257
 733.667 440 l 258
 607.846 440 595 335.941 595 301 c 258
 595 139 l 258
 595 104.059 617.846 40 694 40 c 256
 769.154 40 792 104.059 792 139 c 258
 792 192 l 257
 834 192 l 257
 834 139 l 258
 834 104.059 856.846 40 932 40 c 256
 1008.15 40 1031 104.059 1031 139 c 258
 1031 242 l 257
 1073 242 l 257
 1073 133 l 258
 1073 52.25 1014.89 0 932 0 c 256
 879.595 0 836.931 21.3961 813 57.9649 c 257
 789.069 21.3961 746.405 3.55271e-15 694 0 c 256
696 612 m 258
 621.669 612 584.977 663.304 584.977 714.83 c 256
 584.977 766.802 622.309 819 696 819 c 258
 791.667 819 l 257
 791.667 779 l 257
 686 779 l 258
 644.071 779 622.881 747.025 622.881 715.163 c 256
 622.881 683.526 643.774 652 686 652 c 258
 792 652 l 257
 792 612 l 257
 696 612 l 258
30 196 m 257
 30 246 l 257
 320 494 l 257
 389.698 548.094 472.16 577.395 547.339 577.395 c 256
 638.535 577.395 719.016 534.279 753 440 c 257
 706 440 l 257
 679.113 505.605 614.181 538.284 540.39 538.284 c 256
 476.96 538.284 406.983 514.137 349 466 c 257
 69 225 l 257
 30 196 l 257
72 440 m 257
 33 452 l 257
 64.0312 533.159 124.235 565.088 181.841 565.088 c 256
 244.9 565.088 304.845 526.827 320 473 c 257
 289 445 l 257
 276.237 490.735 229.535 521.199 181.232 521.199 c 256
 138.707 521.199 94.9414 497.588 72 440 c 257
1031 241 m 256
 1031 411 l 258
 1031 558.715 961.056 612 848 612 c 257
 848 652 l 257
 1007.37 652 1073 568.037 1073 411 c 258
 1073 241 l 256
 1031 241 l 256
1018.33 673 m 257
 1018.33 770 970.333 779 925 779 c 258
 848 779 l 257
 848 819 l 257
 925 819 l 258
 1003.36 819 1058.33 776 1058.33 673 c 257
 1018.33 673 l 257
EndSplineSet
Ligature2: "si_abvs_1 subtable" si_Jha si_MatraI
EndChar

StartChar: si_JhIi
Encoding: 162 -1 177
GlifName: si_J_hI_i
Width: 1103
VWidth: 0
GlyphClass: 3
Flags: W
LayerCount: 2
Back
Fore
SplineSet
183.589 -4.77248 m 256
 122.991 -4.77248 65.0029 38.8293 65.0029 114 c 258
 65.0488 146.19 l 258
 65.0488 167.92 63.5771 199 44 199 c 256
 40.7168 199 34.2529 197.3 30 196 c 257
 30 246 l 257
 100 237 105.981 184.713 106 166 c 257
 106 114 l 258
 106 65.1681 146.371 37.5337 185.225 37.5337 c 256
 221.265 37.5337 256 61.31 256 114 c 258
 256 192 l 257
 295.88 192 l 257
 296 114 l 258
 296.081 61.336 334.791 37.5447 374.917 37.5447 c 256
 418.136 37.5447 462.998 65.1464 463 114 c 258
 463.004 240 l 258
 463.004 331.199 426 355 326.776 369.904 c 257
 365 403 l 257
 441 391 503 361.827 503 240 c 258
 503 114 l 258
 503 35.0935 445.06 -3.77233 381.868 -3.77233 c 256
 344.851 -3.77233 306.032 9.56382 276 36 c 257
 250.392 8.16971 216.603 -4.77248 183.589 -4.77248 c 256
694 0 m 256
 611.107 0 553 52.25 553 133 c 258
 553 307 l 258
 553 387.75 601.107 480 723.667 480 c 258
 729 480 l 257
 753 440 l 257
 733.667 440 l 258
 607.846 440 595 335.941 595 301 c 258
 595 139 l 258
 595 104.059 617.846 40 694 40 c 256
 769.154 40 792 104.059 792 139 c 258
 792 192 l 257
 834 192 l 257
 834 139 l 258
 834 104.059 856.846 40 932 40 c 256
 1008.15 40 1031 104.059 1031 139 c 258
 1031 242 l 257
 1073 242 l 257
 1073 133 l 258
 1073 52.25 1014.89 0 932 0 c 256
 879.595 0 836.931 21.3961 813 57.9649 c 257
 789.069 21.3961 746.405 3.55271e-15 694 0 c 256
696 612 m 258
 621.669 612 584.977 663.304 584.977 714.83 c 256
 584.977 766.802 622.309 819 696 819 c 258
 791.667 819 l 257
 791.667 779 l 257
 686 779 l 258
 644.071 779 622.881 747.025 622.881 715.163 c 256
 622.881 683.526 643.774 652 686 652 c 258
 792 652 l 257
 792 612 l 257
 696 612 l 258
30 196 m 257
 30 246 l 257
 320 494 l 257
 389.698 548.094 472.16 577.395 547.339 577.395 c 256
 638.535 577.395 719.016 534.279 753 440 c 257
 706 440 l 257
 679.113 505.605 614.181 538.284 540.39 538.284 c 256
 476.96 538.284 406.983 514.137 349 466 c 257
 69 225 l 257
 30 196 l 257
994.46 603.56 m 256
 944.54 603.56 904.22 643.88 904.22 693.8 c 256
 904.22 729.745 925.125 760.713 955.467 775.235 c 257
 937.86 778.291 920.431 779 906.5 779 c 258
 848 779 l 257
 848 819 l 257
 922.5 819 l 258
 1007.72 819 1084.67 789.785 1084.7 693.8 c 256
 1084.7 643.88 1044.38 603.56 994.46 603.56 c 256
72 440 m 257
 33 452 l 257
 64.0312 533.159 124.235 565.088 181.841 565.088 c 256
 244.9 565.088 304.845 526.827 320 473 c 257
 289 445 l 257
 276.237 490.735 229.535 521.199 181.232 521.199 c 256
 138.707 521.199 94.9414 497.588 72 440 c 257
1031 241 m 256
 1031 411 l 258
 1031 558.715 961.056 612 848 612 c 257
 848 652 l 257
 850.897 652 853.762 651.972 856.597 651.917 c 256
 1009.73 648.924 1073 565.183 1073 411 c 258
 1073 241 l 256
 1031 241 l 256
EndSplineSet
Ligature2: "si_abvs_2 subtable" si_Jha si_MatraIi
EndChar

StartChar: si_JhR.halant
Encoding: 168 -1 178
GlifName: si_J_hR_.halant
Width: 1103
VWidth: 0
GlyphClass: 2
Flags: W
LayerCount: 2
Back
Fore
SplineSet
847 -225 m 257
 847 -185 l 257
 972.493 -185 1041.79 -120.23 1041.79 -47.0527 c 256
 1041.79 -14.9844 1030.61 11.9023 1007.7 32.124 c 257
 1038.45 60.8232 l 257
 1068.94 33.0381 1083 -4.1416 1083 -47.0527 c 256
 1083 -161.31 983 -225.053 847 -225 c 257
790.833 -225.091 m 257
 678.746 -225.148 558.833 -161.891 558.833 -48.1436 c 257
 598.833 -48.1436 l 257
 598.833 -160.449 749.833 -185.182 790.833 -185.091 c 257
 790.833 -225.091 l 257
EndSplineSet
Refer: 175 -1 N 1 0 0 1 0 0 2
EndChar

StartChar: si_JhRI
Encoding: 170 -1 179
GlifName: si_J_hR_I_
Width: 1103
VWidth: 0
GlyphClass: 3
Flags: W
LayerCount: 2
Back
Fore
SplineSet
847 -225 m 257
 847 -185 l 257
 972.493 -185 1041.79 -120.23 1041.79 -47.0527 c 256
 1041.79 -14.9844 1030.61 11.9023 1007.7 32.124 c 257
 1038.45 60.8232 l 257
 1068.94 33.0381 1083 -4.1416 1083 -47.0527 c 256
 1083 -161.31 983 -225.053 847 -225 c 257
790.833 -225.091 m 257
 678.746 -225.148 558.833 -161.891 558.833 -48.1436 c 257
 598.833 -48.1436 l 257
 598.833 -160.449 749.833 -185.182 790.833 -185.091 c 257
 790.833 -225.091 l 257
EndSplineSet
Refer: 176 -1 N 1 0 0 1 0 0 2
Ligature2: "si_abvs_3 subtable" si_JhRa si_MatraI
EndChar

StartChar: si_JhRIi
Encoding: 171 -1 180
GlifName: si_J_hR_I_i
Width: 1104
VWidth: 0
GlyphClass: 3
Flags: W
LayerCount: 2
Back
Fore
SplineSet
847 -225 m 257
 847 -185 l 257
 972.493 -185 1041.79 -120.23 1041.79 -47.0527 c 256
 1041.79 -14.9844 1030.61 11.9023 1007.7 32.124 c 257
 1038.45 60.8232 l 257
 1068.94 33.0381 1083 -4.1416 1083 -47.0527 c 256
 1083 -161.31 983 -225.053 847 -225 c 257
790.833 -225.091 m 257
 678.746 -225.148 558.833 -161.891 558.833 -48.1436 c 257
 598.833 -48.1436 l 257
 598.833 -160.449 749.833 -185.182 790.833 -185.091 c 257
 790.833 -225.091 l 257
EndSplineSet
Refer: 177 -1 N 1 0 0 1 0 0 2
Ligature2: "si_abvs_4 subtable" si_JhRa si_MatraIi
EndChar

StartChar: si_JhRa
Encoding: 169 -1 181
GlifName: si_J_hR_a
Width: 1103
VWidth: 0
GlyphClass: 3
Flags: W
LayerCount: 2
Back
Fore
SplineSet
847 -225 m 257
 847 -185 l 257
 972.493 -185 1041.79 -120.23 1041.79 -47.0527 c 256
 1041.79 -14.9844 1030.61 11.9023 1007.7 32.124 c 257
 1038.45 60.8232 l 257
 1068.94 33.0381 1083 -4.1416 1083 -47.0527 c 256
 1083 -161.31 983 -225.053 847 -225 c 257
790.833 -225.091 m 257
 678.746 -225.148 558.833 -161.891 558.833 -48.1436 c 257
 598.833 -48.1436 l 257
 598.833 -160.449 749.833 -185.182 790.833 -185.091 c 257
 790.833 -225.091 l 257
EndSplineSet
Refer: 186 3491 N 1 0 0 1 0 0 2
Ligature2: "si_rakaar subtable" si_Jha si_Halant si_Ra
EndChar

StartChar: si_JhU
Encoding: 163 -1 182
GlifName: si_J_hU_
Width: 1103
VWidth: 0
GlyphClass: 3
Flags: W
LayerCount: 2
Back
Fore
SplineSet
1021 83 m 257
 1061 83 l 257
 1061 -205 l 257
 1021 -205 l 257
 1021 83 l 257
837 -165 m 257
 1021 -165 l 257
 1021 -205 l 257
 837 -205 l 257
 837 -165 l 257
572 -165 m 257
 780 -165 l 257
 780 -205 l 257
 572 -205 l 257
 572 -165 l 257
EndSplineSet
Refer: 186 3491 N 1 0 0 1 0 0 2
Ligature2: "si_blws_1 subtable" si_Jha si_MatraU
EndChar

StartChar: si_JhUu
Encoding: 164 -1 184
GlifName: si_J_hU_u
Width: 1103
VWidth: 0
GlyphClass: 3
Flags: W
LayerCount: 2
Back
Fore
SplineSet
574 -142 m 257
 600.185 -155.703 620.85 -160.636 639.016 -160.636 c 256
 685.739 -160.636 715.931 -128 781 -128 c 257
 781 -170 l 257
 715.504 -170 684.791 -200.902 637.754 -200.902 c 256
 619.82 -200.902 599.513 -196.41 574 -184 c 257
 574 -142 l 257
837 -128 m 257
 866.143 -128 941.825 -130.922 1021 -161 c 257
 1021 -205 l 257
 936.61 -171.253 865 -170 837 -170 c 257
 837 -128 l 257
1021 83 m 257
 1061 83 l 257
 1061 -205 l 257
 1021 -205 l 257
 1021 83 l 257
EndSplineSet
Refer: 186 3491 N 1 0 0 1 0 0 2
Ligature2: "si_blws_3 subtable" si_Jha si_MatraUu
EndChar

StartChar: si_Jha
Encoding: 30 3491 186
GlifName: si_J_ha
Width: 1103
VWidth: 0
GlyphClass: 2
Flags: W
HStem: -8 140 200 2 446 121 616 138
VStem: 240 100 400 129 575 138 790 100 967 141
LayerCount: 2
Back
Fore
SplineSet
30 196 m 257
 30 246 l 257
 100 237 105.981 184.713 106 166 c 257
 106 114 l 258
 106 65.1681 146.371 37.5337 185.225 37.5337 c 256
 221.265 37.5337 256 61.31 256 114 c 258
 256 192 l 257
 295.88 192 l 257
 296 114 l 258
 296.081 61.336 334.791 37.5447 374.917 37.5447 c 256
 418.136 37.5447 462.998 65.1464 463 114 c 258
 463.004 240 l 258
 463.004 331.199 426 355 326.776 369.904 c 257
 365 403 l 257
 441 391 503 361.827 503 240 c 258
 503 114 l 258
 503 35.0935 445.06 -3.77233 381.868 -3.77233 c 256
 344.851 -3.77233 306.032 9.56382 276 36 c 257
 250.392 8.16971 216.603 -4.77248 183.589 -4.77248 c 256
 122.991 -4.77248 65.0029 38.8293 65.0029 114 c 258
 65.0488 146.19 l 258
 65.0488 167.92 63.5771 199 44 199 c 256
 40.7168 199 34.2529 197.3 30 196 c 257
694 0 m 256
 611.107 0 553 52.25 553 133 c 258
 553 307 l 258
 553 387.75 601.107 480 723.667 480 c 258
 729 480 l 257
 753 440 l 257
 733.667 440 l 258
 607.846 440 595 335.941 595 301 c 258
 595 139 l 258
 595 104.059 617.846 40 694 40 c 256
 769.154 40 792 104.059 792 139 c 258
 792 192 l 257
 834 192 l 257
 834 139 l 258
 834 104.059 856.846 40 932 40 c 256
 1008.15 40 1031 104.059 1031 139 c 258
 1031 242 l 257
 1073 242 l 257
 1073 133 l 258
 1073 52.25 1014.89 0 932 0 c 256
 879.595 0 836.931 21.3961 813 57.9649 c 257
 789.069 21.3961 746.405 3.55271e-15 694 0 c 256
30 196 m 257
 30 246 l 257
 320 494 l 257
 389.698 548.094 472.16 577.395 547.339 577.395 c 256
 638.535 577.395 719.016 534.279 753 440 c 257
 706 440 l 257
 679.113 505.605 614.181 538.284 540.39 538.284 c 256
 476.96 538.284 406.983 514.137 349 466 c 257
 69 225 l 257
 30 196 l 257
1031 241 m 256
 1031 514 l 258
 1031 668.135 957.978 715 837 715 c 257
 837 755 l 257
 1003.86 755 1073 677.667 1073 514 c 258
 1073 241 l 256
 1031 241 l 256
33 452 m 257
 64.0312 533.159 124.235 565.088 181.841 565.088 c 256
 244.9 565.088 304.845 526.827 320 473 c 257
 289 445 l 257
 276.237 490.735 229.535 521.199 181.232 521.199 c 256
 138.707 521.199 94.9414 497.588 72 440 c 257
 33 452 l 257
582.761 642.542 m 257
 611.597 721.349 701.461 755 780 755 c 257
 780 715 l 257
 714.098 715 642.025 688.994 622.103 628.235 c 257
 582.761 642.542 l 257
EndSplineSet
PickledDataWithLists: "(dp1
S'com.fontlab.hintData'
p2
(dp3
S'vhints'
p4
(lp5
(dp6
S'position'
p7
I240
sS'width'
p8
I100
sa(dp9
g7
I400
sg8
I129
sa(dp10
g7
I575
sg8
I138
sa(dp11
g7
I790
sg8
I100
sa(dp12
g7
I967
sg8
I141
sasS'hhints'
p13
(lp14
(dp15
g7
I-8
sg8
I140
sa(dp16
g7
I200
sg8
I2
sa(dp17
g7
I446
sg8
I121
sa(dp18
g7
I616
sg8
I138
sass."
EndChar

StartChar: si_JnyRa
Encoding: 187 -1 195
GlifName: si_J_nyR_a
Width: 1051
VWidth: 0
GlyphClass: 3
Flags: W
LayerCount: 2
Back
Fore
SplineSet
692 574 m 256
 790.31 574 951 555.503 951 376 c 258
 951 349 l 257
 765 349 l 258
 649.019 349 590.624 293.457 590.624 199 c 256
 590.624 108.484 652.124 40 776 40 c 257
 815 40 l 257
 886 40 943.998 71.5439 977 138 c 257
 1017 138 l 257
 975.009 22.3047 872 0 815 0 c 257
 776 0 l 258
 656 0 549 60.3916 549 199 c 256
 549 335.29 644.045 389 775 389 c 258
 911 389 l 257
 911 516.372 769.581 533.201 691.94 533.201 c 256
 692 574 l 256
30 208 m 258
 30 287 l 258
 30 452 60.9932 564.245 265.051 564.245 c 256
 316.372 564.245 304.684 564.082 356 564 c 257
 356 524 l 257
 238 524 l 258
 68.46 524 70 376 70 287 c 258
 70 208 l 258
 70 127.436 71.5576 83.5967 136 7 c 257
 94 -9 l 257
 34.3584 68.1836 30 117.444 30 208 c 258
409 271 m 257
 409 311 l 257
 446 311 l 258
 548.232 311 579 233 579 164 c 258
 579 145 l 258
 579 42.873 511.866 -8 412 -8 c 257
 412 32 l 257
 491.817 32 539.126 66.249 539.126 152.124 c 256
 539.126 199.586 531.498 271 446 271 c 258
 409 271 l 257
356 -8 m 257
 236.704 -8 170.42 79.7373 170.079 216 c 258
 170.079 340 l 258
 170.42 476.263 236.704 564 356 564 c 257
 356 524 l 257
 260.888 524 210 457.857 210 340 c 258
 210 216 l 258
 210 98.1426 263.888 32 356 32 c 257
 356 -8 l 257
392 271 m 256
 392 360 l 258
 392 515.643 510.436 572.301 630.527 573.962 c 256
 632.351 573.987 634.175 574 636 574 c 257
 636 534 l 257
 634.248 534 632.5 533.986 630.754 533.959 c 256
 526.063 532.308 433 480.999 433 361 c 258
 433 271 l 257
 392 271 l 256
818 -194 m 257
 932.222 -194 977 -107.057 977 -19 c 258
 977 138 l 257
 1017 138 l 257
 1017 2 l 258
 1017 -139.824 963.29 -234 818 -234 c 257
 818 -194 l 257
762.333 -234.038 m 257
 659.333 -234.091 552.333 -173.326 552.333 -57.0908 c 258
 552.333 -47.0908 l 257
 592.333 -47.0908 l 257
 592.333 -172.396 715.333 -194.091 762.333 -194 c 257
 762.333 -234.038 l 257
EndSplineSet
Ligature2: "si_rakaar subtable" si_Jnya si_Halant si_Ra
EndChar

StartChar: si_JnyU
Encoding: 184 -1 196
GlifName: si_J_nyU_
Width: 1051
VWidth: 0
GlyphClass: 3
Flags: W
LayerCount: 2
Back
Fore
SplineSet
865 0 m 257
 776 0 l 258
 656 0 549 60.3916 549 199 c 256
 549 335.29 644.045 389 775 389 c 258
 911 389 l 257
 911 516.372 769.581 533.201 691.94 533.201 c 256
 692 574 l 256
 790.31 574 951 555.503 951 376 c 258
 951 349 l 257
 765 349 l 258
 649.019 349 590.624 293.457 590.624 199 c 256
 590.624 108.484 652.124 40 776 40 c 257
 865 40 l 257
 865 0 l 257
30 208 m 258
 30 287 l 258
 30 452 60.9932 564.245 265.051 564.245 c 256
 316.372 564.245 304.684 564.082 356 564 c 257
 356 524 l 257
 238 524 l 258
 68.46 524 70 376 70 287 c 258
 70 208 l 258
 70 127.436 71.5576 83.5967 136 7 c 257
 94 -9 l 257
 34.3584 68.1836 30 117.444 30 208 c 258
409 271 m 257
 409 311 l 257
 446 311 l 258
 548.232 311 579 233 579 164 c 258
 579 145 l 258
 579 42.873 511.866 -8 412 -8 c 257
 412 32 l 257
 491.817 32 539.126 66.249 539.126 152.124 c 256
 539.126 199.586 531.498 271 446 271 c 258
 409 271 l 257
356 -8 m 257
 236.704 -8 170.42 79.7373 170.079 216 c 258
 170.079 340 l 258
 170.42 476.263 236.704 564 356 564 c 257
 356 524 l 257
 260.888 524 210 457.857 210 340 c 258
 210 216 l 258
 210 98.1426 263.888 32 356 32 c 257
 356 -8 l 257
392 271 m 256
 392 360 l 258
 392 515.643 510.436 572.301 630.527 573.962 c 256
 632.351 573.987 634.175 574 636 574 c 257
 636 534 l 257
 634.248 534 632.5 533.986 630.754 533.959 c 256
 526.063 532.308 433 480.999 433 361 c 258
 433 271 l 257
 392 271 l 256
554 -206 m 257
 554 -166 l 257
 866 -166 l 257
 866 -206 l 257
 554 -206 l 257
921 -206 m 257
 921 40 l 257
 962 40 l 257
 962 -206 l 257
 921 -206 l 257
EndSplineSet
Ligature2: "si_blws_1 subtable" si_Jnya si_MatraU
EndChar

StartChar: si_JnyUu
Encoding: 185 -1 197
GlifName: si_J_nyU_u
Width: 1051
VWidth: 0
GlyphClass: 3
Flags: W
LayerCount: 2
Back
Fore
SplineSet
866 0 m 257
 776 0 l 258
 656 0 549 60.3916 549 199 c 256
 549 335.29 644.045 389 775 389 c 258
 911 389 l 257
 911 516.372 769.581 533.201 691.94 533.201 c 256
 692 574 l 256
 790.31 574 951 555.503 951 376 c 258
 951 349 l 257
 765 349 l 258
 649.019 349 590.624 293.457 590.624 199 c 256
 590.624 108.484 652.124 40 776 40 c 257
 866 40 l 257
 866 0 l 257
30 208 m 258
 30 287 l 258
 30 452 60.9932 564.245 265.051 564.245 c 256
 316.372 564.245 304.684 564.082 356 564 c 257
 356 524 l 257
 238 524 l 258
 68.46 524 70 376 70 287 c 258
 70 208 l 258
 70 127.436 71.5576 83.5967 136 7 c 257
 94 -9 l 257
 34.3584 68.1836 30 117.444 30 208 c 258
409 271 m 257
 409 311 l 257
 446 311 l 258
 548.232 311 579 233 579 164 c 258
 579 145 l 258
 579 42.873 511.866 -8 412 -8 c 257
 412 32 l 257
 491.817 32 539.126 66.249 539.126 152.124 c 256
 539.126 199.586 531.498 271 446 271 c 258
 409 271 l 257
356 -8 m 257
 236.704 -8 170.42 79.7373 170.079 216 c 258
 170.079 340 l 258
 170.42 476.263 236.704 564 356 564 c 257
 356 524 l 257
 260.888 524 210 457.857 210 340 c 258
 210 216 l 258
 210 98.1426 263.888 32 356 32 c 257
 356 -8 l 257
392 271 m 256
 392 360 l 258
 392 515.643 510.436 572.301 630.527 573.962 c 256
 632.351 573.987 634.175 574 636 574 c 257
 636 534 l 257
 634.248 534 632.5 533.986 630.754 533.959 c 256
 526.063 532.308 433 480.999 433 361 c 258
 433 271 l 257
 392 271 l 256
866 -206 m 257
 844.106 -195.639 812 -183 775 -183 c 256
 715.667 -183 683.334 -205.777 640.741 -205.777 c 256
 619.444 -205.777 578.334 -201.333 554 -180 c 257
 554 -144 l 257
 578.334 -165.333 619.444 -169.777 640.741 -169.777 c 256
 683.334 -169.777 715.667 -147 775 -147 c 256
 812 -147 847.148 -159.167 866 -166 c 257
 866 -206 l 257
921 -206 m 257
 921 40 l 257
 962 40 l 257
 962 -206 l 257
 921 -206 l 257
EndSplineSet
Ligature2: "si_blws_3 subtable" si_Jnya si_MatraUu
EndChar

StartChar: si_Jnya
Encoding: 32 3493 198
GlifName: si_J_nya
Width: 1051
VWidth: 0
GlyphClass: 2
Flags: W
HStem: -8 143 421 143
VStem: 224 141 448 139 531 124 740 141
LayerCount: 2
Back
Fore
SplineSet
776 0 m 258
 656 0 549 60.3916 549 199 c 256
 549 335.29 644.045 389 775 389 c 258
 911 389 l 257
 911 516.372 769.581 533.201 691.94 533.201 c 256
 692 574 l 256
 790.31 574 951 555.503 951 376 c 258
 951 349 l 257
 765 349 l 258
 649.019 349 590.624 293.457 590.624 199 c 256
 590.624 108.484 652.124 40 776 40 c 257
 815 40 l 257
 886 40 945.998 74.5439 980 148 c 257
 1017 138 l 257
 975.009 22.3047 872 0 815 0 c 257
 776 0 l 258
30 208 m 258
 30 287 l 258
 30 452 60.9932 564.245 265.051 564.245 c 256
 316.372 564.245 304.684 564.082 356 564 c 257
 356 524 l 257
 238 524 l 258
 68.46 524 70 376 70 287 c 258
 70 208 l 258
 70 127.436 71.5576 83.5967 136 7 c 257
 94 -9 l 257
 34.3584 68.1836 30 117.444 30 208 c 258
409 271 m 257
 409 311 l 257
 446 311 l 258
 548.232 311 579 233 579 164 c 258
 579 145 l 258
 579 42.873 511.866 -8 412 -8 c 257
 412 32 l 257
 491.817 32 539.126 66.249 539.126 152.124 c 256
 539.126 199.586 531.498 271 446 271 c 258
 409 271 l 257
356 -8 m 257
 236.704 -8 170.42 79.7373 170.079 216 c 258
 170.079 340 l 258
 170.42 476.263 236.704 564 356 564 c 257
 356 524 l 257
 260.888 524 210 457.857 210 340 c 258
 210 216 l 258
 210 98.1426 263.888 32 356 32 c 257
 356 -8 l 257
392 271 m 256
 392 360 l 258
 392 515.643 510.436 572.301 630.527 573.962 c 256
 632.351 573.987 634.175 574 636 574 c 257
 636 534 l 257
 634.248 534 632.5 533.986 630.754 533.959 c 256
 526.063 532.308 433 480.999 433 361 c 258
 433 271 l 257
 392 271 l 256
880.022 -203.964 m 256
 795.453 -203.964 712 -151.098 712 -45 c 257
 752 -45 l 257
 752 -120.984 818.061 -164.281 884.197 -164.281 c 256
 939.847 -164.281 995.55 -133.627 1012 -66 c 257
 1051 -76 l 257
 1033.01 -161.222 956.064 -203.964 880.022 -203.964 c 256
EndSplineSet
PickledDataWithLists: "(dp1
S'com.fontlab.hintData'
p2
(dp3
S'vhints'
p4
(lp5
(dp6
S'position'
p7
I224
sS'width'
p8
I141
sa(dp9
g7
I448
sg8
I139
sa(dp10
g7
I531
sg8
I124
sa(dp11
g7
I740
sg8
I141
sasS'hhints'
p12
(lp13
(dp14
g7
I-8
sg8
I143
sa(dp15
g7
I421
sg8
I143
sass."
EndChar

StartChar: si_KRI
Encoding: 97 -1 203
GlifName: si_K_R_I_
Width: 760
VWidth: 0
GlyphClass: 3
Flags: HW
LayerCount: 2
Back
Fore
SplineSet
433.115 -193.947 m 257
 464.115 -193.947 l 258
 612.115 -193.947 734 -54 676 66 c 257
 710 89 l 257
 781.992 -37.9238 675 -234 465 -234 c 258
 433.115 -233.947 l 257
 433.115 -193.947 l 257
378.115 -233.947 m 257
 351 -234 l 258
 226 -234 81.833 -165.25 81.833 -37.0908 c 257
 121.833 -37.0908 l 257
 121.833 -155.59 286 -194 350 -194 c 258
 378 -194 l 257
 378.115 -233.947 l 257
EndSplineSet
Refer: 201 -1 N 1 0 0 1 0 0 2
Ligature2: "si_abvs_3 subtable" si_KRa si_MatraI
EndChar

StartChar: si_KRIi
Encoding: 98 -1 204
GlifName: si_K_R_I_i
Width: 760
VWidth: 0
GlyphClass: 3
Flags: HW
LayerCount: 2
Back
Fore
SplineSet
433.115 -193.947 m 257
 464.115 -193.947 l 258
 612.115 -193.947 734 -54 676 66 c 257
 710 89 l 257
 781.992 -37.9238 675 -234 465 -234 c 258
 433.115 -233.947 l 257
 433.115 -193.947 l 257
378.115 -233.947 m 257
 351 -234 l 258
 226 -234 81.833 -165.25 81.833 -37.0908 c 257
 121.833 -37.0908 l 257
 121.833 -155.59 286 -194 350 -194 c 258
 378 -194 l 257
 378.115 -233.947 l 257
EndSplineSet
Refer: 202 -1 N 1 0 0 1 0 0 2
Ligature2: "si_abvs_4 subtable" si_KRa si_MatraIi
EndChar

StartChar: si_KRa
Encoding: 96 -1 205
GlifName: si_K_R_a
Width: 760
VWidth: 0
GlyphClass: 3
Flags: W
LayerCount: 2
Back
Fore
SplineSet
433.115 -193.947 m 257
 464.115 -193.947 l 258
 612.115 -193.947 734 -54 676 66 c 257
 710 89 l 257
 781.992 -37.9238 675 -234 465 -234 c 258
 433.115 -233.947 l 257
 433.115 -193.947 l 257
378.115 -233.947 m 257
 351 -234 l 258
 226 -234 81.833 -165.25 81.833 -37.0908 c 257
 121.833 -37.0908 l 257
 121.833 -155.59 286 -194 350 -194 c 258
 378 -194 l 257
 378.115 -233.947 l 257
EndSplineSet
Refer: 221 3482 N 1 0 0 1 0 0 2
Ligature2: "si_rakaar subtable" si_Ka si_Halant si_Ra
EndChar

StartChar: si_KSsU
Encoding: 443 -1 209
GlifName: si_K_S_sU_
Width: 1155
VWidth: 0
GlyphClass: 3
Flags: W
LayerCount: 2
Back
Fore
SplineSet
1064 51 m 257
 1104 111 l 257
 1104 -205 l 257
 1064 -205 l 257
 1064 51 l 257
873 -165 m 257
 1078 -165 l 257
 1078 -205 l 257
 873 -205 l 257
 873 -165 l 257
580 -165 m 257
 817 -165 l 257
 817 -205 l 257
 580 -205 l 257
 580 -165 l 257
EndSplineSet
Refer: 211 -1 N 1 0 0 1 0 0 2
Ligature2: "si_blws_2 subtable" si_KSsa si_MatraU
EndChar

StartChar: si_KSsUu
Encoding: 444 -1 210
GlifName: si_K_S_sU_u
Width: 1155
VWidth: 0
GlyphClass: 3
Flags: W
LayerCount: 2
Back
Fore
SplineSet
571 -122 m 257
 607.512 -153.982 637.641 -164.643 664.563 -164.643 c 256
 718.408 -164.643 759.421 -122 813 -122 c 257
 813 -164 l 257
 759.355 -164 717.871 -204.871 664.049 -204.871 c 256
 637.138 -204.871 607.143 -194.653 571 -164 c 257
 571 -122 l 257
1064 51 m 257
 1104 111 l 257
 1104 -205 l 257
 1064 -205 l 257
 1064 51 l 257
869 -122 m 257
 898.143 -122 934.825 -121.922 1064 -161 c 257
 1064 -205 l 257
 917.841 -158.509 877.06 -164 869 -164 c 257
 869 -122 l 257
EndSplineSet
Refer: 211 -1 N 1 0 0 1 0 0 2
Ligature2: "si_blws_4 subtable" si_KSsa si_MatraUu
EndChar

StartChar: si_KSsa
Encoding: 429 -1 211
GlifName: si_K_S_sa
Width: 1155
VWidth: 0
GlyphClass: 3
Flags: W
LayerCount: 2
Back
Fore
SplineSet
183.589 -4.77248 m 256
 122.991 -4.77248 65.0029 38.8293 65.0029 114 c 258
 65.0488 146.19 l 258
 65.0488 167.92 63.5771 199 44 199 c 256
 40.7168 199 34.2529 197.3 30 196 c 257
 30 246 l 257
 100 237 105.981 184.713 106 166 c 257
 106 114 l 258
 106 65.1681 146.371 37.5337 185.225 37.5337 c 256
 221.265 37.5337 256 61.31 256 114 c 258
 256 192 l 257
 295.88 192 l 257
 296 114 l 258
 296.081 61.336 334.791 37.5447 374.917 37.5447 c 256
 418.136 37.5447 462.998 65.1464 463 114 c 258
 463.004 240 l 258
 463.004 331.199 426 355 326.776 369.904 c 257
 365 403 l 257
 441 391 503 361.827 503 240 c 258
 503 114 l 258
 503 35.0935 445.06 -3.77233 381.868 -3.77233 c 256
 344.851 -3.77233 306.032 9.56382 276 36 c 257
 250.392 8.16971 216.603 -4.77248 183.589 -4.77248 c 256
30 196 m 257
 30 246 l 257
 282 462 l 258
 369.64 537.12 488.766 574.937 596.513 574.937 c 256
 737.69 574.937 859.328 510.012 865 379 c 257
 825 379 l 257
 819.39 471.564 720.258 531.109 594.428 531.109 c 256
 495.96 531.109 381.142 494.644 282 409 c 258
 69 225 l 257
 30 196 l 257
814 -6 m 258
 637 -6 565 49.7461 565 192.5 c 257
 605 192.5 l 257
 605 61.3008 681 34 814 34 c 258
 876 34 l 258
 1009 34 1085 62.3008 1085 192.5 c 257
 1125 192.5 l 257
 1125 49.7461 1053 -6 876 -6 c 258
 814 -6 l 258
565 242 m 257
 565 364 632 402 729 402 c 258
 954 402 l 258
 1062 402 1125 368 1125 242 c 257
 1085 242 l 257
 1085 320 1065 362 956 362 c 258
 730 362 l 258
 620.738 362 605.001 308.104 605 242 c 257
 565 242 l 257
825 379 m 257
 825.049 415 l 257
 825.001 539.449 923.022 564 974 564 c 256
 1037.88 564 1098.29 541.871 1124 477 c 257
 1085 464 l 257
 1071.53 500.315 1036.58 524 974 524 c 256
 895.793 524 865 469 865 415 c 257
 865 379 l 257
 825 379 l 257
72 440 m 257
 33 452 l 257
 64.0312 533.159 124.235 565.088 181.841 565.088 c 256
 244.9 565.088 304.845 526.827 320 473 c 257
 289 445 l 257
 276.237 490.735 229.535 521.199 181.232 521.199 c 256
 138.707 521.199 94.9414 497.588 72 440 c 257
817 168 m 257
 817 257.976 875 337 979 367 c 257
 1045 367 l 257
 937 318 857 276.977 857 168 c 257
 817 168 l 257
EndSplineSet
Ligature2: "si_akhands subtable" si_Ka si_Halant si_Ssa
EndChar

StartChar: si_KU
Encoding: 92 -1 212
GlifName: si_K_U_
Width: 760
VWidth: 0
GlyphClass: 3
Flags: W
LayerCount: 2
Back
Fore
SplineSet
30 196 m 257
 30 246 l 257
 100 237 105.981 184.713 106 166 c 257
 106 114 l 258
 106 65.1681 146.371 37.5337 185.225 37.5337 c 256
 221.265 37.5337 256 61.31 256 114 c 258
 256 192 l 257
 295.88 192 l 257
 296 114 l 258
 296.081 61.336 334.791 37.5447 374.917 37.5447 c 256
 418.136 37.5447 462.998 65.1464 463 114 c 258
 463.004 240 l 258
 463.004 331.199 426 355 326.776 369.904 c 257
 365 403 l 257
 441 391 503 361.827 503 240 c 258
 503 114 l 258
 503 35.0935 445.06 -3.77233 381.868 -3.77233 c 256
 344.851 -3.77233 306.032 9.56382 276 36 c 257
 250.392 8.16971 216.603 -4.77248 183.589 -4.77248 c 256
 122.991 -4.77248 65.0029 38.8293 65.0029 114 c 258
 65.0488 146.19 l 258
 65.0488 167.92 63.5771 199 44 199 c 256
 40.7168 199 34.2529 197.3 30 196 c 257
668.19 -205.003 m 258
 610.365 -205.003 553 -166 553 -57 c 258
 553 -32 l 258
 553 77 610.365 116.003 668.19 116.003 c 258
 730 116 l 257
 730 76 l 257
 668 76 l 258
 604.141 76 593 16 593.018 -30.9844 c 258
 593.018 -58.0156 l 258
 593 -105 604.141 -165 668 -165 c 258
 730 -165 l 257
 730 -205 l 257
 668.19 -205.003 l 258
690 92 m 256
 690 314 l 258
 690 454.189 597.759 520.572 498.843 520.572 c 256
 446.546 520.572 392.383 502.016 349 466 c 257
 69 225 l 257
 30 196 l 257
 30 246 l 257
 320 494 l 257
 375.041 536.719 443.008 559.834 507.668 559.834 c 256
 624.207 559.834 730 484.744 730 314 c 258
 730 92 l 256
 690 92 l 256
33 452 m 257
 64.0312 533.159 124.235 565.088 181.841 565.088 c 256
 244.9 565.088 304.845 526.827 320 473 c 257
 289 445 l 257
 276.237 490.735 229.535 521.199 181.232 521.199 c 256
 138.707 521.199 94.9414 497.588 72 440 c 257
 33 452 l 257
EndSplineSet
Ligature2: "si_blws_1 subtable" si_Ka si_MatraU
EndChar

StartChar: si_KUu
Encoding: 93 -1 214
GlifName: si_K_U_u
Width: 783
VWidth: 0
GlyphClass: 3
Flags: W
HStem: -205 41 0 40 90 40 370 33 521 44
VStem: 65 41 256 40<114 192> 463 40<74.5468 114> 604 40<-133.905 -64> 690 40<197.375 198 198 314>
LayerCount: 2
Back
Fore
SplineSet
30 246 m 257
 320 494 l 258
 375.041 536.719 443.008 559.834 507.668 559.834 c 256
 624.207 559.834 730 484.744 730 314 c 258
 730 198 l 258
 730 185.393 726.555 162 717 150 c 257
 631 150 l 257
 671.584 150 689.883 165.196 690 197.375 c 258
 690 314 l 258
 690 454.189 597.759 520.572 498.843 520.572 c 256
 446.546 520.572 392.383 502.016 349 466 c 258
 69 225 l 257
 30 196 l 257
 30 246 l 257
33 452 m 257
 64.0312 533.159 124.235 565.088 181.841 565.088 c 256
 244.9 565.088 304.845 526.827 320 473 c 257
 289 445 l 257
 276.237 490.735 229.535 521.199 181.232 521.199 c 256
 138.707 521.199 94.9414 497.588 72 440 c 257
 33 452 l 257
30 196 m 257
 30 246 l 257
 100 237 105.981 184.713 106 166 c 257
 106 114 l 258
 106 65.1681 146.371 37.5337 185.225 37.5337 c 256
 221.265 37.5337 256 61.31 256 114 c 258
 256 192 l 257
 295.88 192 l 257
 296 114 l 258
 296.081 61.336 334.791 37.5447 374.917 37.5447 c 256
 418.136 37.5447 462.998 65.1464 463 114 c 258
 463.004 240 l 258
 463.004 331.199 426 355 326.776 369.904 c 257
 365 403 l 257
 441 391 503 361.827 503 240 c 258
 503 114 l 258
 503 35.0935 445.06 -3.77233 381.868 -3.77233 c 256
 344.851 -3.77233 306.032 9.56382 276 36 c 257
 250.392 8.16971 216.603 -4.77248 183.589 -4.77248 c 256
 122.991 -4.77248 65.0029 38.8293 65.0029 114 c 258
 65.0488 146.19 l 258
 65.0488 167.92 63.5771 199 44 199 c 256
 40.7168 199 34.2529 197.3 30 196 c 257
586 150 m 257
 783 150 l 257
 783 115 l 257
 654 35 l 257
 783 35 l 257
 783 0 l 257
 729 0 l 258
 672.47 0 644 -28.6729 644 -64 c 258
 644 -105 l 258
 644.12 -134.833 659.775 -165 702 -165 c 258
 783 -165 l 257
 783 -205 l 257
 702 -205.003 l 258
 645.875 -205.003 604 -162.81 604 -105 c 258
 603.945 -64 l 258
 603.945 -28.1055 624.889 -5.99219 637 0 c 257
 586 0 l 257
 586 35 l 257
 715 115 l 257
 586 115 l 257
 586 150 l 257
EndSplineSet
PickledDataWithLists: "(dp1
S'com.fontlab.hintData'
p2
(dp3
S'vhints'
p4
(lp5
(dp6
S'position'
p7
I65
sS'width'
p8
I41
sa(dp9
g7
I256
sg8
I40
sa(dp10
g7
I463
sg8
I40
sa(dp11
g7
I604
sg8
I40
sa(dp12
g7
I690
sg8
I40
sasS'hhints'
p13
(lp14
(dp15
g7
I-205
sg8
I41
sa(dp16
g7
I0
sg8
I40
sa(dp17
g7
I90
sg8
I40
sa(dp18
g7
I370
sg8
I33
sa(dp19
g7
I521
sg8
I44
sass."
Ligature2: "si_blws_3 subtable" si_Ka si_MatraUu
EndChar

StartChar: si_KV.halant
Encoding: 445 -1 215
GlifName: si_K_V_.halant
Width: 1155
VWidth: 0
GlyphClass: 2
Flags: W
LayerCount: 2
Back
Fore
SplineSet
30 196 m 257
 30 246 l 257
 100 237 105.981 184.713 106 166 c 257
 106 114 l 258
 106 65.1681 146.371 37.5337 185.225 37.5337 c 256
 221.265 37.5337 256 61.31 256 114 c 258
 256 192 l 257
 295.88 192 l 257
 296 114 l 258
 296.081 61.336 334.791 37.5447 374.917 37.5447 c 256
 418.136 37.5447 462.998 65.1464 463 114 c 258
 463.004 240 l 258
 463.004 331.199 426 355 326.776 369.904 c 257
 365 403 l 257
 441 391 503 361.827 503 240 c 258
 503 114 l 258
 503 35.0935 445.06 -3.77233 381.868 -3.77233 c 256
 344.851 -3.77233 306.032 9.56382 276 36 c 257
 250.392 8.16971 216.603 -4.77248 183.589 -4.77248 c 256
 122.991 -4.77248 65.0029 38.8293 65.0029 114 c 258
 65.0488 146.19 l 258
 65.0488 167.92 63.5771 199 44 199 c 256
 40.7168 199 34.2529 197.3 30 196 c 257
780 0 m 257
 660.896 0 573 85.7334 573 181 c 256
 573 230.761 584.247 268.244 610 296 c 256
 652.614 341.928 718.439 349 813 349 c 257
 813 449.276 689.223 525.129 551.169 525.129 c 256
 473.074 525.129 390.41 500.856 323 443 c 258
 69 225 l 257
 30 196 l 257
 30 246 l 257
 294 471 l 258
 371.578 537.118 469.312 566.684 561.324 566.684 c 256
 715.702 566.684 853.974 483.457 853.932 350 c 257
 854 309 l 257
 805 309 l 258
 667.373 309 613 285.762 613 181 c 256
 613 111.89 672.708 40 780 40 c 257
 780 0 l 257
593.333 612 m 257
 593.333 652 l 257
 623.822 652 l 257
 609.899 670.111 602.977 692.449 602.977 714.83 c 256
 602.977 766.802 640.309 819 714 819 c 258
 780 819 l 257
 780 779 l 257
 704 779 l 258
 662.071 779 640.881 747.025 640.881 715.163 c 256
 640.881 683.526 661.774 652 704 652 c 258
 780.333 652 l 257
 780.333 612 l 257
 593.333 612 l 257
836 0 m 257
 836 40 l 257
 949.056 40 1020 95.2852 1020 241 c 258
 1020 411 l 258
 1020 558.715 949.056 612 836 612 c 257
 836 652 l 257
 995.37 652 1061 568.037 1061 411 c 258
 1061 241 l 258
 1061 83.9629 995.37 0 836 0 c 257
33 452 m 257
 64.0312 533.159 124.235 565.088 181.841 565.088 c 256
 244.9 565.088 304.845 526.827 320 473 c 257
 289 445 l 257
 276.237 490.735 229.535 521.199 181.232 521.199 c 256
 138.707 521.199 94.9414 497.588 72 440 c 257
 33 452 l 257
835.5 779 m 257
 835.5 819 l 257
 918 819 l 258
 996.359 819 1051.33 776 1051.33 673 c 257
 1011.33 673 l 257
 1011.33 770 963.333 779 918 779 c 258
 835.5 779 l 257
EndSplineSet
EndChar

StartChar: si_KVI
Encoding: 446 -1 216
GlifName: si_K_V_I_
Width: 1091
VWidth: 0
GlyphClass: 3
Flags: W
LayerCount: 2
Back
Fore
SplineSet
30 196 m 257
 30 246 l 257
 100 237 105.981 184.713 106 166 c 257
 106 114 l 258
 106 65.1681 146.371 37.5337 185.225 37.5337 c 256
 221.265 37.5337 256 61.31 256 114 c 258
 256 192 l 257
 295.88 192 l 257
 296 114 l 258
 296.081 61.336 334.791 37.5447 374.917 37.5447 c 256
 418.136 37.5447 462.998 65.1464 463 114 c 258
 463.004 240 l 258
 463.004 331.199 426 355 326.776 369.904 c 257
 365 403 l 257
 441 391 503 361.827 503 240 c 258
 503 114 l 258
 503 35.0935 445.06 -3.77233 381.868 -3.77233 c 256
 344.851 -3.77233 306.032 9.56382 276 36 c 257
 250.392 8.16971 216.603 -4.77248 183.589 -4.77248 c 256
 122.991 -4.77248 65.0029 38.8293 65.0029 114 c 258
 65.0488 146.19 l 258
 65.0488 167.92 63.5771 199 44 199 c 256
 40.7168 199 34.2529 197.3 30 196 c 257
780 0 m 257
 660.896 0 573 85.7334 573 181 c 256
 573 230.761 584.247 268.244 610 296 c 256
 652.614 341.928 718.439 349 813 349 c 257
 813 449.276 689.223 525.129 551.169 525.129 c 256
 473.074 525.129 390.41 500.856 323 443 c 258
 69 225 l 257
 30 196 l 257
 30 246 l 257
 294 471 l 258
 371.578 537.118 469.312 566.684 561.324 566.684 c 256
 715.702 566.684 853.974 483.457 853.932 350 c 257
 854 309 l 257
 805 309 l 258
 667.373 309 613 285.762 613 181 c 256
 613 111.89 672.708 40 780 40 c 257
 780 0 l 257
704 612 m 258
 629.669 612 592.977 663.304 592.977 714.83 c 256
 592.977 766.802 630.309 819 704 819 c 258
 780 819 l 257
 780 779 l 257
 694 779 l 258
 652.071 779 630.881 747.025 630.881 715.163 c 256
 630.881 683.526 651.774 652 694 652 c 258
 779.5 652 l 257
 779.5 612 l 257
 704 612 l 258
836 0 m 257
 836 40 l 257
 949.056 40 1020 95.2852 1020 241 c 258
 1020 411 l 258
 1020 558.715 949.056 612 836 612 c 257
 836 652 l 257
 995.37 652 1061 568.037 1061 411 c 258
 1061 241 l 258
 1061 83.9629 995.37 0 836 0 c 257
33 452 m 257
 64.0312 533.159 124.235 565.088 181.841 565.088 c 256
 244.9 565.088 304.845 526.827 320 473 c 257
 289 445 l 257
 276.237 490.735 229.535 521.199 181.232 521.199 c 256
 138.707 521.199 94.9414 497.588 72 440 c 257
 33 452 l 257
835.5 779 m 257
 835.5 819 l 257
 918 819 l 258
 996.359 819 1061.33 776 1061.33 673 c 257
 1021.33 673 l 257
 1021.33 770 963.333 779 918 779 c 258
 835.5 779 l 257
EndSplineSet
Ligature2: "si_abvs_5 subtable" si_KVa si_MatraI
EndChar

StartChar: si_KVIi
Encoding: 447 -1 217
GlifName: si_K_V_I_i
Width: 1091
VWidth: 0
GlyphClass: 3
Flags: W
LayerCount: 2
Back
Fore
SplineSet
183.589 -4.77248 m 256
 122.991 -4.77248 65.0029 38.8293 65.0029 114 c 258
 65.0488 146.19 l 258
 65.0488 167.92 63.5771 199 44 199 c 256
 40.7168 199 34.2529 197.3 30 196 c 257
 30 246 l 257
 100 237 105.981 184.713 106 166 c 257
 106 114 l 258
 106 65.1681 146.371 37.5337 185.225 37.5337 c 256
 221.265 37.5337 256 61.31 256 114 c 258
 256 192 l 257
 295.88 192 l 257
 296 114 l 258
 296.081 61.336 334.791 37.5447 374.917 37.5447 c 256
 418.136 37.5447 462.998 65.1464 463 114 c 258
 463.004 240 l 258
 463.004 331.199 426 355 326.776 369.904 c 257
 365 403 l 257
 441 391 503 361.827 503 240 c 258
 503 114 l 258
 503 35.0935 445.06 -3.77233 381.868 -3.77233 c 256
 344.851 -3.77233 306.032 9.56382 276 36 c 257
 250.392 8.16971 216.603 -4.77248 183.589 -4.77248 c 256
780 0 m 257
 660.896 0 573 85.7334 573 181 c 256
 573 230.761 584.247 268.244 610 296 c 256
 652.614 341.928 718.439 349 813 349 c 257
 813 449.276 689.223 525.129 551.169 525.129 c 256
 473.074 525.129 390.41 500.856 323 443 c 258
 69 225 l 257
 30 196 l 257
 30 246 l 257
 294 471 l 258
 371.578 537.118 469.312 566.684 561.324 566.684 c 256
 715.702 566.684 853.974 483.457 853.932 350 c 257
 854 309 l 257
 805 309 l 258
 667.373 309 613 285.762 613 181 c 256
 613 111.89 672.708 40 780 40 c 257
 780 0 l 257
704 612 m 258
 629.669 612 592.977 663.304 592.977 714.83 c 256
 592.977 766.802 630.309 819 704 819 c 258
 780 819 l 257
 780 779 l 257
 694 779 l 258
 652.071 779 630.881 747.025 630.881 715.163 c 256
 630.881 683.526 651.774 652 694 652 c 258
 779.5 652 l 257
 779.5 612 l 257
 704 612 l 258
836 0 m 257
 836 40 l 257
 949.056 40 1020 95.2852 1020 241 c 258
 1020 411 l 258
 1020 558.715 949.056 612 836 612 c 257
 836 652 l 257
 842.529 652 848.901 651.859 855.117 651.578 c 256
 1000.64 644.998 1061 561.604 1061 411 c 258
 1061 241 l 258
 1061 83.9629 995.37 0 836 0 c 257
988.96 603.56 m 256
 939.04 603.56 898.72 643.88 898.72 693.8 c 256
 898.72 729.745 919.625 760.713 949.967 775.235 c 257
 932.36 778.291 914.931 779 901 779 c 258
 835.5 779 l 257
 835.5 819 l 257
 917 819 l 258
 1002.22 819 1079.17 789.785 1079.2 693.8 c 256
 1079.2 643.88 1038.88 603.56 988.96 603.56 c 256
72 440 m 257
 33 452 l 257
 64.0312 533.159 124.235 565.088 181.841 565.088 c 256
 244.9 565.088 304.845 526.827 320 473 c 257
 289 445 l 257
 276.237 490.735 229.535 521.199 181.232 521.199 c 256
 138.707 521.199 94.9414 497.588 72 440 c 257
EndSplineSet
Ligature2: "si_abvs_6 subtable" si_KVa si_MatraIi
EndChar

StartChar: si_KVa
Encoding: 430 -1 220
GlifName: si_K_V_a
Width: 1091
VWidth: 0
GlyphClass: 3
Flags: W
HStem: -5 140 399 102 616 138
VStem: 33 138 398 140
LayerCount: 2
Back
Fore
SplineSet
591.715 643.683 m 257
 629.123 711.087 709.293 755 780 755 c 257
 780 715 l 257
 721.617 715 662.452 681.164 631.461 630.188 c 257
 591.715 643.683 l 257
836 0 m 257
 836 40 l 257
 949.056 40 1020 95.2852 1020 241 c 258
 1020 514 l 258
 1020 661.715 949.056 715 836 715 c 257
 836 755 l 257
 995.37 755 1061 671.037 1061 514 c 258
 1061 241 l 258
 1061 83.9629 995.37 0 836 0 c 257
33 452 m 257
 64.0312 533.159 124.235 565.088 181.841 565.088 c 256
 244.9 565.088 304.845 526.827 320 473 c 257
 289 445 l 257
 276.237 490.735 229.535 521.199 181.232 521.199 c 256
 138.707 521.199 94.9414 497.588 72 440 c 257
 33 452 l 257
30 196 m 257
 30 246 l 257
 100 237 105.981 184.713 106 166 c 257
 106 114 l 258
 106 65.1681 146.371 37.5337 185.225 37.5337 c 256
 221.265 37.5337 256 61.31 256 114 c 258
 256 192 l 257
 295.88 192 l 257
 296 114 l 258
 296.081 61.336 334.791 37.5447 374.917 37.5447 c 256
 418.136 37.5447 462.998 65.1464 463 114 c 258
 463.004 240 l 258
 463.004 331.199 426 355 326.776 369.904 c 257
 365 403 l 257
 441 391 503 361.827 503 240 c 258
 503 114 l 258
 503 35.0935 445.06 -3.77233 381.868 -3.77233 c 256
 344.851 -3.77233 306.032 9.56382 276 36 c 257
 250.392 8.16971 216.603 -4.77248 183.589 -4.77248 c 256
 122.991 -4.77248 65.0029 38.8293 65.0029 114 c 258
 65.0488 146.19 l 258
 65.0488 167.92 63.5771 199 44 199 c 256
 40.7168 199 34.2529 197.3 30 196 c 257
30 246 m 257
 294 471 l 258
 371.578 537.118 469.312 566.684 561.324 566.684 c 256
 715.702 566.684 853.974 483.457 853.932 350 c 257
 854 309 l 257
 805 309 l 258
 667.373 309 613 285.762 613 181 c 256
 613 111.89 672.708 40 780 40 c 257
 780 0 l 257
 660.896 0 573 85.7334 573 181 c 256
 573 230.761 584.247 268.244 610 296 c 256
 652.614 341.928 718.439 349 813 349 c 257
 813 449.276 689.223 525.129 551.169 525.129 c 256
 473.074 525.129 390.41 500.856 323 443 c 258
 69 225 l 257
 30 196 l 257
 30 246 l 257
EndSplineSet
PickledDataWithLists: "(dp1
S'com.fontlab.hintData'
p2
(dp3
S'vhints'
p4
(lp5
(dp6
S'position'
p7
I33
sS'width'
p8
I138
sa(dp9
g7
I398
sg8
I140
sasS'hhints'
p10
(lp11
(dp12
g7
I-5
sg8
I140
sa(dp13
g7
I399
sg8
I102
sa(dp14
g7
I616
sg8
I138
sass."
Ligature2: "si_akhands subtable" si_Ka si_Halant si_Va
EndChar

StartChar: si_Ka
Encoding: 21 3482 221
GlifName: si_K_a
Width: 760
VWidth: 0
GlyphClass: 2
Flags: W
LayerCount: 2
Back
Fore
SplineSet
33 452 m 257
 64.0312 533.159 124.235 565.088 181.841 565.088 c 256
 244.9 565.088 304.845 526.827 320 473 c 257
 289 445 l 257
 276.237 490.735 229.535 521.199 181.232 521.199 c 256
 138.707 521.199 94.9414 497.588 72 440 c 257
 33 452 l 257
30 196 m 257
 30 246 l 257
 100 237 105.981 184.713 106 166 c 257
 106 114 l 258
 106 65.1681 146.371 37.5337 185.225 37.5337 c 256
 221.265 37.5337 256 61.31 256 114 c 258
 256 192 l 257
 295.88 192 l 257
 296 114 l 258
 296.081 61.336 334.791 37.5447 374.917 37.5447 c 256
 418.136 37.5447 462.998 65.1464 463 114 c 258
 463.004 240 l 258
 463.004 331.199 426 355 326.776 369.904 c 257
 365 403 l 257
 441 391 503 361.827 503 240 c 258
 503 114 l 258
 503 35.0935 445.06 -3.77233 381.868 -3.77233 c 256
 344.851 -3.77233 306.032 9.56382 276 36 c 257
 250.392 8.16971 216.603 -4.77248 183.589 -4.77248 c 256
 122.991 -4.77248 65.0029 38.8293 65.0029 114 c 258
 65.0488 146.19 l 258
 65.0488 167.92 63.5771 199 44 199 c 256
 40.7168 199 34.2529 197.3 30 196 c 257
30 196 m 257
 30 246 l 257
 320 494 l 257
 375.041 536.719 443.008 559.834 507.668 559.834 c 256
 624.207 559.834 730 484.744 730 314 c 258
 730 192 l 258
 729.58 65.7373 693.296 -1 554 -1 c 257
 554 39 l 257
 616.112 39 690 47.959 690 192 c 258
 690 314 l 258
 690 454.189 597.759 520.572 498.843 520.572 c 256
 446.546 520.572 392.383 502.016 349 466 c 257
 69 225 l 257
 30 196 l 257
EndSplineSet
EndChar

StartChar: si_Kh.halant
Encoding: 99 -1 224
GlifName: si_K_h.halant
Width: 586
VWidth: 0
GlyphClass: 3
Flags: W
LayerCount: 2
Back
Fore
SplineSet
211 40 m 257
 211 0 l 257
 91.1055 0 30 45 30 177 c 258
 30 284 l 258
 30 389.836 100.241 443.319 170.235 443.319 c 256
 239.739 443.319 309 390.582 309 284 c 258
 309 -65 l 257
 268 -65 l 257
 268 284 l 258
 268 359.832 218.751 397.785 169.502 397.785 c 256
 120.284 397.785 71.0654 359.881 71 284 c 258
 70.917 177 l 258
 71 65 123.457 40 211 40 c 257
41.333 612 m 257
 41.333 652 l 257
 71.8223 652 l 257
 57.8994 670.11 50.9775 692.449 50.9775 714.83 c 256
 50.9775 766.802 88.3086 819 162 819 c 258
 256 819 l 257
 256 779 l 257
 152 779 l 258
 110.071 779 88.8809 747.025 88.8809 715.163 c 256
 88.8809 683.526 109.774 652 152 652 c 258
 331 652 l 257
 331 612 l 257
 41.333 612 l 257
331 652 m 257
 490.37 652 556 568.037 556 411 c 258
 556 411 556 142 556 142 c 258
 556 44.2545 484.17 -4.4454 412.256 -4.4454 c 256
 340.171 -4.4454 268 44.4857 268 142 c 258
 268 192 l 257
 309 192 l 257
 309 142 l 258
 309 75.4023 360.817 41.5402 412.348 41.5402 c 256
 463.314 41.5402 514 74.6635 514 142 c 258
 514 142 514 411 514 411 c 258
 514 558.715 444.056 612 331 612 c 257
 331 652 l 257
494.333 673 m 257
 494.333 770 446.333 779 401 779 c 258
 311.5 779 l 257
 311.5 819 l 257
 401 819 l 258
 479.359 819 534.333 776 534.333 673 c 257
 494.333 673 l 257
EndSplineSet
Ligature2: "si_halant_1 subtable" si_Kha si_Halant
EndChar

StartChar: si_KhI
Encoding: 100 -1 225
GlifName: si_K_hI_
Width: 586
VWidth: 0
GlyphClass: 3
Flags: W
HStem: 0 21<151.053 211> 616 138
VStem: 32 135 262 135 457 140
LayerCount: 2
Back
Fore
SplineSet
268 -65 m 257
 268 284 l 258
 268 359.832 218.751 397.785 169.502 397.785 c 256
 120.284 397.785 71.0654 359.881 71 284 c 258
 70.917 177 l 258
 71 65 123.457 40 211 40 c 257
 211 0 l 257
 91.1055 0 30 45 30 177 c 258
 30 284 l 258
 30 389.836 100.241 443.319 170.235 443.319 c 256
 239.739 443.319 309 390.582 309 284 c 258
 309 -65 l 257
 268 -65 l 257
412.256 -4.4454 m 256
 340.171 -4.4454 268 44.4857 268 142 c 258
 268 192 l 257
 309 192 l 257
 309 142 l 258
 309 75.4023 360.817 41.5402 412.348 41.5402 c 256
 463.314 41.5402 514 74.6635 514 142 c 258
 514 411 l 258
 514 558.715 444.056 612 331 612 c 257
 331 652 l 257
 490.37 652 556 568.037 556 411 c 258
 556 142 l 258
 556 44.2545 484.17 -4.4454 412.256 -4.4454 c 256
163 612 m 258
 88.6695 612 51.9774 663.304 51.9774 714.83 c 256
 51.9774 766.802 89.3087 819 163 819 c 258
 256 819 l 257
 256 779 l 257
 153 779 l 258
 111.071 779 89.8813 747.025 89.8813 715.163 c 256
 89.8813 683.526 110.774 652 153 652 c 258
 331 652 l 257
 331 612 l 257
 163 612 l 258
311.5 779 m 257
 311.5 819 l 257
 401 819 l 258
 479.359 819 534.333 776 534.333 673 c 257
 494.333 673 l 257
 494.333 770 446.333 779 401 779 c 258
 311.5 779 l 257
EndSplineSet
PickledDataWithLists: "(dp1
S'com.fontlab.hintData'
p2
(dp3
S'vhints'
p4
(lp5
(dp6
S'position'
p7
I32
sS'width'
p8
I135
sa(dp9
g7
I262
sg8
I135
sa(dp10
g7
I457
sg8
I140
sasS'hhints'
p11
(lp12
(dp13
g7
I0
sg8
I21
sa(dp14
g7
I616
sg8
I138
sass."
Ligature2: "si_abvs_1 subtable" si_Kha si_MatraI
EndChar

StartChar: si_KhIi
Encoding: 101 -1 226
GlifName: si_K_hI_i
Width: 586
VWidth: 0
GlyphClass: 3
Flags: W
HStem: 0 21<151.053 211> 616 138
VStem: 32 135 262 135 457 140
LayerCount: 2
Back
Fore
SplineSet
412.256 -4.4454 m 256
 340.171 -4.4454 268 44.4857 268 142 c 258
 268 192 l 257
 309 192 l 257
 309 142 l 258
 309 75.4023 360.817 41.5402 412.348 41.5402 c 256
 463.314 41.5402 514 74.6635 514 142 c 258
 514 411 l 258
 514 558.715 444.056 612 331 612 c 257
 331 652 l 257
 335.497 652 339.919 651.933 344.267 651.8 c 256
 494.021 647.204 556 563.606 556 411 c 258
 556 142 l 258
 556 44.2545 484.17 -4.4454 412.256 -4.4454 c 256
268 -65 m 257
 268 284 l 258
 268 359.832 218.751 397.785 169.502 397.785 c 256
 120.284 397.785 71.0654 359.881 71 284 c 258
 70.917 177 l 258
 71 65 123.457 40 211 40 c 257
 211 0 l 257
 91.1055 0 30 45 30 177 c 258
 30 284 l 258
 30 389.836 100.241 443.319 170.235 443.319 c 256
 239.739 443.319 309 390.582 309 284 c 258
 309 -65 l 257
 268 -65 l 257
163 612 m 258
 88.6695 612 51.9774 663.304 51.9774 714.83 c 256
 51.9774 766.802 89.3087 819 163 819 c 258
 256 819 l 257
 256 779 l 257
 153 779 l 258
 111.071 779 89.8813 747.025 89.8813 715.163 c 256
 89.8813 683.526 110.774 652 153 652 c 258
 331 652 l 257
 331 612 l 257
 163 612 l 258
457.96 603.56 m 256
 408.04 603.56 367.72 643.88 367.72 693.8 c 256
 367.72 729.745 388.625 760.713 418.967 775.235 c 257
 401.36 778.291 383.931 779 370 779 c 258
 311.5 779 l 257
 311.5 819 l 257
 386 819 l 258
 471.222 819 548.174 789.785 548.2 693.8 c 256
 548.2 643.88 507.88 603.56 457.96 603.56 c 256
EndSplineSet
PickledDataWithLists: "(dp1
S'com.fontlab.hintData'
p2
(dp3
S'vhints'
p4
(lp5
(dp6
S'position'
p7
I32
sS'width'
p8
I135
sa(dp9
g7
I262
sg8
I135
sa(dp10
g7
I457
sg8
I140
sasS'hhints'
p11
(lp12
(dp13
g7
I0
sg8
I21
sa(dp14
g7
I616
sg8
I138
sass."
Ligature2: "si_abvs_2 subtable" si_Kha si_MatraIi
EndChar

StartChar: si_KhR.halant
Encoding: 105 -1 227
GlifName: si_K_hR_.halant
Width: 586
VWidth: 0
GlyphClass: 2
Flags: W
LayerCount: 2
Back
Fore
SplineSet
311 -225 m 257
 311 -185 l 257
 436.492 -185 505.786 -120.229 505.786 -47.0527 c 256
 505.786 -14.9844 494.611 11.9023 471.704 32.124 c 257
 502.454 60.8232 l 257
 532.936 33.0381 547.003 -4.1416 547.003 -47.0527 c 256
 547.003 -161.31 447 -225.053 311 -225 c 257
254.833 -225.091 m 257
 112.746 -225.148 22.833 -161.891 22.833 -48.1436 c 257
 62.833 -48.1436 l 257
 62.833 -160.449 183.833 -185.182 254.833 -185.091 c 257
 254.833 -225.091 l 257
EndSplineSet
Refer: 224 -1 N 1 0 0 1 0 0 2
EndChar

StartChar: si_KhRI
Encoding: 106 -1 228
GlifName: si_K_hR_I_
Width: 586
VWidth: 0
GlyphClass: 3
Flags: W
LayerCount: 2
Back
Fore
SplineSet
311 -225 m 257
 311 -185 l 257
 436.492 -185 505.786 -120.229 505.786 -47.0527 c 256
 505.786 -14.9844 494.611 11.9023 471.704 32.124 c 257
 502.454 60.8232 l 257
 532.936 33.0381 547.003 -4.1416 547.003 -47.0527 c 256
 547.003 -161.31 447 -225.053 311 -225 c 257
254.833 -225.091 m 257
 112.746 -225.148 22.833 -161.891 22.833 -48.1436 c 257
 62.833 -48.1436 l 257
 62.833 -160.449 183.833 -185.182 254.833 -185.091 c 257
 254.833 -225.091 l 257
EndSplineSet
Refer: 225 -1 N 1 0 0 1 0 0 2
Ligature2: "si_abvs_3 subtable" si_KhRa si_MatraI
EndChar

StartChar: si_KhRIi
Encoding: 107 -1 229
GlifName: si_K_hR_I_i
Width: 586
VWidth: 0
GlyphClass: 3
Flags: W
LayerCount: 2
Back
Fore
SplineSet
311 -225 m 257
 311 -185 l 257
 436.492 -185 505.786 -120.229 505.786 -47.0527 c 256
 505.786 -14.9844 494.611 11.9023 471.704 32.124 c 257
 502.454 60.8232 l 257
 532.936 33.0381 547.003 -4.1416 547.003 -47.0527 c 256
 547.003 -161.31 447 -225.053 311 -225 c 257
254.833 -225.091 m 257
 112.746 -225.148 22.833 -161.891 22.833 -48.1436 c 257
 62.833 -48.1436 l 257
 62.833 -160.449 183.833 -185.182 254.833 -185.091 c 257
 254.833 -225.091 l 257
EndSplineSet
Refer: 226 -1 N 1 0 0 1 0 0 2
Ligature2: "si_abvs_4 subtable" si_KhRa si_MatraIi
EndChar

StartChar: si_KhRa
Encoding: 104 -1 230
GlifName: si_K_hR_a
Width: 586
VWidth: 0
GlyphClass: 3
Flags: W
LayerCount: 2
Back
Fore
SplineSet
320 -225 m 257
 320 -185 l 257
 445.493 -185 514.786 -120.23 514.786 -47.0527 c 256
 514.786 -14.9844 503.611 11.9023 480.704 32.124 c 257
 511.454 60.8232 l 257
 541.936 33.0381 556.003 -4.1416 556.003 -47.0527 c 256
 556.003 -161.31 456 -225.053 320 -225 c 257
263.833 -225.091 m 257
 121.746 -225.148 31.833 -161.891 31.833 -48.1436 c 257
 71.833 -48.1436 l 257
 71.833 -160.449 192.833 -185.182 263.833 -185.091 c 257
 263.833 -225.091 l 257
EndSplineSet
Refer: 233 3483 N 1 0 0 1 0 0 2
LCarets2: 2 0 0
Ligature2: "si_rakaar subtable" si_Kha si_Halant si_Ra
EndChar

StartChar: si_KhU
Encoding: 102 -1 231
GlifName: si_K_hU_
Width: 586
VWidth: 0
GlyphClass: 3
Flags: W
HStem: 0 40<167.228 211 167.228 211> 241 23 715 40<217.702 264 320 331>
VStem: 30 41<177 284 284 336.918> 41 39 268 41<-65 284 142 192 192 192 -65 321.916> 514 42<142 514>
LayerCount: 2
Back
Fore
SplineSet
412.256 -4.44531 m 256
 340.171 -4.44531 268 44.4854 268 142 c 258
 268 192 l 257
 309 192 l 257
 309 142 l 258
 309 75.4023 360.816 41.54 412.348 41.54 c 256
 463.313 41.54 514 74.6631 514 142 c 258
 514 514 l 258
 514 661.715 444.056 715 331 715 c 258
 320 715 l 257
 320 755 l 257
 331 755 l 258
 490.37 755 556 671.037 556 514 c 258
 556 142 l 258
 556 44.2549 484.17 -4.44531 412.256 -4.44531 c 256
268 -65 m 257
 268 284 l 258
 268 359.832 218.751 397.785 169.502 397.785 c 256
 120.284 397.785 71.0654 359.881 71 284 c 258
 70.917 177 l 258
 71 65 123.457 40 211 40 c 257
 211 0 l 257
 91.1055 0 30 45 30 177 c 258
 30 284 l 258
 30 389.836 100.24 443.319 170.234 443.319 c 256
 239.739 443.319 309 390.582 309 284 c 258
 309 -65 l 257
 268 -65 l 257
49 -165 m 257
 264 -165 l 257
 264 -205 l 257
 49 -205 l 257
 49 -165 l 257
81.375 553 m 257
 42.375 563 l 257
 42.375 680.776 159.933 755 264 755 c 257
 264 715 l 257
 171.405 715 81.375 651.181 81.375 553 c 257
320 -165 m 257
 498 -165 l 257
 498 -205 l 257
 320 -205 l 257
 320 -165 l 257
498 83 m 257
 538 83 l 257
 538 -205 l 257
 498 -205 l 257
 498 83 l 257
EndSplineSet
PickledDataWithLists: "(dp1
S'com.fontlab.hintData'
p2
(dp3
S'vhints'
p4
(lp5
(dp6
S'position'
p7
I30
sS'width'
p8
I41
sa(dp9
g7
I41
sg8
I39
sa(dp10
g7
I268
sg8
I41
sa(dp11
g7
I514
sg8
I42
sasS'hhints'
p12
(lp13
(dp14
g7
I0
sg8
I40
sa(dp15
g7
I241
sg8
I23
sa(dp16
g7
I715
sg8
I40
sass."
Ligature2: "si_blws_1 subtable" si_Kha si_MatraU
EndChar

StartChar: si_KhUu
Encoding: 103 -1 232
GlifName: si_K_hU_u
Width: 586
VWidth: 0
GlyphClass: 3
Flags: W
HStem: -205 140 -182 140 0 21<151.053 211> 616 139
VStem: 30 135 68 212 260 135 461 140 470 140
LayerCount: 2
Back
Fore
SplineSet
412.256 -4.44531 m 256
 340.171 -4.44531 268 44.4854 268 142 c 258
 268 192 l 257
 309 192 l 257
 309 142 l 258
 309 75.4023 360.816 41.54 412.348 41.54 c 256
 463.313 41.54 514 74.6631 514 142 c 258
 514 514 l 258
 514 661.715 444.056 715 331 715 c 258
 320 715 l 257
 320 755 l 257
 331 755 l 258
 490.37 755 556 671.037 556 514 c 258
 556 142 l 258
 556 44.2549 484.17 -4.44531 412.256 -4.44531 c 256
268 -65 m 257
 268 284 l 258
 268 359.832 218.751 397.785 169.502 397.785 c 256
 120.284 397.785 71.0654 359.881 71 284 c 258
 70.917 177 l 258
 71 65 123.457 40 211 40 c 257
 211 0 l 257
 91.1055 0 30 45 30 177 c 258
 30 284 l 258
 30 389.836 100.24 443.319 170.234 443.319 c 256
 239.739 443.319 309 390.582 309 284 c 258
 309 -65 l 257
 268 -65 l 257
51 -142 m 257
 77.1853 -155.703 98.3204 -160.636 117.163 -160.636 c 256
 165.629 -160.636 198.931 -128 264 -128 c 257
 264 -170 l 257
 198.504 -170 164.646 -200.902 115.873 -200.902 c 256
 97.2771 -200.902 76.5129 -196.41 51 -184 c 257
 51 -142 l 257
81.375 553 m 257
 42.375 563 l 257
 42.375 680.776 159.933 755 264 755 c 257
 264 715 l 257
 171.405 715 81.375 651.181 81.375 553 c 257
320 -128 m 257
 349.143 -128 418.825 -130.922 498 -161 c 257
 498 -205 l 257
 413.61 -171.253 348 -170 320 -170 c 257
 320 -128 l 257
498 83 m 257
 538 83 l 257
 538 -205 l 257
 498 -205 l 257
 498 83 l 257
EndSplineSet
PickledDataWithLists: "(dp1
S'com.fontlab.hintData'
p2
(dp3
S'vhints'
p4
(lp5
(dp6
S'position'
p7
I30
sS'width'
p8
I135
sa(dp9
g7
I68
sg8
I212
sa(dp10
g7
I260
sg8
I135
sa(dp11
g7
I461
sg8
I140
sa(dp12
g7
I470
sg8
I140
sasS'hhints'
p13
(lp14
(dp15
g7
I-205
sg8
I140
sa(dp16
g7
I-182
sg8
I140
sa(dp17
g7
I0
sg8
I21
sa(dp18
g7
I616
sg8
I139
sass."
Ligature2: "si_blws_3 subtable" si_Kha si_MatraUu
EndChar

StartChar: si_Kha
Encoding: 22 3483 233
GlifName: si_K_ha
Width: 586
VWidth: 0
GlyphClass: 2
Flags: W
HStem: 0 40<167.228 211 167.228 211> 241 23 715 40<217.702 264 320 331>
VStem: 30 41<177 284 284 336.918> 42 39 268 41<-65 284 142 192 192 192 -65 321.916> 514 42<142 514>
LayerCount: 2
Back
Fore
SplineSet
412.256 -4.4454 m 256
 340.171 -4.4454 268 44.4857 268 142 c 258
 268 192 l 257
 309 192 l 257
 309 142 l 258
 309 75.4023 360.817 41.5402 412.348 41.5402 c 256
 463.314 41.5402 514 74.6635 514 142 c 258
 514 142 514 514 514 514 c 258
 514 661.715 444.056 715 331 715 c 258
 320 715 l 257
 320 755 l 257
 331 755 l 258
 490.37 755 556 671.037 556 514 c 258
 556 514 556 142 556 142 c 258
 556 44.2545 484.17 -4.4454 412.256 -4.4454 c 256
268 -65 m 257
 268 284 l 258
 268 359.832 218.751 397.785 169.502 397.785 c 256
 120.284 397.785 71.0654 359.881 71 284 c 258
 70.917 177 l 258
 71 65 123.457 40 211 40 c 257
 211 0 l 257
 91.1055 0 30 45 30 177 c 258
 30 284 l 258
 30 389.836 100.241 443.319 170.235 443.319 c 256
 239.739 443.319 309 390.582 309 284 c 258
 309 -65 l 257
 268 -65 l 257
81.375 553 m 257
 42.375 563 l 257
 42.375 680.776 159.933 755 264 755 c 257
 264 715 l 257
 171.405 715 81.375 651.181 81.375 553 c 257
EndSplineSet
PickledDataWithLists: "(dp1
S'com.fontlab.hintData'
p2
(dp3
S'vhints'
p4
(lp5
(dp6
S'position'
p7
I30
sS'width'
p8
I41
sa(dp9
g7
I42
sg8
I39
sa(dp10
g7
I268
sg8
I41
sa(dp11
g7
I514
sg8
I42
sasS'hhints'
p12
(lp13
(dp14
g7
I0
sg8
I40
sa(dp15
g7
I241
sg8
I23
sa(dp16
g7
I715
sg8
I40
sass."
EndChar

StartChar: si_LI
Encoding: 360 -1 236
GlifName: si_L_I_
Width: 606
VWidth: 0
GlyphClass: 3
Flags: HW
LayerCount: 2
Back
Fore
SplineSet
266 530 m 257
 266 570 l 257
 333 570 l 257
 333 530 l 257
 266 530 l 257
EndSplineSet
Refer: 269 3538 S 1 0 0 1 624 0 2
Refer: 240 3517 N 1 0 0 1 0 0 2
LCarets2: 1 0
Ligature2: "si_abvs_1 subtable" si_La si_MatraI
EndChar

StartChar: si_LIi
Encoding: 361 -1 237
GlifName: si_L_I_i
Width: 606
VWidth: 0
GlyphClass: 3
Flags: HW
LayerCount: 2
Back
Fore
SplineSet
266 530 m 257
 266 570 l 257
 333 570 l 257
 333 530 l 257
 266 530 l 257
EndSplineSet
Refer: 270 3539 N 1 0 0 1 620 0 2
Refer: 240 3517 N 1 0 0 1 0 0 2
LCarets2: 1 0
Ligature2: "si_abvs_2 subtable" si_La si_MatraIi
EndChar

StartChar: si_LU
Encoding: 362 -1 238
GlifName: si_L_U_
Width: 606
VWidth: 0
GlyphClass: 3
Flags: W
LayerCount: 2
Back
Fore
SplineSet
276 234.5 m 258
 276 234.5 276 292.52 276 299.5 c 257
 319 299.5 l 257
 319 234.5 l 258
 319 171.441 367.608 138.414 418.599 138.414 c 256
 474.736 138.414 533.762 178.443 534 262.5 c 258
 534.195 335.5 l 258
 533.856 493.147 443.391 530 330 530 c 257
 330 570 l 257
 438.902 570 576 546.216 576 335.5 c 258
 576 262.5 l 258
 576 148.563 496.88 94.6728 419.904 94.6728 c 256
 346.99 94.6728 276 143.026 276 234.5 c 258
270 -40 m 257
 163.82 -40 30 3.78418 30 204.5 c 258
 30 325.5 l 258
 30 526.216 163.82 570 270 570 c 257
 270 530 l 257
 160.614 530 73.1318 473.147 72.8047 325.5 c 258
 72.8047 204.5 l 258
 73.1318 56.8525 160.614 0 270 0 c 257
 270 -40 l 257
74 -165 m 257
 270 -165 l 257
 270 -205 l 257
 74 -205 l 257
 74 -165 l 257
203 290.5 m 257
 203 330.5 l 257
 393 330.5 l 257
 393 290.5 l 257
 203 290.5 l 257
330 -165 m 257
 510 -165 l 257
 510 -205 l 257
 330 -205 l 257
 330 -165 l 257
330 -40 m 257
 330 0 l 257
 526 0 l 257
 526 -40 l 257
 330 -40 l 257
494 0 m 257
 534 0 l 257
 534 -205 l 257
 494 -205 l 257
 494 0 l 257
EndSplineSet
Ligature2: "si_blws_1 subtable" si_La si_MatraU
EndChar

StartChar: si_LUu
Encoding: 363 -1 239
GlifName: si_L_U_u
Width: 606
VWidth: 0
GlyphClass: 3
Flags: W
HStem: -245 129 -217 124 -61 133 114 100 251 114 251 72 426 140
VStem: 30 146 258 128 303 61 364 230 465 129 478 143
LayerCount: 2
Back
Fore
SplineSet
419.904 94.6728 m 256
 346.99 94.6728 276 143.026 276 234.5 c 258
 276 234.5 276 292.52 276 299.5 c 257
 319 299.5 l 257
 319 234.5 l 258
 319 171.441 367.608 138.414 418.599 138.414 c 256
 474.736 138.414 533.762 178.443 534 262.5 c 258
 534.195 335.5 l 258
 533.856 493.147 443.391 530 330 530 c 257
 330 570 l 257
 438.902 570 576 546.216 576 335.5 c 258
 576 262.5 l 258
 576 148.563 496.88 94.6728 419.904 94.6728 c 256
270 -40 m 257
 163.82 -40 30 3.78418 30 204.5 c 258
 30 325.5 l 258
 30 526.216 163.82 570 270 570 c 257
 270 530 l 257
 160.614 530 73.1318 473.147 72.8047 325.5 c 258
 72.8047 204.5 l 258
 73.1318 56.8525 160.614 0 270 0 c 257
 270 -40 l 257
149.955 -199.417 m 256
 129.053 -199.417 105.279 -190.562 75 -164 c 257
 75 -122 l 257
 106.12 -149.181 129.923 -158.24 150.573 -158.24 c 256
 191.875 -158.24 220.571 -122 270 -122 c 257
 270 -164 l 257
 222.079 -164 191.759 -199.417 149.955 -199.417 c 256
494 -205 m 257
 406.247 -159.679 345.793 -164 330 -164 c 257
 330 -122 l 257
 339.34 -122 404.558 -116.919 494 -161 c 257
 494 -205 l 257
203 290.5 m 257
 203 330.5 l 257
 393 330.5 l 257
 393 290.5 l 257
 203 290.5 l 257
330 -40 m 257
 330 0 l 257
 526 0 l 257
 526 -40 l 257
 330 -40 l 257
494 -205 m 257
 494 0 l 257
 534 0 l 257
 534 -205 l 257
 494 -205 l 257
EndSplineSet
PickledDataWithLists: "(dp1
S'com.fontlab.hintData'
p2
(dp3
S'vhints'
p4
(lp5
(dp6
S'position'
p7
I30
sS'width'
p8
I146
sa(dp9
g7
I258
sg8
I128
sa(dp10
g7
I303
sg8
I61
sa(dp11
g7
I364
sg8
I230
sa(dp12
g7
I465
sg8
I129
sa(dp13
g7
I478
sg8
I143
sasS'hhints'
p14
(lp15
(dp16
g7
I-245
sg8
I129
sa(dp17
g7
I-217
sg8
I124
sa(dp18
g7
I-61
sg8
I133
sa(dp19
g7
I114
sg8
I100
sa(dp20
g7
I251
sg8
I114
sa(dp21
g7
I251
sg8
I72
sa(dp22
g7
I426
sg8
I140
sass."
Ligature2: "si_blws_3 subtable" si_La si_MatraUu
EndChar

StartChar: si_La
Encoding: 54 3517 240
GlifName: si_L_a
Width: 606
VWidth: 0
GlyphClass: 2
Flags: W
HStem: -169 40<216.91 270> 290 40 290 9 530 40<216.91 270 216.91 270 330 384.451>
VStem: 30 43 276 43<234.5 299.5 296.01 299.5> 534 42<205.531 262.5>
LayerCount: 2
Back
Fore
SplineSet
276 234.5 m 258
 276 234.5 276 292.52 276 299.5 c 257
 319 299.5 l 257
 319 234.5 l 258
 319 171.441 367.608 138.414 418.599 138.414 c 256
 474.736 138.414 533.762 178.443 534 262.5 c 258
 534.195 335.5 l 258
 533.856 493.147 443.391 530 330 530 c 257
 330 570 l 257
 438.902 570 576 546.216 576 335.5 c 258
 576 262.5 l 258
 576 148.563 496.88 94.6728 419.904 94.6728 c 256
 346.99 94.6728 276 143.026 276 234.5 c 258
270 -169 m 257
 163.82 -169 30 -125.216 30 75.5 c 258
 30 325.5 l 258
 30 526.216 163.82 570 270 570 c 257
 270 530 l 257
 160.614 530 73.1318 473.147 72.8047 325.5 c 258
 72.8047 75.5 l 258
 73.1318 -72.1475 160.614 -129 270 -129 c 257
 270 -169 l 257
203 290.5 m 257
 203 330.5 l 257
 393 330.5 l 257
 393 290.5 l 257
 203 290.5 l 257
330 -129.1 m 257
 330 -169.1 l 257
 427.035 -169.1 519.201 -137.797 563 -10.875 c 257
 524 0 l 257
 490.998 -90.0127 428.963 -129.1 330 -129.1 c 257
EndSplineSet
PickledDataWithLists: "(dp1
S'com.fontlab.hintData'
p2
(dp3
S'vhints'
p4
(lp5
(dp6
S'position'
p7
I30
sS'width'
p8
I43
sa(dp9
g7
I276
sg8
I43
sa(dp10
g7
I534
sg8
I42
sasS'hhints'
p11
(lp12
(dp13
g7
I-169
sg8
I40
sa(dp14
g7
I290
sg8
I40
sa(dp15
g7
I290
sg8
I9
sa(dp16
g7
I530
sg8
I40
sass."
EndChar

StartChar: si_LlI
Encoding: 415 -1 243
GlifName: si_L_lI_
Width: 609
VWidth: 0
GlyphClass: 3
Flags: W
LayerCount: 2
Back
Fore
SplineSet
130 602 m 257
 130 630 l 257
 130 713 185.741 789 286 789 c 257
 377 789 l 257
 477.259 789 533 713 533 630 c 257
 533 602 l 257
 493 602 l 257
 493 654.112 483.857 749 361 749 c 257
 302 749 l 257
 179.143 749 170 654.112 170 602 c 257
 130 602 l 257
EndSplineSet
Refer: 247 3525 N 1 0 0 1 0 0 2
Ligature2: "si_abvs_1 subtable" si_Lla si_MatraI
EndChar

StartChar: si_LlIi
Encoding: 416 -1 244
GlifName: si_L_lI_i
Width: 609
VWidth: 0
GlyphClass: 3
Flags: W
LayerCount: 2
Back
Fore
SplineSet
458.96 573.56 m 256
 409.04 573.56 368.72 613.88 368.72 663.8 c 256
 368.72 713.72 409.04 754.04 458.96 754.04 c 256
 508.88 754.04 549.2 713.72 549.2 663.8 c 256
 549.2 613.88 508.88 573.56 458.96 573.56 c 256
130 602 m 257
 130 630 l 257
 130 713 185.741 789 286 789 c 257
 397 789 l 257
 482.222 789 549.174 759.785 549.2 663.8 c 257
 504 663 l 257
 504 741 427.783 749 381 749 c 257
 302 749 l 257
 179.143 749 170 654.112 170 602 c 257
 130 602 l 257
EndSplineSet
Refer: 247 3525 N 1 0 0 1 0 0 2
Ligature2: "si_abvs_2 subtable" si_Lla si_MatraIi
EndChar

StartChar: si_LlU
Encoding: 417 -1 245
GlifName: si_L_lU_
Width: 687
VWidth: 0
GlyphClass: 3
Flags: W
LayerCount: 2
Back
Fore
SplineSet
94 -8 m 257
 34.3584 69.1836 30 118.444 30 209 c 258
 30 240 l 258
 30 383.545 95.2634 443.66 169.526 443.66 c 256
 185.8 443.66 202.505 440.773 219.051 435.245 c 256
 219 392 l 257
 200.468 398.285 184.04 401.168 169.518 401.168 c 256
 93.925 401.168 70 323.047 70 240 c 258
 70 209 l 258
 70 128.436 71.5576 84.5967 136 8 c 257
 94 -8 l 257
EndSplineSet
Refer: 397 3509 N 1 0 0 1 139 0 2
Ligature2: "si_blws_1 subtable" si_Lla si_MatraU
EndChar

StartChar: si_LlUu
Encoding: 418 -1 246
GlifName: si_L_lU_u
Width: 944
VWidth: 0
GlyphClass: 3
Flags: W
LayerCount: 2
Back
Fore
SplineSet
94 -8 m 257
 34.3584 69.1836 30 118.444 30 209 c 258
 30 240 l 258
 30 383.545 95.2634 443.66 169.526 443.66 c 256
 185.8 443.66 202.505 440.773 219.051 435.245 c 256
 219 392 l 257
 200.468 398.285 184.04 401.168 169.518 401.168 c 256
 93.925 401.168 70 323.047 70 240 c 258
 70 209 l 258
 70 128.436 71.5576 84.5967 136 8 c 257
 94 -8 l 257
EndSplineSet
Refer: 263 3537 N 1 0 0 1 667 0 2
Refer: 397 3509 N 1 0 0 1 139 0 2
Ligature2: "si_blws_3 subtable" si_Lla si_MatraUu
EndChar

StartChar: si_Lla
Encoding: 60 3525 247
GlifName: si_L_la
Width: 609
VWidth: 0
GlyphClass: 2
Flags: W
LayerCount: 2
Back
Fore
SplineSet
108 415 m 257
 108.025 437 l 257
 108.025 519.284 156.137 564 231.516 564 c 256
 261.301 564 302.082 551.1 324.758 515.948 c 257
 347.434 551.1 388.215 564 418 564 c 256
 496.379 564 540.125 519.284 540.125 437 c 257
 499.854 437 l 257
 499.85 495.545 467.64 522.298 421.258 522.298 c 256
 379.687 522.298 345.15 492 345.075 436.376 c 257
 305.075 436.376 l 257
 305 492 269.829 522.298 228.258 522.298 c 256
 177.876 522.298 148.301 495.545 148.296 425 c 257
 108 415 l 257
30 77 m 258
 30 194 l 258
 30 322.197 131.979 388 215 388 c 258
 540 388 l 257
 540 348 l 257
 218 348 l 258
 149.378 348 72.002 296.882 71.9961 195 c 258
 72 77 l 258
 72 -84.5693 184.412 -129 283 -129 c 256
 283 -170 l 256
 131.835 -170 30.1154 -89.9693 30 77 c 258
115 323 m 257
 156 349.2 l 257
 156 302.128 160.198 139.11 315 139.11 c 258
 367 139.11 l 258
 432.105 139.11 478.389 167.704 499 216 c 257
 540 205 l 257
 515 146 462.733 99.0869 367 99 c 258
 315 99.1104 l 258
 107.263 99.1104 115 323 115 323 c 257
344 -130 m 257
 344 -170 l 257
 443.057 -170 559.601 -140.143 589 -0.875 c 257
 549 10 l 257
 523 -102 436.158 -130 344 -130 c 257
EndSplineSet
EndChar

StartChar: si_M.halant
Encoding: 324 -1 249
GlifName: si_M_.halant
Width: 570
VWidth: 0
GlyphClass: 3
Flags: W
LayerCount: 2
Back
Fore
SplineSet
30 252 m 258
 30 336 l 258
 30 433.794 87.6279 478.511 141.625 478.511 c 256
 189.223 478.511 234 443.766 234 380 c 258
 234 315 l 258
 234 288.714 254.711 275.607 275.442 275.607 c 256
 296.211 275.607 317 288.763 317 315 c 258
 317 469 l 257
 357 469 l 257
 357 310 l 258
 357 256.851 316.223 230.25 275.46 230.25 c 256
 234.723 230.25 194 256.816 194 310 c 258
 194 380 l 258
 194 415.421 166.887 437.969 138.018 437.969 c 256
 105.148 437.969 70 408.739 70 336 c 258
 70 252 l 258
 70 53.8477 203.323 40 243 40 c 257
 243 0 l 257
 67.2822 0 30 143 30 252 c 258
39.333 612 m 257
 39.333 652 l 257
 69.8223 652 l 257
 55.8994 670.11 48.9775 692.449 48.9775 714.83 c 256
 48.9775 766.802 86.3086 819 160 819 c 258
 243 819 l 257
 243 779 l 257
 150 779 l 258
 108.071 779 86.8809 747.025 86.8809 715.163 c 256
 86.8809 683.526 107.774 652 150 652 c 258
 299 652 l 257
 299 612 l 257
 39.333 612 l 257
299 0 m 257
 299 40 l 257
 412.056 40 499 95.2852 499 241 c 258
 499 421 l 258
 499 584.715 437.056 612 299 612 c 257
 299 652 l 257
 490.37 652 540 584.037 540 421 c 258
 540 241 l 258
 540 83.9629 458.37 0 299 0 c 257
473.333 673 m 257
 473.333 770 425.333 779 380 779 c 258
 298.5 779 l 257
 298.5 819 l 257
 380 819 l 258
 458.359 819 513.333 776 513.333 673 c 257
 473.333 673 l 257
EndSplineSet
Ligature2: "si_halant_1 subtable" si_Ma si_Halant
EndChar

StartChar: si_MI
Encoding: 325 -1 250
GlifName: si_M_I_
Width: 570
VWidth: 0
GlyphClass: 3
Flags: W
LayerCount: 2
Back
Fore
SplineSet
30 252 m 258
 30 336 l 258
 30 433.794 87.6279 478.511 141.625 478.511 c 256
 189.223 478.511 234 443.766 234 380 c 258
 234 315 l 258
 234 288.714 254.711 275.607 275.442 275.607 c 256
 296.211 275.607 317 288.763 317 315 c 258
 317 469 l 257
 357 469 l 257
 357 310 l 258
 357 256.851 316.223 230.25 275.46 230.25 c 256
 234.723 230.25 194 256.816 194 310 c 258
 194 380 l 258
 194 415.421 166.887 437.969 138.018 437.969 c 256
 105.148 437.969 70 408.739 70 336 c 258
 70 252 l 258
 70 53.8477 203.323 40 243 40 c 257
 243 0 l 257
 67.2822 0 30 143 30 252 c 258
160 612 m 258
 85.6699 612 48.9775 663.304 48.9775 714.83 c 256
 48.9775 766.802 86.3262 819 160 819 c 258
 244 819 l 257
 244 779 l 257
 150 779 l 258
 108.08 779 86.8809 747.025 86.8809 715.163 c 256
 86.8809 683.526 107.774 652 150 652 c 258
 299 652 l 257
 299 612 l 257
 160 612 l 258
299 0 m 257
 299 40 l 257
 412.056 40 499 95.2852 499 241 c 258
 499 421 l 258
 499 584.715 437.056 612 299 612 c 257
 299 652 l 257
 490.37 652 540 584.037 540 421 c 258
 540 241 l 258
 540 83.9629 458.37 0 299 0 c 257
473.833 673 m 257
 473.833 770 425.833 779 380.5 779 c 258
 299 779 l 257
 299 819 l 257
 380.5 819 l 258
 458.859 819 513.833 776 513.833 673 c 257
 473.833 673 l 257
EndSplineSet
Ligature2: "si_abvs_1 subtable" si_Ma si_MatraI
EndChar

StartChar: si_MIi
Encoding: 326 -1 251
GlifName: si_M_I_i
Width: 570
VWidth: 0
GlyphClass: 3
Flags: W
LayerCount: 2
Back
Fore
SplineSet
445.46 603.56 m 256
 395.54 603.56 355.22 643.88 355.22 693.8 c 256
 355.22 729.745 376.125 760.713 406.467 775.235 c 257
 388.86 778.291 371.431 779 357.5 779 c 258
 299 779 l 257
 299 819 l 257
 373.5 819 l 258
 458.722 819 535.674 789.785 535.7 693.8 c 256
 535.7 643.88 495.38 603.56 445.46 603.56 c 256
160 612 m 258
 85.6699 612 48.9775 663.304 48.9775 714.83 c 256
 48.9775 766.802 86.3262 819 160 819 c 258
 244 819 l 257
 244 779 l 257
 150 779 l 258
 108.08 779 86.8809 747.025 86.8809 715.163 c 256
 86.8809 683.526 107.774 652 150 652 c 258
 299 652 l 257
 299 612 l 257
 160 612 l 258
299 0 m 257
 299 40 l 257
 412.056 40 499 95.2852 499 241 c 258
 499 421 l 258
 499 584.715 437.056 612 299 612 c 257
 299 652 l 257
 490.37 652 540 584.037 540 421 c 258
 540 241 l 258
 540 83.9629 458.37 0 299 0 c 257
30 252 m 258
 30 336 l 258
 30 433.794 87.6279 478.511 141.625 478.511 c 256
 189.223 478.511 234 443.766 234 380 c 258
 234 315 l 258
 234 288.714 254.711 275.607 275.442 275.607 c 256
 296.211 275.607 317 288.763 317 315 c 258
 317 469 l 257
 357 469 l 257
 357 310 l 258
 357 256.851 316.223 230.25 275.46 230.25 c 256
 234.723 230.25 194 256.816 194 310 c 258
 194 380 l 258
 194 415.421 166.887 437.969 138.018 437.969 c 256
 105.148 437.969 70 408.739 70 336 c 258
 70 252 l 258
 70 53.8477 203.323 40 243 40 c 257
 243 0 l 257
 67.2822 0 30 143 30 252 c 258
EndSplineSet
Ligature2: "si_abvs_2 subtable" si_Ma si_MatraIi
EndChar

StartChar: si_MR.halant
Encoding: 330 -1 252
GlifName: si_M_R_.halant
Width: 570
VWidth: 0
GlyphClass: 2
Flags: W
LayerCount: 2
Back
Fore
SplineSet
300 -225 m 257
 300 -185 l 257
 463.851 -185 558.009 -26.0862 446.704 52.124 c 257
 477.454 80.8232 l 257
 623.507 -32.3096 501.84 -225.078 300 -225 c 257
243.833 -225.091 m 257
 110.746 -225.148 27.833 -141.891 27.833 -48.1436 c 257
 67.833 -48.1436 l 257
 67.833 -140.449 181.833 -185.182 243.833 -185.091 c 257
 243.833 -225.091 l 257
EndSplineSet
Refer: 249 -1 N 1 0 0 1 0 0 2
EndChar

StartChar: si_MRI
Encoding: 332 -1 253
GlifName: si_M_R_I_
Width: 570
VWidth: 0
GlyphClass: 3
Flags: W
LayerCount: 2
Back
Fore
SplineSet
300 -225 m 257
 300 -185 l 257
 463.851 -185 558.009 -26.0862 446.704 52.124 c 257
 477.454 80.8232 l 257
 623.507 -32.3096 501.84 -225.078 300 -225 c 257
243.833 -225.091 m 257
 110.746 -225.148 27.833 -141.891 27.833 -48.1436 c 257
 67.833 -48.1436 l 257
 67.833 -140.449 181.833 -185.182 243.833 -185.091 c 257
 243.833 -225.091 l 257
EndSplineSet
Refer: 250 -1 N 1 0 0 1 0 0 2
Ligature2: "si_abvs_3 subtable" si_MRa si_MatraI
EndChar

StartChar: si_MRIi
Encoding: 333 -1 254
GlifName: si_M_R_I_i
Width: 570
VWidth: 0
GlyphClass: 3
Flags: W
LayerCount: 2
Back
Fore
SplineSet
300 -225 m 257
 300 -185 l 257
 463.851 -185 558.009 -26.0862 446.704 52.124 c 257
 477.454 80.8232 l 257
 623.507 -32.3096 501.84 -225.078 300 -225 c 257
243.833 -225.091 m 257
 110.746 -225.148 27.833 -141.891 27.833 -48.1436 c 257
 67.833 -48.1436 l 257
 67.833 -140.449 181.833 -185.182 243.833 -185.091 c 257
 243.833 -225.091 l 257
EndSplineSet
Refer: 251 -1 N 1 0 0 1 0 0 2
Ligature2: "si_abvs_4 subtable" si_MRa si_MatraIi
EndChar

StartChar: si_MRa
Encoding: 331 -1 255
GlifName: si_M_R_a
Width: 570
VWidth: 0
GlyphClass: 3
Flags: W
LayerCount: 2
Back
Fore
SplineSet
300 -225 m 257
 300 -185 l 257
 463.851 -185 558.009 -26.0862 446.704 52.124 c 257
 477.454 80.8232 l 257
 623.507 -32.3096 501.84 -225.078 300 -225 c 257
243.833 -225.091 m 257
 110.746 -225.148 27.833 -141.891 27.833 -48.1436 c 257
 67.833 -48.1436 l 257
 67.833 -140.449 181.833 -185.182 243.833 -185.091 c 257
 243.833 -225.091 l 257
EndSplineSet
Refer: 258 3512 N 1 0 0 1 0 0 2
Ligature2: "si_rakaar subtable" si_Ma si_Halant si_Ra
EndChar

StartChar: si_MU
Encoding: 327 -1 256
GlifName: si_M_U_
Width: 570
VWidth: 0
GlyphClass: 3
Flags: W
LayerCount: 2
Back
Fore
SplineSet
48 -165 m 257
 243 -165 l 257
 243 -205 l 257
 48 -205 l 257
 48 -165 l 257
299 -165 m 257
 478 -165 l 257
 478 -205 l 257
 299 -205 l 257
 299 -165 l 257
478 113 m 257
 518 133 l 257
 518 -205 l 257
 478 -205 l 257
 478 113 l 257
EndSplineSet
Refer: 258 3512 N 1 0 0 1 0 0 2
Ligature2: "si_blws_1 subtable" si_Ma si_MatraU
EndChar

StartChar: si_MUu
Encoding: 328 -1 257
GlifName: si_M_U_u
Width: 570
VWidth: 0
GlyphClass: 3
Flags: W
LayerCount: 2
Back
Fore
SplineSet
38 -142 m 257
 64.1855 -155.703 95.3203 -160.636 114.163 -160.636 c 256
 162.629 -160.636 177.931 -128 243 -128 c 257
 243 -170 l 257
 177.504 -170 161.646 -200.902 112.873 -200.902 c 256
 94.2773 -200.902 63.5127 -196.41 38 -184 c 257
 38 -142 l 257
299 -128 m 257
 328.143 -128 398.825 -130.922 478 -161 c 257
 478 -205 l 257
 393.61 -171.253 327 -170 299 -170 c 257
 299 -128 l 257
478 113 m 257
 518 133 l 257
 518 -205 l 257
 478 -205 l 257
 478 113 l 257
EndSplineSet
Refer: 258 3512 N 1 0 0 1 0 0 2
Ligature2: "si_blws_3 subtable" si_Ma si_MatraUu
EndChar

StartChar: si_Ma
Encoding: 50 3512 258
GlifName: si_M_a
Width: 570
VWidth: 0
GlyphClass: 2
Flags: W
AnchorPoint: "si_rakar" 320 -3 basechar 0
LayerCount: 2
Back
Fore
SplineSet
30 252 m 258
 30 336 l 258
 30 433.794 87.6278 478.511 141.625 478.511 c 256
 189.223 478.511 234 443.766 234 380 c 258
 234 315 l 258
 234 288.714 254.711 275.607 275.442 275.607 c 256
 296.211 275.607 317 288.763 317 315 c 258
 317 469 l 257
 357 469 l 257
 357 310 l 258
 357 256.851 316.223 230.25 275.46 230.25 c 256
 234.723 230.25 194 256.816 194 310 c 258
 194 380 l 258
 194 415.421 166.887 437.969 138.018 437.969 c 256
 105.148 437.969 70 408.739 70 336 c 258
 70 252 l 258
 70 53.8477 203.323 40 243 40 c 257
 243 0 l 257
 67.2822 0 30 143 30 252 c 258
299 0 m 257
 299 40 l 257
 412.056 40 499 95.2852 499 241 c 258
 499 514 l 258
 499 661.715 412.056 715 299 715 c 257
 299 755 l 257
 458.37 755 540 671.037 540 514 c 258
 540 241 l 258
 540 83.9629 458.37 0 299 0 c 257
30.375 563 m 257
 30.375 673.921 146.923 755 243 755 c 257
 243 715 l 257
 158.506 715 69.375 644.132 69.375 553 c 257
 30.375 563 l 257
EndSplineSet
EndChar

StartChar: si_MatraAa
Encoding: 63 3535 261
GlifName: si_M_atraA_a
Width: 260
VWidth: 0
GlyphClass: 2
Flags: W
HStem: 0 40<30 50 30 50> 534 40
VStem: 189 41
LayerCount: 2
Back
Fore
SplineSet
30 0 m 257
 30 40 l 257
 50 40 l 257
 102.112 40 189 46.1426 189 197 c 258
 189 367 l 258
 189 517.857 102.112 524 50 524 c 257
 30 524 l 257
 30 564 l 257
 50 564 l 257
 180.219 564 229.921 496.119 229.921 367.229 c 258
 229.921 196.771 l 258
 229.921 67.8809 180.219 0 50 0 c 257
 30 0 l 257
EndSplineSet
PickledDataWithLists: "(dp1
S'com.fontlab.hintData'
p2
(dp3
S'vhints'
p4
(lp5
(dp6
S'position'
p7
I189
sS'width'
p8
I41
sasS'hhints'
p9
(lp10
(dp11
g7
I0
sg8
I40
sa(dp12
g7
I534
sg8
I40
sass."
EndChar

StartChar: si_MatraAae
Encoding: 65 3537 263
GlifName: si_M_atraA_ae
Width: 277
VWidth: 0
GlyphClass: 2
Flags: W
HStem: 0 40<215 247> 383 40<50 50 50 247 179 247> 534 40<50 247 50 247 184 247 50 247>
VStem: 50 40<135.5 160 135.5 160>
LayerCount: 2
Back
Fore
SplineSet
49.9893 206.358 m 258
 49.9893 269.528 64 304 179 383 c 257
 247 383 l 257
 92 275 90 251.229 90 206 c 258
 90 160 l 258
 90 111 92.8037 40 215 40 c 256
 223.854 40 242.681 40 247 40 c 257
 247 0 l 257
 239.533 -0.00195312 223.229 -0.00292969 216.19 -0.00292969 c 256
 119.365 -0.00292969 50 33 50 160 c 258
 49.9893 206.358 l 258
50 423 m 257
 184 534 l 257
 247 534 l 257
 112 423 l 257
 50 423 l 257
50 534 m 257
 50 574 l 257
 247 574 l 257
 247 534 l 257
 50 534 l 257
50 383 m 257
 50 423 l 257
 247 423 l 257
 247 383 l 257
 50 383 l 257
EndSplineSet
PickledDataWithLists: "(dp1
S'com.fontlab.hintData'
p2
(dp3
S'vhints'
p4
(lp5
(dp6
S'position'
p7
I50
sS'width'
p8
I40
sasS'hhints'
p9
(lp10
(dp11
g7
I0
sg8
I40
sa(dp12
g7
I383
sg8
I40
sa(dp13
g7
I534
sg8
I40
sass."
EndChar

StartChar: si_MatraAe
Encoding: 64 3536 264
GlifName: si_M_atraA_e
Width: 257
VWidth: 0
GlyphClass: 2
Flags: W
HStem: 0 40<195 227> 534 40<30 167 30 227 30 227>
VStem: 30 40<183 309>
LayerCount: 2
Back
Fore
SplineSet
196.19 -0.00292969 m 256
 99.3652 -0.00292969 30 56 30 183 c 258
 30 309 l 258
 30 407.58 48 434 167 534 c 257
 30 534 l 257
 30 574 l 257
 227 574 l 257
 227 534 l 257
 74 408 70 387 70 309 c 258
 70 183 l 258
 70 134 72.8037 40 195 40 c 256
 203.854 40 222.681 40 227 40 c 257
 227 0 l 257
 219.533 -0.00195312 203.229 -0.00292969 196.19 -0.00292969 c 256
EndSplineSet
PickledDataWithLists: "(dp1
S'com.fontlab.hintData'
p2
(dp3
S'vhints'
p4
(lp5
(dp6
S'position'
p7
I30
sS'width'
p8
I40
sasS'hhints'
p9
(lp10
(dp11
g7
I0
sg8
I40
sa(dp12
g7
I534
sg8
I40
sass."
EndChar

StartChar: si_MatraE
Encoding: 71 3545 267
GlifName: si_M_atraE_
Width: 457
VWidth: 0
GlyphClass: 2
Flags: W
HStem: -5 40<155.056 188.263 188.263 209.334 257.334 278.405> 314 40 524 40<208.263 209.334 209.334 249.334 249.334 270.405 270.405 308.672>
VStem: 30 40<198 371> 387 40<117 154>
LayerCount: 2
Back
Fore
SplineSet
249.334 524 m 257
 249.334 564 l 257
 270.405 564 l 258
 367.099 564 416.702 487.265 423.658 430.848 c 257
 383.409 421 l 257
 379.858 442.834 368.01 524 249.334 524 c 257
233 314.2 m 257
 233 354.2 l 257
 320.071 354.2 l 258
 379 354.2 427 335 427 255 c 258
 427 157 l 258
 427 69.7471 383.668 -5 278.405 -5 c 258
 257.334 -5 l 257
 257.334 35 l 257
 350.232 35 387 80 387 154 c 258
 387.013 253.472 l 258
 387.013 311.458 347.32 314.2 320 314.2 c 258
 233 314.2 l 257
30 198 m 258
 30 371 l 258
 30 449.253 63 564 208.263 564 c 258
 249.334 564 l 257
 249.334 524 l 257
 209.334 524 l 257
 99.7793 524 70 450.398 70 371 c 258
 70 198 l 258
 70 98.6016 100.779 35 209.334 35 c 257
 209.334 -5 l 257
 188.263 -5 l 258
 43 -5 30 139.747 30 198 c 258
EndSplineSet
PickledDataWithLists: "(dp1
S'com.fontlab.hintData'
p2
(dp3
S'vhints'
p4
(lp5
(dp6
S'position'
p7
I30
sS'width'
p8
I40
sa(dp9
g7
I387
sg8
I40
sasS'hhints'
p10
(lp11
(dp12
g7
I-5
sg8
I40
sa(dp13
g7
I314
sg8
I40
sa(dp14
g7
I524
sg8
I40
sass."
EndChar

StartChar: si_MatraI
Encoding: 66 3538 269
GlifName: si_M_atraI_i
Width: 0
VWidth: 0
GlyphClass: 2
Flags: HW
LayerCount: 2
Back
Fore
SplineSet
-584 602 m 257
 -584 630 l 257
 -584 723 -508.258789062 789 -408 789 c 257
 -237 789 l 257
 -136.741210938 789 -61 723 -61 630 c 257
 -61 602 l 257
 -101 602 l 257
 -101 654.112304688 -110.142578125 749 -253 749 c 257
 -392 749 l 257
 -534.857421875 749 -544 654.112304688 -544 602 c 257
 -584 602 l 257
EndSplineSet
EndChar

StartChar: si_MatraIi
Encoding: 67 3539 270
GlifName: si_M_atraI_i000000000000001
Width: 0
VWidth: 0
GlyphClass: 2
Flags: HW
LayerCount: 2
Back
Fore
SplineSet
-151.040039062 573.559570312 m 256
 -200.959960938 573.559570312 -241.280273438 613.879882812 -241.280273438 663.799804688 c 256
 -241.280273438 713.719726562 -200.959960938 754.040039062 -151.040039062 754.040039062 c 256
 -101.120117188 754.040039062 -60.7998046875 713.719726562 -60.7998046875 663.799804688 c 256
 -60.7998046875 613.879882812 -101.120117188 573.559570312 -151.040039062 573.559570312 c 256
-580 602 m 257
 -580 630 l 257
 -580 723 -504.258789062 789 -404 789 c 257
 -223 789 l 257
 -137.778320312 789 -60.826171875 759.78515625 -60.7998046875 663.799804688 c 257
 -106 663 l 257
 -106 741 -192.216796875 749 -239 749 c 257
 -388 749 l 257
 -530.857421875 749 -540 654.112304688 -540 602 c 257
 -580 602 l 257
EndSplineSet
EndChar

StartChar: si_MatraLs
Encoding: 77 3551 272
GlifName: si_M_atraL_s
Width: 380
VWidth: 0
GlyphClass: 2
Flags: W
VStem: 116 141
LayerCount: 2
Back
Fore
SplineSet
180.997 -7.94722 m 256
 95.6657 -7.94722 10 44.7823 10 149 c 258
 10 202 l 257
 50 202 l 257
 50 148 l 257
 50 74.5364 116.264 36.6962 181.886 36.6962 c 256
 246.251 36.6962 310 73.1002 310 148 c 257
 310 466 l 257
 310 503.786 282.536 522.643 255.053 522.643 c 256
 227.536 522.643 200 503.737 200 466 c 257
 200 414 l 257
 200 346.518 152.403 312.674 104.855 312.674 c 256
 57.4032 312.674 10 346.381 10 414 c 257
 10 564 l 257
 50 564 l 257
 50 413 l 257
 50 375.263 77.5356 356.357 105.053 356.357 c 256
 132.536 356.357 160 375.214 160 413 c 257
 160 465 l 257
 160 532.619 207.403 566.326 254.855 566.326 c 256
 302.403 566.326 350 532.482 350 465 c 257
 350 149 l 257
 350 43.9644 265.663 -7.94722 180.997 -7.94722 c 256
EndSplineSet
PickledDataWithLists: "(dp1
S'com.fontlab.hintData'
p2
(dp3
S'vhints'
p4
(lp5
(dp6
S'position'
p7
I116
sS'width'
p8
I141
sass."
EndChar

StartChar: si_MatraR
Encoding: 70 3544 275
GlifName: si_M_atraR_
Width: 314
VWidth: 0
GlyphClass: 2
Flags: W
LayerCount: 2
Back
Fore
SplineSet
146 -0.257812 m 256
 70.8076 -0.257812 8.74219 61.8076 8.74219 137 c 256
 8.74219 212.192 70.8076 274.258 146 274.258 c 258
 187 274.258 l 257
 187 233.88 l 257
 146 233.88 l 258
 92.9268 233.88 49.1201 190.073 49.1201 137 c 256
 49.1201 83.9268 92.9268 40.1201 146 40.1201 c 256
 199.073 40.1201 242.88 83.9268 242.88 137 c 258
 243 398.623 l 257
 243 477.623 210.112 524 158 524 c 257
 68 524 l 257
 68 564 l 257
 156 564 l 257
 246 564 283.258 497.882 283.258 398.623 c 257
 283.258 137 l 258
 283.258 61.8076 221.192 -0.257812 146 -0.257812 c 256
EndSplineSet
EndChar

StartChar: si_MatraU
Encoding: 68 3540 277
GlifName: si_M_atraU_
Width: 0
VWidth: 0
GlyphClass: 2
Flags: HW
HStem: -197 140
VStem: -468 172
LayerCount: 2
Back
Fore
SplineSet
-100 133 m 261
 -60 133 l 261
 -60 -205 l 261
 -100 -205 l 261
 -100 133 l 261
-270 -165 m 261
 -90 -165 l 261
 -90 -205 l 261
 -270 -205 l 261
 -270 -165 l 261
-508 -165 m 261
 -326 -165 l 261
 -326 -205 l 261
 -508 -205 l 261
 -508 -165 l 261
EndSplineSet
PickledDataWithLists: "(dp1
S'com.fontlab.hintData'
p2
(dp3
S'vhints'
p4
(lp5
(dp6
S'position'
p7
I30
sS'width'
p8
I172
sasS'hhints'
p9
(lp10
(dp11
g7
I-197
sg8
I140
sass."
EndChar

StartChar: si_MatraU.alt
Encoding: 85 -1 278
GlifName: si_M_atraU_.alt
Width: 237
VWidth: 0
GlyphClass: 2
Flags: W
LayerCount: 2
Back
Fore
SplineSet
145.19 -205.003 m 258
 87.3652 -205.003 30 -166 30 -57 c 258
 30 -32 l 258
 30 77 87.3652 116.003 145.19 116.003 c 258
 207 116 l 257
 207 76 l 257
 145 76 l 258
 81.1406 76 70 16 70.0176 -30.9844 c 258
 70.0176 -58.0156 l 258
 70 -105 81.1406 -165 145 -165 c 258
 207 -165 l 257
 207 -205 l 257
 145.19 -205.003 l 258
EndSplineSet
EndChar

StartChar: si_MatraUu
Encoding: 69 3542 279
GlifName: si_M_atraU_u
Width: 0
VWidth: 0
GlyphClass: 2
Flags: HW
HStem: -199 41 -164 42<-486 -486 -314.96 -291 -235 -230.33>
LayerCount: 2
Back
Fore
SplineSet
-516 -122 m 261
 -484.879882812 -149.1796875 -461.077148438 -158.240234375 -440.426757812 -158.240234375 c 260
 -399.125 -158.240234375 -370.427734375 -122 -321 -122 c 261
 -321 -164 l 261
 -368.920898438 -164 -399.241210938 -199.416992188 -441.044921875 -199.416992188 c 260
 -461.947265625 -199.416992188 -485.720703125 -190.563476562 -516 -164 c 261
 -516 -122 l 261
-100 -205 m 261
 -100 123 l 261
 -60 123 l 261
 -60 -205 l 261
 -100 -205 l 261
-265 -122 m 261
 -255.66015625 -122 -189.442382812 -116.918945312 -100 -161 c 261
 -100 -205 l 261
 -187.752929688 -159.678710938 -249.20703125 -164 -265 -164 c 261
 -265 -122 l 261
EndSplineSet
PickledDataWithLists: "(dp1
S'com.fontlab.hintData'
p2
(dp3
S'hhints'
p4
(lp5
(dp6
S'position'
p7
I-199
sS'width'
p8
I41
sa(dp9
g7
I-164
sg8
I42
sass."
EndChar

StartChar: si_MatraUu.alt
Encoding: 86 -1 280
GlifName: si_M_atraU_u.alt
Width: 257
VWidth: 0
GlyphClass: 2
Flags: W
LayerCount: 2
Back
Fore
SplineSet
47.9453 -64 m 258
 47.9453 -28.1055 58.8887 -9.99219 75 0 c 256
 213 0 l 257
 205.74 0 169.654 0 163 0 c 256
 106.47 0 88 -28.6729 88 -64 c 258
 88 -104 l 258
 88.1201 -133.833 103.775 -164 146 -164 c 256
 159.071 -164 220.624 -164 227 -164 c 257
 227 -205 l 257
 146 -205.003 l 258
 89.875 -205.003 48 -161.81 48 -104 c 258
 47.9453 -64 l 258
30 0 m 257
 30 40 l 257
 227 40 l 257
 227 0 l 257
 30 0 l 257
30 40 m 257
 142 90 l 257
 227 90 l 257
 115 40 l 257
 30 40 l 257
30 90 m 257
 30 130 l 257
 227 130 l 257
 227 90 l 257
 30 90 l 257
EndSplineSet
EndChar

